<svg id="kity_svg_6" xmlns="http://www.w3.org/2000/svg" xmlns:xlink="http://www.w3.org/1999/xlink" version="1.1" width="2972" height="1699" style="background: rgb(251, 251, 251); visibility: visible;" viewBox="0 0 2972 1699"><defs id="kity_defs_7"><linearGradient id="kity_linearGradient_17" x1="0" y1="0" x2="0" y2="1"><stop id="kity_stop_18" offset="0" stop-color="rgb(255, 255, 255)"></stop><stop id="kity_stop_19" offset="1" stop-color="rgb(204, 204, 204)"></stop></linearGradient><marker id="kity_marker_2" orient="auto" refX="6" refY="0" viewBox="-7 -7 14 14" markerWidth="7" markerHeight="7" markerUnits="userSpaceOnUse"><path id="kity_path_3" fill="rgb(115, 161, 191)" stroke="none" d="M6,0A6,6,0,1,1,-6,0A6,6,0,1,1,6,0"></path></marker></defs><g id="kity_g_8"><g id="minder1" text-rendering="optimize-speed"><g id="minder_connect_group1"><path id="kity_path_31" fill="none" stroke="rgb(115, 161, 191)" stroke-width="1" d="M1145.5000155195594,84.5000012293458v30h-1077V134.5000012293458"></path><path id="kity_path_33" fill="none" stroke="rgb(115, 161, 191)" stroke-width="1" d="M40.50001551955938,166.5000012293458V212.5000012293458L60.50001551955938,212.5000012293458"></path><path id="kity_path_35" fill="none" stroke="rgb(115, 161, 191)" stroke-width="1" d="M80.50001551955938,223.5000012293458V264.5000012293458L100.50001551955938,264.5000012293458"></path><path id="kity_path_37" fill="none" stroke="rgb(115, 161, 191)" stroke-width="1" d="M80.50001551955938,223.5000012293458V316.5000012293458L100.50001551955938,316.5000012293458"></path><path id="kity_path_39" fill="none" stroke="rgb(115, 161, 191)" stroke-width="1" d="M40.50001551955938,166.5000012293458V420.5000012293458L60.50001551955938,420.5000012293458"></path><path id="kity_path_41" fill="none" stroke="rgb(115, 161, 191)" stroke-width="1" d="M80.50001551955938,431.5000012293458V472.5000012293458L100.50001551955938,472.5000012293458"></path><path id="kity_path_43" fill="none" stroke="rgb(115, 161, 191)" stroke-width="1" d="M120.50001551955938,483.5000012293458V524.5000012293458L140.50001551955938,524.5000012293458"></path><path id="kity_path_45" fill="none" stroke="rgb(115, 161, 191)" stroke-width="1" d="M80.50001551955938,431.5000012293458V576.5000012293458L100.50001551955938,576.5000012293458"></path><path id="kity_path_47" fill="none" stroke="rgb(115, 161, 191)" stroke-width="1" d="M80.50001551955938,431.5000012293458V628.5000012293458L100.50001551955938,628.5000012293458"></path><path id="kity_path_49" fill="none" stroke="rgb(115, 161, 191)" stroke-width="1" d="M40.50001551955938,166.5000012293458V732.5000012293458L60.50001551955938,732.5000012293458"></path><path id="kity_path_51" fill="none" stroke="rgb(115, 161, 191)" stroke-width="1" d="M80.50001551955938,743.5000012293458V784.5000012293458L100.50001551955938,784.5000012293458"></path><path id="kity_path_53" fill="none" stroke="rgb(115, 161, 191)" stroke-width="1" d="M80.50001551955938,743.5000012293458V836.5000012293458L100.50001551955938,836.5000012293458"></path><path id="kity_path_55" fill="none" stroke="rgb(115, 161, 191)" stroke-width="1" d="M80.50001551955938,743.5000012293458V888.5000012293458L100.50001551955938,888.5000012293458"></path><path id="kity_path_57" fill="none" stroke="rgb(115, 161, 191)" stroke-width="1" d="M40.50001551955938,166.5000012293458V940.5000012293458L60.50001551955938,940.5000012293458"></path><path id="kity_path_59" fill="none" stroke="rgb(115, 161, 191)" stroke-width="1" d="M80.50001551955938,951.5000012293458V992.5000012293458L100.50001551955938,992.5000012293458"></path><path id="kity_path_63" fill="none" stroke="rgb(115, 161, 191)" stroke-width="1" d="M1145.5000155195594,84.5000012293458v30h-395.5V134.5000012293458"></path><path id="kity_path_65" fill="none" stroke="rgb(115, 161, 191)" stroke-width="1" d="M701.5000155195594,166.5000012293458V212.5000012293458L721.5000155195594,212.5000012293458"></path><path id="kity_path_67" fill="none" stroke="rgb(115, 161, 191)" stroke-width="1" d="M741.5000155195594,223.5000012293458V264.5000012293458L761.5000155195594,264.5000012293458"></path><path id="kity_path_69" fill="none" stroke="rgb(115, 161, 191)" stroke-width="1" d="M741.5000155195594,223.5000012293458V316.5000012293458L761.5000155195594,316.5000012293458"></path><path id="kity_path_71" fill="none" stroke="rgb(115, 161, 191)" stroke-width="1" d="M741.5000155195594,223.5000012293458V368.5000012293458L761.5000155195594,368.5000012293458"></path><path id="kity_path_73" fill="none" stroke="rgb(115, 161, 191)" stroke-width="1" d="M701.5000155195594,166.5000012293458V420.5000012293458L721.5000155195594,420.5000012293458"></path><path id="kity_path_75" fill="none" stroke="rgb(115, 161, 191)" stroke-width="1" d="M741.5000155195594,431.5000012293458V472.5000012293458L761.5000155195594,472.5000012293458"></path><path id="kity_path_77" fill="none" stroke="rgb(115, 161, 191)" stroke-width="1" d="M701.5000155195594,166.5000012293458V524.5000012293458L721.5000155195594,524.5000012293458"></path><path id="kity_path_79" fill="none" stroke="rgb(115, 161, 191)" stroke-width="1" d="M741.5000155195594,535.5000012293458V576.5000012293458L761.5000155195594,576.5000012293458"></path><path id="kity_path_81" fill="none" stroke="rgb(115, 161, 191)" stroke-width="1" d="M741.5000155195594,535.5000012293458V628.5000012293458L761.5000155195594,628.5000012293458"></path><path id="kity_path_83" fill="none" stroke="rgb(115, 161, 191)" stroke-width="1" d="M741.5000155195594,535.5000012293458V680.5000012293458L761.5000155195594,680.5000012293458"></path><path id="kity_path_85" fill="none" stroke="rgb(115, 161, 191)" stroke-width="1" d="M781.5000155195594,691.5000012293458V732.5000012293458L801.5000155195594,732.5000012293458"></path><path id="kity_path_87" fill="none" stroke="rgb(115, 161, 191)" stroke-width="1" d="M701.5000155195594,166.5000012293458V784.5000012293458L721.5000155195594,784.5000012293458"></path><path id="kity_path_89" fill="none" stroke="rgb(115, 161, 191)" stroke-width="1" d="M741.5000155195594,795.5000012293458V836.5000012293458L761.5000155195594,836.5000012293458"></path><path id="kity_path_91" fill="none" stroke="rgb(115, 161, 191)" stroke-width="1" d="M741.5000155195594,1003.5000012293458V1044.5000012293458L761.5000155195594,1044.5000012293458"></path><path id="kity_path_93" fill="none" stroke="rgb(115, 161, 191)" stroke-width="1" d="M701.5000155195594,166.5000012293458V1096.5000012293458L721.5000155195594,1096.5000012293458"></path><path id="kity_path_95" fill="none" stroke="rgb(115, 161, 191)" stroke-width="1" d="M741.5000155195594,1107.5000012293458V1148.5000012293458L761.5000155195594,1148.5000012293458"></path><path id="kity_path_97" fill="none" stroke="rgb(115, 161, 191)" stroke-width="1" d="M781.5000155195594,1159.5000012293458V1200.5000012293458L801.5000155195594,1200.5000012293458"></path><path id="kity_path_99" fill="none" stroke="rgb(115, 161, 191)" stroke-width="1" d="M741.5000155195594,1107.5000012293458V1252.5000012293458L761.5000155195594,1252.5000012293458"></path><path id="kity_path_101" fill="none" stroke="rgb(115, 161, 191)" stroke-width="1" d="M781.5000155195594,1263.5000012293458V1309.5000012293458L801.5000155195594,1309.5000012293458"></path><path id="kity_path_103" fill="none" stroke="rgb(115, 161, 191)" stroke-width="1" d="M741.5000155195594,1107.5000012293458V1366.5000012293458L761.5000155195594,1366.5000012293458"></path><path id="kity_path_105" fill="none" stroke="rgb(115, 161, 191)" stroke-width="1" d="M781.5000155195594,1377.5000012293458V1418.5000012293458L801.5000155195594,1418.5000012293458"></path><path id="kity_path_107" fill="none" stroke="rgb(115, 161, 191)" stroke-width="1" d="M1145.5000155195594,84.5000012293458v30h596.5V134.5000012293458"></path><path id="kity_path_109" fill="none" stroke="rgb(115, 161, 191)" stroke-width="1" d="M1693.5000155195594,166.5000012293458V212.5000012293458L1713.5000155195594,212.5000012293458"></path><path id="kity_path_111" fill="none" stroke="rgb(115, 161, 191)" stroke-width="1" d="M1733.5000155195594,223.5000012293458V264.5000012293458L1753.5000155195594,264.5000012293458"></path><path id="kity_path_113" fill="none" stroke="rgb(115, 161, 191)" stroke-width="1" d="M1733.5000155195594,223.5000012293458V316.5000012293458L1753.5000155195594,316.5000012293458"></path><path id="kity_path_115" fill="none" stroke="rgb(115, 161, 191)" stroke-width="1" d="M1733.5000155195594,223.5000012293458V368.5000012293458L1753.5000155195594,368.5000012293458"></path><path id="kity_path_117" fill="none" stroke="rgb(115, 161, 191)" stroke-width="1" d="M1733.5000155195594,223.5000012293458V420.5000012293458L1753.5000155195594,420.5000012293458"></path><path id="kity_path_119" fill="none" stroke="rgb(115, 161, 191)" stroke-width="1" d="M1693.5000155195594,166.5000012293458V472.5000012293458L1713.5000155195594,472.5000012293458"></path><path id="kity_path_121" fill="none" stroke="rgb(115, 161, 191)" stroke-width="1" d="M1733.5000155195594,483.5000012293458V524.5000012293458L1753.5000155195594,524.5000012293458"></path><path id="kity_path_123" fill="none" stroke="rgb(115, 161, 191)" stroke-width="1" d="M1773.5000155195594,535.5000012293458V576.5000012293458L1793.5000155195594,576.5000012293458"></path><path id="kity_path_125" fill="none" stroke="rgb(115, 161, 191)" stroke-width="1" d="M1773.5000155195594,535.5000012293458V628.5000012293458L1793.5000155195594,628.5000012293458"></path><path id="kity_path_127" fill="none" stroke="rgb(115, 161, 191)" stroke-width="1" d="M1733.5000155195594,483.5000012293458V680.5000012293458L1753.5000155195594,680.5000012293458"></path><path id="kity_path_129" fill="none" stroke="rgb(115, 161, 191)" stroke-width="1" d="M1773.5000155195594,691.5000012293458V732.5000012293458L1793.5000155195594,732.5000012293458"></path><path id="kity_path_131" fill="none" stroke="rgb(115, 161, 191)" stroke-width="1" d="M1773.5000155195594,691.5000012293458V784.5000012293458L1793.5000155195594,784.5000012293458"></path><path id="kity_path_133" fill="none" stroke="rgb(115, 161, 191)" stroke-width="1" d="M1693.5000155195594,166.5000012293458V836.5000012293458L1713.5000155195594,836.5000012293458"></path><path id="kity_path_135" fill="none" stroke="rgb(115, 161, 191)" stroke-width="1" d="M1733.5000155195594,847.5000012293458V888.5000012293458L1753.5000155195594,888.5000012293458"></path><path id="kity_path_137" fill="none" stroke="rgb(115, 161, 191)" stroke-width="1" d="M1145.5000155195594,84.5000012293458v30h1065V134.5000012293458"></path><path id="kity_path_139" fill="none" stroke="rgb(115, 161, 191)" stroke-width="1" d="M2169.5000155195594,166.5000012293458V212.5000012293458L2189.5000155195594,212.5000012293458"></path><path id="kity_path_141" fill="none" stroke="rgb(115, 161, 191)" stroke-width="1" d="M2209.5000155195594,223.5000012293458V264.5000012293458L2229.5000155195594,264.5000012293458"></path><path id="kity_path_143" fill="none" stroke="rgb(115, 161, 191)" stroke-width="1" d="M2249.5000155195594,275.5000012293458V316.5000012293458L2269.5000155195594,316.5000012293458"></path><path id="kity_path_145" fill="none" stroke="rgb(115, 161, 191)" stroke-width="1" d="M2209.5000155195594,223.5000012293458V368.5000012293458L2229.5000155195594,368.5000012293458"></path><path id="kity_path_147" fill="none" stroke="rgb(115, 161, 191)" stroke-width="1" d="M2249.5000155195594,379.5000012293458V420.5000012293458L2269.5000155195594,420.5000012293458"></path><path id="kity_path_149" fill="none" stroke="rgb(115, 161, 191)" stroke-width="1" d="M2209.5000155195594,223.5000012293458V472.5000012293458L2229.5000155195594,472.5000012293458"></path><path id="kity_path_151" fill="none" stroke="rgb(115, 161, 191)" stroke-width="1" d="M2249.5000155195594,483.5000012293458V524.5000012293458L2269.5000155195594,524.5000012293458"></path><path id="kity_path_153" fill="none" stroke="rgb(115, 161, 191)" stroke-width="1" d="M2169.5000155195594,166.5000012293458V576.5000012293458L2189.5000155195594,576.5000012293458"></path><path id="kity_path_155" fill="none" stroke="rgb(115, 161, 191)" stroke-width="1" d="M2209.5000155195594,587.5000012293458V628.5000012293458L2229.5000155195594,628.5000012293458"></path><path id="kity_path_157" fill="none" stroke="rgb(115, 161, 191)" stroke-width="1" d="M2249.5000155195594,639.5000012293458V680.5000012293458L2269.5000155195594,680.5000012293458"></path><path id="kity_path_159" fill="none" stroke="rgb(115, 161, 191)" stroke-width="1" d="M2249.5000155195594,639.5000012293458V732.5000012293458L2269.5000155195594,732.5000012293458"></path><path id="kity_path_161" fill="none" stroke="rgb(115, 161, 191)" stroke-width="1" d="M2249.5000155195594,639.5000012293458V784.5000012293458L2269.5000155195594,784.5000012293458"></path><path id="kity_path_163" fill="none" stroke="rgb(115, 161, 191)" stroke-width="1" d="M2209.5000155195594,587.5000012293458V836.5000012293458L2229.5000155195594,836.5000012293458"></path><path id="kity_path_165" fill="none" stroke="rgb(115, 161, 191)" stroke-width="1" d="M2249.5000155195594,847.5000012293458V888.5000012293458L2269.5000155195594,888.5000012293458"></path><path id="kity_path_167" fill="none" stroke="rgb(115, 161, 191)" stroke-width="1" d="M2249.5000155195594,847.5000012293458V940.5000012293458L2269.5000155195594,940.5000012293458"></path><path id="kity_path_169" fill="none" stroke="rgb(115, 161, 191)" stroke-width="1" d="M2249.5000155195594,847.5000012293458V992.5000012293458L2269.5000155195594,992.5000012293458"></path><path id="kity_path_171" fill="none" stroke="rgb(115, 161, 191)" stroke-width="1" d="M2169.5000155195594,166.5000012293458V1044.5000012293458L2189.5000155195594,1044.5000012293458"></path><path id="kity_path_173" fill="none" stroke="rgb(115, 161, 191)" stroke-width="1" d="M2209.5000155195594,1055.5000012293458V1096.5000012293458L2229.5000155195594,1096.5000012293458"></path><path id="kity_path_175" fill="none" stroke="rgb(115, 161, 191)" stroke-width="1" d="M2209.5000155195594,1055.5000012293458V1148.5000012293458L2229.5000155195594,1148.5000012293458"></path><path id="kity_path_177" fill="none" stroke="rgb(115, 161, 191)" stroke-width="1" d="M2249.5000155195594,1159.5000012293458V1200.5000012293458L2269.5000155195594,1200.5000012293458"></path><path id="kity_path_179" fill="none" stroke="rgb(115, 161, 191)" stroke-width="1" d="M2249.5000155195594,1159.5000012293458V1252.5000012293458L2269.5000155195594,1252.5000012293458"></path><path id="kity_path_181" fill="none" stroke="rgb(115, 161, 191)" stroke-width="1" d="M2249.5000155195594,1159.5000012293458V1304.5000012293458L2269.5000155195594,1304.5000012293458"></path><path id="kity_path_183" fill="none" stroke="rgb(115, 161, 191)" stroke-width="1" d="M2169.5000155195594,166.5000012293458V1356.5000012293458L2189.5000155195594,1356.5000012293458"></path><path id="kity_path_185" fill="none" stroke="rgb(115, 161, 191)" stroke-width="1" d="M2209.5000155195594,1367.5000012293458V1408.5000012293458L2229.5000155195594,1408.5000012293458"></path><path id="kity_path_187" fill="none" stroke="rgb(115, 161, 191)" stroke-width="1" d="M2249.5000155195594,1419.5000012293458V1460.5000012293458L2269.5000155195594,1460.5000012293458"></path><path id="kity_path_189" fill="none" stroke="rgb(115, 161, 191)" stroke-width="1" d="M2209.5000155195594,1367.5000012293458V1512.5000012293458L2229.5000155195594,1512.5000012293458"></path><path id="kity_path_191" fill="none" stroke="rgb(115, 161, 191)" stroke-width="1" d="M2249.5000155195594,1523.5000012293458V1564.5000012293458L2269.5000155195594,1564.5000012293458"></path><path id="kity_path_193" fill="none" stroke="rgb(115, 161, 191)" stroke-width="1" d="M2249.5000155195594,1523.5000012293458V1616.5000012293458L2269.5000155195594,1616.5000012293458"></path><path id="kity_path_195" fill="none" stroke="rgb(115, 161, 191)" stroke-width="1" d="M2209.5000155195594,1367.5000012293458V1668.5000012293458L2229.5000155195594,1668.5000012293458"></path><path id="kity_path_738" fill="none" stroke="rgb(115, 161, 191)" stroke-width="1" d="M80.50001551955938,223.5000012293458V368.5000012293458L100.50001551955938,368.5000012293458"></path><path id="kity_path_746" fill="none" stroke="rgb(115, 161, 191)" stroke-width="1" d="M80.50001551955938,431.5000012293458V680.5000012293458L100.50001551955938,680.5000012293458"></path><path id="kity_path_762" fill="none" stroke="rgb(115, 161, 191)" stroke-width="1" d="M701.5000155195594,166.5000012293458V992.5000012293458L721.5000155195594,992.5000012293458"></path><path id="kity_path_770" fill="none" stroke="rgb(115, 161, 191)" stroke-width="1" d="M701.5000155195594,166.5000012293458V888.5000012293458L721.5000155195594,888.5000012293458"></path><path id="kity_path_787" fill="none" stroke="rgb(115, 161, 191)" stroke-width="1" d="M741.5000155195594,899.5000012293458V940.5000012293458L761.5000155195594,940.5000012293458"></path></g><g id="minder_node1"><path id="node_outline1" fill="#548dd4" stroke="rgb(115, 161, 191)" d="M915.5000155195594,20.5000012293458h459a5,5,0,0,1,5,5v54a5,5,0,0,1,-5,5h-459a5,5,0,0,1,-5,-5v-54a5,5,0,0,1,5,-5z" stroke-width="3"></path><g id="node_text1" fill="white"><text id="kity_text_22" text-rendering="inherit" font-size="16" dy=".8em" y="30.10000119358301" font-family="微软雅黑,Microsoft YaHei" x="934.5000155195594">科技、娱乐与设计</text><text id="kity_text_362" text-rendering="inherit" font-family="微软雅黑,Microsoft YaHei" font-size="16" dy=".8em" y="54.10000119358301" x="934.5000155195594">https://wordlesssoda.github.io/TED_notes/TED.svg</text></g><a id="kity_a_386" xlink:href="https://wordlesssoda.github.io/TED_notes/TED.svg" target="_blank" xlink:title="https://wordlesssoda.github.io/TED_notes/TED.svg" style="cursor: pointer;"><path id="kity_path_388" fill="rgba(255, 255, 255, 0)" stroke="none" d="M1335.5000214651227,41.50000115483999h16a4,4,0,0,1,4,4v14a4,4,0,0,1,-4,4h-16a4,4,0,0,1,-4,-4v-14a4,4,0,0,1,4,-4z"></path><path id="kity_path_387" fill="#666" stroke="none" d="M1350.1140214651227,57.724001154839996h-1.278c-1.668,0,-3.07,-1.07,-3.599,-2.556h4.877c0.707,0,1.278,-0.571,1.278,-1.278V51.334001154839996c0,-0.707,-0.571,-1.278,-1.278,-1.278h-4.877C1345.7660214651228,48.57100115483999,1347.1680214651226,47.50000115483999,1348.8360214651227,47.50000115483999h1.278c2.116,0,3.834,1.716,3.834,3.834V53.89000115483999C1353.9480214651228,56.00800115483999,1352.2300214651227,57.724001154839996,1350.1140214651227,57.724001154839996zM1338.6120214651228,52.612001154839994c0,-0.707,0.573,-1.278,1.278,-1.278h7.668c0.707,0,1.278,0.571,1.278,1.278S1348.2650214651228,53.89000115483999,1347.5580214651227,53.89000115483999H1339.8900214651228C1339.1850214651226,53.89000115483999,1338.6120214651228,53.319001154839995,1338.6120214651228,52.612001154839994zM1336.0560214651227,51.334001154839996V53.89000115483999c0,0.707,0.573,1.278,1.278,1.278h4.877c-0.528,1.486,-1.932,2.556,-3.599,2.556H1337.3340214651228C1335.2160214651226,57.724001154839996,1333.5000214651227,56.00800115483999,1333.5000214651227,53.89000115483999V51.334001154839996C1333.5000214651227,49.216001154839994,1335.2160214651226,47.50000115483999,1337.3340214651228,47.50000115483999h1.278c1.667,0,3.071,1.071,3.599,2.556H1337.3340214651228C1336.6290214651226,50.05600115483999,1336.0560214651227,50.627001154839995,1336.0560214651227,51.334001154839996z"></path></a></g><g id="kity_g_14" display="none"><path id="kity_path_15" fill="rgba(0, 92, 153, 0.5)" stroke="none" d="M100.50001551955938,382.5000012293458h189v15h-189z"></path><path id="kity_path_16" fill="none" stroke="rgb(0, 76, 128)" d="M100.50001551955938,382.5000012293458L289.5000155195594,382.5000012293458" stroke-width="1"></path></g><g id="minder_node2"><g id="node_expander16" style="cursor: pointer;"><path id="kity_path_518" fill="white" stroke="gray" d="M74.00000260770321,127.50000234693289A6,6,0,1,1,62.00000260770321,127.50000234693289A6,6,0,1,1,74.00000260770321,127.50000234693289"></path><path id="kity_path_519" fill="none" stroke="gray" d="M63.50000260770321,127.50000234693289L72.50000260770321,127.50000234693289"></path></g><path id="node_outline17" fill="#548dd4" stroke="rgb(115, 161, 191)" d="M23.500002570450306,134.5000026896596h89a3,3,0,0,1,3,3v26a3,3,0,0,1,-3,3h-89a3,3,0,0,1,-3,-3v-26a3,3,0,0,1,3,-3z" stroke-width="1"></path><g id="node_text17" fill="white"><text id="kity_text_227" text-rendering="inherit" font-family="微软雅黑,Microsoft YaHei" font-size="14" dy=".8em" y="141.40000265836716" x="65.5000025704503">人体</text></g><g id="node_priority1"><path id="kity_path_365" fill="#840023" stroke="none" d="M41.00000220537186,154.00000254809856c0,3.866,3.134,7,7,7h6c3.866,0,7,-3.134,7,-7V148.00000254809856H41.00000220537186V154.00000254809856z"></path><path id="kity_path_366" fill="#FF1200" stroke="none" d="M61.00000220537186,151.00000254809856c0,3.866,-3.134,7,-7,7H48.00000220537186c-3.866,0,-7,-3.134,-7,-7V148.00000254809856c0,-3.866,3.134,-7,7,-7h6c3.866,0,7,3.134,7,7V151.00000254809856z" opacity="0.8"></path><text id="kity_text_367" text-rendering="geometricPrecision" x="50.000002197921276" y="150.50000254064798" text-anchor="middle" font-style="italic" font-size="12" fill="white" dy="5">1</text></g></g><g id="minder_node3"><g id="node_expander3" style="cursor: pointer;"><path id="kity_path_479" fill="white" stroke="gray" d="M60.50000240653753,212.5000036135316A6,6,0,1,1,48.50000240653753,212.5000036135316A6,6,0,1,1,60.50000240653753,212.5000036135316"></path><path id="kity_path_480" fill="none" stroke="gray" d="M50.00000240653753,212.5000036135316L59.00000240653753,212.5000036135316"></path></g><path id="node_outline4" fill="#548dd4" stroke="none" d="M65.50000264495611,201.5000036135316h36a5,5,0,0,1,5,5v12a5,5,0,0,1,-5,5h-36a5,5,0,0,1,-5,-5v-12a5,5,0,0,1,5,-5z" stroke-width="3"></path><g id="node_text4" fill="white"><text id="kity_text_201" text-rendering="inherit" font-family="微软雅黑,Microsoft YaHei" font-size="12" dy=".8em" y="204.7000035867095" x="70.50000264495611">性爱</text></g></g><g id="minder_node4"><g id="node_expander1" style="cursor: pointer;" display="none"><path id="kity_path_473" fill="white" stroke="gray" d="M100.50000300258398,264.500004388392A6,6,0,1,1,88.50000300258398,264.500004388392A6,6,0,1,1,100.50000300258398,264.500004388392"></path><path id="kity_path_474" fill="none" stroke="gray"></path></g><path id="node_outline2" fill="none" stroke="none" d="M105.50000324100256,253.50000438839197h263a5,5,0,0,1,5,5v12a5,5,0,0,1,-5,5h-263a5,5,0,0,1,-5,-5v-12a5,5,0,0,1,5,-5z" stroke-width="3"></path><g id="node_text2" fill="black"><text id="kity_text_197" text-rendering="inherit" font-family="微软雅黑,Microsoft YaHei" font-size="12" dy=".8em" y="256.7000043615699" x="110.50000324100256">生活模仿艺术，色情影片已成性启蒙的形式之一</text></g></g><g id="minder_node5"><g id="node_expander2" style="cursor: pointer;" display="none"><path id="kity_path_476" fill="white" stroke="gray" d="M100.50000300258398,316.50000516325235A6,6,0,1,1,88.50000300258398,316.50000516325235A6,6,0,1,1,100.50000300258398,316.50000516325235"></path><path id="kity_path_477" fill="none" stroke="gray"></path></g><path id="node_outline3" fill="none" stroke="none" d="M105.50000324100256,305.50000516325235h276a5,5,0,0,1,5,5v12a5,5,0,0,1,-5,5h-276a5,5,0,0,1,-5,-5v-12a5,5,0,0,1,5,-5z" stroke-width="3"></path><g id="node_text3" fill="black"><text id="kity_text_199" text-rendering="inherit" font-family="微软雅黑,Microsoft YaHei" font-size="12" dy=".8em" y="308.70000513643026" x="110.50000324100256">纠正色情影片价值观，促成社会性别转向性别平等 </text></g></g><g id="minder_node6"><g id="node_expander8" style="cursor: pointer;"><path id="kity_path_494" fill="white" stroke="gray" d="M60.50000240653753,420.5000067129731A6,6,0,1,1,48.50000240653753,420.5000067129731A6,6,0,1,1,60.50000240653753,420.5000067129731"></path><path id="kity_path_495" fill="none" stroke="gray" d="M50.00000240653753,420.5000067129731L59.00000240653753,420.5000067129731"></path></g><path id="node_outline9" fill="#548dd4" stroke="none" d="M65.50000264495611,409.5000067129731h35a5,5,0,0,1,5,5v12a5,5,0,0,1,-5,5h-35a5,5,0,0,1,-5,-5v-12a5,5,0,0,1,5,-5z" stroke-width="3"></path><g id="node_text9" fill="white"><text id="kity_text_211" text-rendering="inherit" font-family="微软雅黑,Microsoft YaHei" font-size="12" dy=".8em" y="412.700006686151" x="70.50000264495611">上瘾</text></g></g><g id="minder_node7"><g id="node_expander5" style="cursor: pointer;"><path id="kity_path_485" fill="white" stroke="gray" d="M100.50000300258398,472.5000074878335A6,6,0,1,1,88.50000300258398,472.5000074878335A6,6,0,1,1,100.50000300258398,472.5000074878335"></path><path id="kity_path_486" fill="none" stroke="gray" d="M90.00000300258398,472.5000074878335L99.00000300258398,472.5000074878335"></path></g><path id="node_outline6" fill="none" stroke="none" d="M105.50000324100256,461.5000074878335h336a5,5,0,0,1,5,5v12a5,5,0,0,1,-5,5h-336a5,5,0,0,1,-5,-5v-12a5,5,0,0,1,5,-5z" stroke-width="3"></path><g id="node_text6" fill="black"><text id="kity_text_205" text-rendering="inherit" font-family="微软雅黑,Microsoft YaHei" font-size="12" dy=".8em" y="464.7000074610114" x="110.50000324100256">科技公司为了获取利益打响用户注意力争夺战，促使人们上瘾</text></g></g><g id="minder_node8"><g id="node_expander4" style="cursor: pointer;" display="none"><path id="kity_path_482" fill="white" stroke="gray" d="M140.50000359863043,524.5000082626939A6,6,0,1,1,128.50000359863043,524.5000082626939A6,6,0,1,1,140.50000359863043,524.5000082626939"></path><path id="kity_path_483" fill="none" stroke="gray"></path></g><path id="node_outline5" fill="none" stroke="none" d="M145.500003837049,513.5000082626939h491a5,5,0,0,1,5,5v12a5,5,0,0,1,-5,5h-491a5,5,0,0,1,-5,-5v-12a5,5,0,0,1,5,-5z" stroke-width="3"></path><g id="node_text5" fill="black"><text id="kity_text_203" text-rendering="inherit" font-family="微软雅黑,Microsoft YaHei" font-size="12" dy=".8em" y="516.7000082358718" x="150.500003837049">例子：YouTube、Netflix、Facebook等为了留住用户的注意力设计了自动连播视频的功能</text></g></g><g id="minder_node9"><g id="node_expander6" style="cursor: pointer;" display="none"><path id="kity_path_488" fill="white" stroke="gray" d="M100.50000300258398,576.5000090375543A6,6,0,1,1,88.50000300258398,576.5000090375543A6,6,0,1,1,100.50000300258398,576.5000090375543"></path><path id="kity_path_489" fill="none" stroke="gray"></path></g><path id="node_outline7" fill="none" stroke="none" d="M105.50000324100256,565.5000090375543h310a5,5,0,0,1,5,5v12a5,5,0,0,1,-5,5h-310a5,5,0,0,1,-5,-5v-12a5,5,0,0,1,5,-5z" stroke-width="3"></path><g id="node_text7" fill="black"><text id="kity_text_207" text-rendering="inherit" font-family="微软雅黑,Microsoft YaHei" font-size="12" dy=".8em" y="568.7000090107322" x="110.50000324100256">网络社交的大环境倒逼我们上瘾，因为人类是社会性动物</text></g></g><g id="minder_node10"><g id="node_expander7" style="cursor: pointer;" display="none"><path id="kity_path_491" fill="white" stroke="gray" d="M100.50000300258398,628.5000098124146A6,6,0,1,1,88.50000300258398,628.5000098124146A6,6,0,1,1,100.50000300258398,628.5000098124146"></path><path id="kity_path_492" fill="none" stroke="gray"></path></g><path id="node_outline8" fill="none" stroke="none" d="M105.50000324100256,617.5000098124146h191a5,5,0,0,1,5,5v12a5,5,0,0,1,-5,5h-191a5,5,0,0,1,-5,-5v-12a5,5,0,0,1,5,-5z" stroke-width="3"></path><g id="node_text8" fill="black"><text id="kity_text_209" text-rendering="inherit" font-family="微软雅黑,Microsoft YaHei" font-size="12" dy=".8em" y="620.7000097855926" x="110.50000324100256">君子役物，小人役于物，学会役物</text></g></g><g id="minder_node11"><g id="node_expander12" style="cursor: pointer;"><path id="kity_path_506" fill="white" stroke="gray" d="M60.50000240653753,732.5000113621354A6,6,0,1,1,48.50000240653753,732.5000113621354A6,6,0,1,1,60.50000240653753,732.5000113621354"></path><path id="kity_path_507" fill="none" stroke="gray" d="M50.00000240653753,732.5000113621354L59.00000240653753,732.5000113621354"></path></g><path id="node_outline13" fill="#548dd4" stroke="none" d="M65.50000264495611,721.5000113621354h35a5,5,0,0,1,5,5v12a5,5,0,0,1,-5,5h-35a5,5,0,0,1,-5,-5v-12a5,5,0,0,1,5,-5z" stroke-width="3"></path><g id="node_text13" fill="white"><text id="kity_text_219" text-rendering="inherit" font-family="微软雅黑,Microsoft YaHei" font-size="12" dy=".8em" y="724.7000113353133" x="70.50000264495611">情绪</text></g></g><g id="minder_node12"><g id="node_expander9" style="cursor: pointer;" display="none"><path id="kity_path_497" fill="white" stroke="gray" d="M100.50000300258398,784.5000121369958A6,6,0,1,1,88.50000300258398,784.5000121369958A6,6,0,1,1,100.50000300258398,784.5000121369958"></path><path id="kity_path_498" fill="none" stroke="gray"></path></g><path id="node_outline10" fill="none" stroke="none" d="M105.50000324100256,773.5000121369958h396a5,5,0,0,1,5,5v12a5,5,0,0,1,-5,5h-396a5,5,0,0,1,-5,-5v-12a5,5,0,0,1,5,-5z" stroke-width="3"></path><g id="node_text10" fill="black"><text id="kity_text_213" text-rendering="inherit" font-family="微软雅黑,Microsoft YaHei" font-size="12" dy=".8em" y="776.7000121101737" x="110.50000324100256">情绪是即时产生的猜测，通过我们的大脑的解读理解而产生对情绪的想法</text></g></g><g id="minder_node13"><g id="node_expander10" style="cursor: pointer;" display="none"><path id="kity_path_500" fill="white" stroke="gray" d="M100.50000300258398,836.5000129118562A6,6,0,1,1,88.50000300258398,836.5000129118562A6,6,0,1,1,100.50000300258398,836.5000129118562"></path><path id="kity_path_501" fill="none" stroke="gray"></path></g><path id="node_outline11" fill="none" stroke="none" d="M105.50000324100256,825.5000129118562h227a5,5,0,0,1,5,5v12a5,5,0,0,1,-5,5h-227a5,5,0,0,1,-5,-5v-12a5,5,0,0,1,5,-5z" stroke-width="3"></path><g id="node_text11" fill="black"><text id="kity_text_215" text-rendering="inherit" font-family="微软雅黑,Microsoft YaHei" font-size="12" dy=".8em" y="828.7000128850341" x="110.50000324100256">情绪驱动人类行为，我们要学会控制情绪</text></g></g><g id="minder_node14"><g id="node_expander11" style="cursor: pointer;" display="none"><path id="kity_path_503" fill="white" stroke="gray" d="M100.50000300258398,888.5000136867166A6,6,0,1,1,88.50000300258398,888.5000136867166A6,6,0,1,1,100.50000300258398,888.5000136867166"></path><path id="kity_path_504" fill="none" stroke="gray"></path></g><path id="node_outline12" fill="none" stroke="none" d="M105.50000324100256,877.5000136867166h216a5,5,0,0,1,5,5v12a5,5,0,0,1,-5,5h-216a5,5,0,0,1,-5,-5v-12a5,5,0,0,1,5,-5z" stroke-width="3"></path><g id="node_text12" fill="black"><text id="kity_text_217" text-rendering="inherit" font-family="微软雅黑,Microsoft YaHei" font-size="12" dy=".8em" y="880.7000136598945" x="110.50000324100256">情感融入人工智能可能是一件危险的事</text></g></g><g id="minder_node15"><g id="node_expander15" style="cursor: pointer;"><path id="kity_path_515" fill="white" stroke="gray" d="M60.50000240653753,940.5000144615769A6,6,0,1,1,48.50000240653753,940.5000144615769A6,6,0,1,1,60.50000240653753,940.5000144615769"></path><path id="kity_path_516" fill="none" stroke="gray" d="M50.00000240653753,940.5000144615769L59.00000240653753,940.5000144615769"></path></g><path id="node_outline16" fill="#548dd4" stroke="none" d="M65.50000264495611,929.5000144615769h36a5,5,0,0,1,5,5v12a5,5,0,0,1,-5,5h-36a5,5,0,0,1,-5,-5v-12a5,5,0,0,1,5,-5z" stroke-width="3"></path><g id="node_text16" fill="white"><text id="kity_text_225" text-rendering="inherit" font-family="微软雅黑,Microsoft YaHei" font-size="12" dy=".8em" y="932.7000144347548" x="70.50000264495611">灵感</text></g></g><g id="minder_node16"><g id="node_expander13" style="cursor: pointer;" display="none"><path id="kity_path_509" fill="white" stroke="gray" d="M100.50000300258398,992.5000152364373A6,6,0,1,1,88.50000300258398,992.5000152364373A6,6,0,1,1,100.50000300258398,992.5000152364373"></path><path id="kity_path_510" fill="none" stroke="gray"></path></g><path id="node_outline14" fill="none" stroke="none" d="M105.50000324100256,981.5000152364373h263a5,5,0,0,1,5,5v12a5,5,0,0,1,-5,5h-263a5,5,0,0,1,-5,-5v-12a5,5,0,0,1,5,-5z" stroke-width="3"></path><g id="node_text14" fill="black"><text id="kity_text_221" text-rendering="inherit" font-size="12" dy=".8em" y="984.7000152096152" x="110.50000324100256">人类活动对注意力的转移能否促进灵感的产生？</text></g></g><g id="minder_node18"><g id="node_expander38" style="cursor: pointer;"><path id="kity_path_584" fill="white" stroke="gray" d="M755.5000127628446,127.50000234693289A6,6,0,1,1,743.5000127628446,127.50000234693289A6,6,0,1,1,755.5000127628446,127.50000234693289"></path><path id="kity_path_585" fill="none" stroke="gray" d="M745.0000127628446,127.50000234693289L754.0000127628446,127.50000234693289"></path></g><path id="node_outline39" fill="#548dd4" stroke="rgb(115, 161, 191)" d="M684.5000124201179,134.5000026896596h130a3,3,0,0,1,3,3v26a3,3,0,0,1,-3,3h-130a3,3,0,0,1,-3,-3v-26a3,3,0,0,1,3,-3z" stroke-width="1"></path><g id="node_text39" fill="white"><text id="kity_text_271" text-rendering="inherit" font-family="微软雅黑,Microsoft YaHei" font-size="14" dy=".8em" y="141.40000265836716" x="726.5000124201179">大数据应用</text></g><g id="node_priority2"><path id="kity_path_370" fill="#01467F" stroke="none" d="M702.0000120550394,154.00000254809856c0,3.866,3.134,7,7,7h6c3.866,0,7,-3.134,7,-7V148.00000254809856H702.0000120550394V154.00000254809856z"></path><path id="kity_path_371" fill="#0074FF" stroke="none" d="M722.0000120550394,151.00000254809856c0,3.866,-3.134,7,-7,7H709.0000120550394c-3.866,0,-7,-3.134,-7,-7V148.00000254809856c0,-3.866,3.134,-7,7,-7h6c3.866,0,7,3.134,7,7V151.00000254809856z" opacity="0.8"></path><text id="kity_text_372" text-rendering="geometricPrecision" x="711.0000120475888" y="150.50000254064798" text-anchor="middle" font-style="italic" font-size="12" fill="white" dy="5">2</text></g></g><g id="minder_node19"><g id="node_expander20" style="cursor: pointer;"><path id="kity_path_530" fill="white" stroke="gray" d="M721.5000122562051,212.5000036135316A6,6,0,1,1,709.5000122562051,212.5000036135316A6,6,0,1,1,721.5000122562051,212.5000036135316"></path><path id="kity_path_531" fill="none" stroke="gray" d="M711.0000122562051,212.5000036135316L720.0000122562051,212.5000036135316"></path></g><path id="node_outline21" fill="#548dd4" stroke="none" d="M726.5000124946237,201.5000036135316h47a5,5,0,0,1,5,5v12a5,5,0,0,1,-5,5h-47a5,5,0,0,1,-5,-5v-12a5,5,0,0,1,5,-5z" stroke-width="3"></path><g id="node_text21" fill="white"><text id="kity_text_235" text-rendering="inherit" font-family="微软雅黑,Microsoft YaHei" font-size="12" dy=".8em" y="204.7000035867095" x="731.5000124946237">数字屑</text></g></g><g id="minder_node20"><g id="node_expander17" style="cursor: pointer;" display="none"><path id="kity_path_521" fill="white" stroke="gray" d="M761.5000128522515,264.500004388392A6,6,0,1,1,749.5000128522515,264.500004388392A6,6,0,1,1,761.5000128522515,264.500004388392"></path><path id="kity_path_522" fill="none" stroke="gray"></path></g><path id="node_outline18" fill="none" stroke="none" d="M766.5000130906701,253.50000438839197h156a5,5,0,0,1,5,5v12a5,5,0,0,1,-5,5h-156a5,5,0,0,1,-5,-5v-12a5,5,0,0,1,5,-5z" stroke-width="3"></path><g id="node_text18" fill="black"><text id="kity_text_229" text-rendering="inherit" font-family="微软雅黑,Microsoft YaHei" font-size="12" dy=".8em" y="256.7000043615699" x="771.5000130906701">数字屑是网络中的个人数据</text></g></g><g id="minder_node21"><g id="node_expander18" style="cursor: pointer;" display="none"><path id="kity_path_524" fill="white" stroke="gray" d="M761.5000128522515,316.50000516325235A6,6,0,1,1,749.5000128522515,316.50000516325235A6,6,0,1,1,761.5000128522515,316.50000516325235"></path><path id="kity_path_525" fill="none" stroke="gray"></path></g><path id="node_outline19" fill="none" stroke="none" d="M766.5000130906701,305.50000516325235h300a5,5,0,0,1,5,5v12a5,5,0,0,1,-5,5h-300a5,5,0,0,1,-5,-5v-12a5,5,0,0,1,5,-5z" stroke-width="3"></path><g id="node_text19" fill="black"><text id="kity_text_231" text-rendering="inherit" font-size="12" dy=".8em" y="308.70000513643026" x="771.5000130906701">数字屑能够成为数字能力，但也可能会让我们成为奴隶</text></g></g><g id="minder_node22"><g id="node_expander19" style="cursor: pointer;" display="none"><path id="kity_path_527" fill="white" stroke="gray" d="M761.5000128522515,368.50000593811274A6,6,0,1,1,749.5000128522515,368.50000593811274A6,6,0,1,1,761.5000128522515,368.50000593811274"></path><path id="kity_path_528" fill="none" stroke="gray"></path></g><path id="node_outline20" fill="none" stroke="none" d="M766.5000130906701,357.50000593811274h395a5,5,0,0,1,5,5v12a5,5,0,0,1,-5,5h-395a5,5,0,0,1,-5,-5v-12a5,5,0,0,1,5,-5z" stroke-width="3"></path><g id="node_text20" fill="black"><text id="kity_text_233" text-rendering="inherit" font-family="微软雅黑,Microsoft YaHei" font-size="12" dy=".8em" y="360.70000591129065" x="771.5000130906701">个人还是企业掌握数字屑是关键，我们需要认真考量并掌握自己的数字屑</text></g></g><g id="minder_node23"><g id="node_expander22" style="cursor: pointer;"><path id="kity_path_536" fill="white" stroke="gray" d="M721.5000122562051,420.5000067129731A6,6,0,1,1,709.5000122562051,420.5000067129731A6,6,0,1,1,721.5000122562051,420.5000067129731"></path><path id="kity_path_537" fill="none" stroke="gray" d="M711.0000122562051,420.5000067129731L720.0000122562051,420.5000067129731"></path></g><path id="node_outline23" fill="#548dd4" stroke="none" d="M726.5000124946237,409.5000067129731h47a5,5,0,0,1,5,5v12a5,5,0,0,1,-5,5h-47a5,5,0,0,1,-5,-5v-12a5,5,0,0,1,5,-5z" stroke-width="3"></path><g id="node_text23" fill="white"><text id="kity_text_239" text-rendering="inherit" font-family="微软雅黑,Microsoft YaHei" font-size="12" dy=".8em" y="412.700006686151" x="731.5000124946237">区块链</text></g></g><g id="minder_node24"><g id="node_expander21" style="cursor: pointer;" display="none"><path id="kity_path_533" fill="white" stroke="gray" d="M761.5000128522515,472.5000074878335A6,6,0,1,1,749.5000128522515,472.5000074878335A6,6,0,1,1,761.5000128522515,472.5000074878335"></path><path id="kity_path_534" fill="none" stroke="gray"></path></g><path id="node_outline22" fill="none" stroke="none" d="M766.5000130906701,461.5000074878335h275a5,5,0,0,1,5,5v12a5,5,0,0,1,-5,5h-275a5,5,0,0,1,-5,-5v-12a5,5,0,0,1,5,-5z" stroke-width="3"></path><g id="node_text22" fill="black"><text id="kity_text_237" text-rendering="inherit" font-size="12" dy=".8em" y="464.7000074610114" x="771.5000130906701">保护交易数据的“信任协议”，打破现有交易规则</text></g></g><g id="minder_node25"><g id="node_expander27" style="cursor: pointer;"><path id="kity_path_551" fill="white" stroke="gray" d="M721.5000122562051,524.5000082626939A6,6,0,1,1,709.5000122562051,524.5000082626939A6,6,0,1,1,721.5000122562051,524.5000082626939"></path><path id="kity_path_552" fill="none" stroke="gray" d="M711.0000122562051,524.5000082626939L720.0000122562051,524.5000082626939"></path></g><path id="node_outline28" fill="#548dd4" stroke="none" d="M726.5000124946237,513.5000082626939h71a5,5,0,0,1,5,5v12a5,5,0,0,1,-5,5h-71a5,5,0,0,1,-5,-5v-12a5,5,0,0,1,5,-5z" stroke-width="3"></path><g id="node_text28" fill="white"><text id="kity_text_249" text-rendering="inherit" font-family="微软雅黑,Microsoft YaHei" font-size="12" dy=".8em" y="516.7000082358718" x="731.5000124946237">大数据应用</text></g></g><g id="minder_node26"><g id="node_expander23" style="cursor: pointer;" display="none"><path id="kity_path_539" fill="white" stroke="gray" d="M761.5000128522515,576.5000090375543A6,6,0,1,1,749.5000128522515,576.5000090375543A6,6,0,1,1,761.5000128522515,576.5000090375543"></path><path id="kity_path_540" fill="none" stroke="gray"></path></g><path id="node_outline24" fill="none" stroke="none" d="M766.5000130906701,565.5000090375543h276a5,5,0,0,1,5,5v12a5,5,0,0,1,-5,5h-276a5,5,0,0,1,-5,-5v-12a5,5,0,0,1,5,-5z" stroke-width="3"></path><g id="node_text24" fill="black"><text id="kity_text_241" text-rendering="inherit" font-family="微软雅黑,Microsoft YaHei" font-size="12" dy=".8em" y="568.7000090107322" x="771.5000130906701">人工智能时代，大数据的应用应坚守人类道德底线</text></g></g><g id="minder_node27"><g id="node_expander24" style="cursor: pointer;" display="none"><path id="kity_path_542" fill="white" stroke="gray" d="M761.5000128522515,628.5000098124146A6,6,0,1,1,749.5000128522515,628.5000098124146A6,6,0,1,1,761.5000128522515,628.5000098124146"></path><path id="kity_path_543" fill="none" stroke="gray"></path></g><path id="node_outline25" fill="none" stroke="none" d="M766.5000130906701,617.5000098124146h204a5,5,0,0,1,5,5v12a5,5,0,0,1,-5,5h-204a5,5,0,0,1,-5,-5v-12a5,5,0,0,1,5,-5z" stroke-width="3"></path><g id="node_text25" fill="black"><text id="kity_text_243" text-rendering="inherit" font-size="12" dy=".8em" y="620.7000097855926" x="771.5000130906701">大数据的意义关键在于运用它的人类</text></g></g><g id="minder_node28"><g id="node_expander26" style="cursor: pointer;"><path id="kity_path_548" fill="white" stroke="gray" d="M761.5000128522515,680.500010587275A6,6,0,1,1,749.5000128522515,680.500010587275A6,6,0,1,1,761.5000128522515,680.500010587275"></path><path id="kity_path_549" fill="none" stroke="gray" d="M751.0000128522515,680.500010587275L760.0000128522515,680.500010587275"></path></g><path id="node_outline27" fill="none" stroke="none" d="M766.5000130906701,669.500010587275h167a5,5,0,0,1,5,5v12a5,5,0,0,1,-5,5h-167a5,5,0,0,1,-5,-5v-12a5,5,0,0,1,5,-5z" stroke-width="3"></path><g id="node_text27" fill="black"><text id="kity_text_247" text-rendering="inherit" font-family="微软雅黑,Microsoft YaHei" font-size="12" dy=".8em" y="672.7000105604529" x="771.5000130906701">大数据，取之于民，用之于民</text></g></g><g id="minder_node29"><g id="node_expander25" style="cursor: pointer;" display="none"><path id="kity_path_545" fill="white" stroke="gray" d="M801.500013448298,732.5000113621354A6,6,0,1,1,789.500013448298,732.5000113621354A6,6,0,1,1,801.500013448298,732.5000113621354"></path><path id="kity_path_546" fill="none" stroke="gray"></path></g><path id="node_outline26" fill="none" stroke="none" d="M806.5000136867166,721.5000113621354h120a5,5,0,0,1,5,5v12a5,5,0,0,1,-5,5h-120a5,5,0,0,1,-5,-5v-12a5,5,0,0,1,5,-5z" stroke-width="3"></path><g id="node_text26" fill="black"><text id="kity_text_245" text-rendering="inherit" font-family="微软雅黑,Microsoft YaHei" font-size="12" dy=".8em" y="724.7000113353133" x="811.5000136867166">例子：分享医疗数据</text></g></g><g id="minder_node30"><g id="node_expander30" style="cursor: pointer;"><path id="kity_path_560" fill="white" stroke="gray" d="M721.5000122562051,784.5000121369958A6,6,0,1,1,709.5000122562051,784.5000121369958A6,6,0,1,1,721.5000122562051,784.5000121369958"></path><path id="kity_path_561" fill="none" stroke="gray" d="M711.0000122562051,784.5000121369958L720.0000122562051,784.5000121369958"></path></g><path id="node_outline31" fill="#548dd4" stroke="none" d="M726.5000124946237,773.5000121369958h60a5,5,0,0,1,5,5v12a5,5,0,0,1,-5,5h-60a5,5,0,0,1,-5,-5v-12a5,5,0,0,1,5,-5z" stroke-width="3"></path><g id="node_text31" fill="white"><text id="kity_text_255" text-rendering="inherit" font-family="微软雅黑,Microsoft YaHei" font-size="12" dy=".8em" y="776.7000121101737" x="731.5000124946237">过滤气泡</text></g></g><g id="minder_node31"><g id="node_expander28" style="cursor: pointer;" display="none"><path id="kity_path_554" fill="white" stroke="gray" d="M761.5000128522515,836.5000129118562A6,6,0,1,1,749.5000128522515,836.5000129118562A6,6,0,1,1,761.5000128522515,836.5000129118562"></path><path id="kity_path_555" fill="none" stroke="gray"></path></g><path id="node_outline29" fill="none" stroke="none" d="M766.5000130906701,825.5000129118562h287a5,5,0,0,1,5,5v12a5,5,0,0,1,-5,5h-287a5,5,0,0,1,-5,-5v-12a5,5,0,0,1,5,-5z" stroke-width="3"></path><g id="node_text29" fill="black"><text id="kity_text_251" text-rendering="inherit" font-family="微软雅黑,Microsoft YaHei" font-size="12" dy=".8em" y="828.7000128850341" x="771.5000130906701">警惕“过滤气泡（Filter Bubble）”，突破信息封锁</text></g></g><g id="minder_node32" opacity="1"><g id="node_expander29" style="cursor: pointer;" display="none"><path id="kity_path_557" fill="white" stroke="gray" d="M761.5000128522515,1044.5000160112977A6,6,0,1,1,749.5000128522515,1044.5000160112977A6,6,0,1,1,761.5000128522515,1044.5000160112977"></path><path id="kity_path_558" fill="none" stroke="gray"></path></g><path id="node_outline30" fill="none" stroke="none" d="M766.5000130906701,1033.5000160112977h516a5,5,0,0,1,5,5v12a5,5,0,0,1,-5,5h-516a5,5,0,0,1,-5,-5v-12a5,5,0,0,1,5,-5z" stroke-width="3"></path><g id="node_text30" fill="black"><text id="kity_text_253" text-rendering="inherit" font-family="微软雅黑,Microsoft YaHei" font-size="12" dy=".8em" y="1036.7000159844756" x="771.5000130906701">在收集、处理、分析和展示数据过程中，融入人性所具有道德、情感和人文素养，用数据说故事</text></g></g><g id="minder_node33"><g id="node_expander37" style="cursor: pointer;"><path id="kity_path_581" fill="white" stroke="gray" d="M721.5000122562051,1096.500016786158A6,6,0,1,1,709.5000122562051,1096.500016786158A6,6,0,1,1,721.5000122562051,1096.500016786158"></path><path id="kity_path_582" fill="none" stroke="gray" d="M711.0000122562051,1096.500016786158L720.0000122562051,1096.500016786158"></path></g><path id="node_outline38" fill="#548dd4" stroke="none" d="M726.5000124946237,1085.500016786158h72a5,5,0,0,1,5,5v12a5,5,0,0,1,-5,5h-72a5,5,0,0,1,-5,-5v-12a5,5,0,0,1,5,-5z" stroke-width="3"></path><g id="node_text38" fill="white"><text id="kity_text_269" text-rendering="inherit" font-family="微软雅黑,Microsoft YaHei" font-size="12" dy=".8em" y="1088.700016759336" x="731.5000124946237">数据可视化</text></g></g><g id="minder_node34"><g id="node_expander32" style="cursor: pointer;"><path id="kity_path_566" fill="white" stroke="gray" d="M761.5000128522515,1148.5000175610185A6,6,0,1,1,749.5000128522515,1148.5000175610185A6,6,0,1,1,761.5000128522515,1148.5000175610185"></path><path id="kity_path_567" fill="none" stroke="gray" d="M751.0000128522515,1148.5000175610185L760.0000128522515,1148.5000175610185"></path></g><path id="node_outline33" fill="none" stroke="none" d="M766.5000130906701,1137.5000175610185h156a5,5,0,0,1,5,5v12a5,5,0,0,1,-5,5h-156a5,5,0,0,1,-5,-5v-12a5,5,0,0,1,5,-5z" stroke-width="3"></path><g id="node_text33" fill="black"><text id="kity_text_259" text-rendering="inherit" font-family="微软雅黑,Microsoft YaHei" font-size="12" dy=".8em" y="1140.7000175341964" x="771.5000130906701">通过数据可视化看全球发展</text></g></g><g id="minder_node35"><g id="node_expander31" style="cursor: pointer;" display="none"><path id="kity_path_563" fill="white" stroke="gray" d="M801.500013448298,1200.5000183358788A6,6,0,1,1,789.500013448298,1200.5000183358788A6,6,0,1,1,801.500013448298,1200.5000183358788"></path><path id="kity_path_564" fill="none" stroke="gray"></path></g><path id="node_outline32" fill="none" stroke="none" d="M806.5000136867166,1189.5000183358788h350a5,5,0,0,1,5,5v12a5,5,0,0,1,-5,5h-350a5,5,0,0,1,-5,-5v-12a5,5,0,0,1,5,-5z" stroke-width="3"></path><g id="node_text32" fill="black"><text id="kity_text_257" text-rendering="inherit" font-family="微软雅黑,Microsoft YaHei" font-size="12" dy=".8em" y="1192.7000183090568" x="811.5000136867166">例子：汉斯·罗斯林运用信息可视化让人看到了全球发展的故事。</text></g></g><g id="minder_node36"><g id="node_expander34" style="cursor: pointer;"><path id="kity_path_572" fill="white" stroke="gray" d="M761.5000128522515,1252.5000191107392A6,6,0,1,1,749.5000128522515,1252.5000191107392A6,6,0,1,1,761.5000128522515,1252.5000191107392"></path><path id="kity_path_573" fill="none" stroke="gray" d="M751.0000128522515,1252.5000191107392L760.0000128522515,1252.5000191107392"></path></g><path id="node_outline35" fill="none" stroke="none" d="M766.5000130906701,1241.5000191107392h167a5,5,0,0,1,5,5v12a5,5,0,0,1,-5,5h-167a5,5,0,0,1,-5,-5v-12a5,5,0,0,1,5,-5z" stroke-width="3"></path><g id="node_text35" fill="black"><text id="kity_text_263" text-rendering="inherit" font-family="微软雅黑,Microsoft YaHei" font-size="12" dy=".8em" y="1244.7000190839171" x="771.5000130906701">收入如何影响人们的生活方式</text></g></g><g id="minder_node37"><g id="node_expander33" style="cursor: pointer;" display="none"><path id="kity_path_569" fill="white" stroke="gray" d="M801.500013448298,1309.5000199601054A6,6,0,1,1,789.500013448298,1309.5000199601054A6,6,0,1,1,801.500013448298,1309.5000199601054"></path><path id="kity_path_570" fill="none" stroke="gray"></path></g><path id="node_outline34" fill="none" stroke="none" d="M806.5000136867166,1293.5000199601054h690a5,5,0,0,1,5,5v22a5,5,0,0,1,-5,5h-690a5,5,0,0,1,-5,-5v-22a5,5,0,0,1,5,-5z" stroke-width="3"></path><g id="node_text34" fill="black"><text id="kity_text_261" text-rendering="inherit" font-family="微软雅黑,Microsoft YaHei" font-size="12" dy=".8em" y="1301.7000199332833" x="811.5000136867166">例子：安娜·罗丝玲·洛恩收集收集各个国家地区人民的生活状况照片，构建DOLLAR STREET，将图片数据进行数据可视化。</text></g><a id="kity_a_383" xlink:href="https://www.gapminder.org/dollar-street/matrix" target="_blank" xlink:title="DOLLAR STREET(https://www.gapminder.org/dollar-street/matrix)" style="cursor: pointer;"><path id="kity_path_385" fill="rgba(255, 255, 255, 0)" stroke="none" d="M1471.5000234916806,1298.5000198855996h16a4,4,0,0,1,4,4v14a4,4,0,0,1,-4,4h-16a4,4,0,0,1,-4,-4v-14a4,4,0,0,1,4,-4z"></path><path id="kity_path_384" fill="#666" stroke="none" d="M1486.1140234916807,1314.7240198855995h-1.278c-1.668,0,-3.07,-1.07,-3.599,-2.556h4.877c0.707,0,1.278,-0.571,1.278,-1.278V1308.3340198855997c0,-0.707,-0.571,-1.278,-1.278,-1.278h-4.877C1481.7660234916807,1305.5710198855995,1483.1680234916805,1304.5000198855996,1484.8360234916806,1304.5000198855996h1.278c2.116,0,3.834,1.716,3.834,3.834V1310.8900198855997C1489.9480234916807,1313.0080198855997,1488.2300234916806,1314.7240198855995,1486.1140234916807,1314.7240198855995zM1474.6120234916807,1309.6120198855997c0,-0.707,0.573,-1.278,1.278,-1.278h7.668c0.707,0,1.278,0.571,1.278,1.278S1484.2650234916807,1310.8900198855997,1483.5580234916806,1310.8900198855997H1475.8900234916807C1475.1850234916806,1310.8900198855997,1474.6120234916807,1310.3190198855996,1474.6120234916807,1309.6120198855997zM1472.0560234916807,1308.3340198855997V1310.8900198855997c0,0.707,0.573,1.278,1.278,1.278h4.877c-0.528,1.486,-1.932,2.556,-3.599,2.556H1473.3340234916807C1471.2160234916805,1314.7240198855995,1469.5000234916806,1313.0080198855997,1469.5000234916806,1310.8900198855997V1308.3340198855997C1469.5000234916806,1306.2160198855995,1471.2160234916805,1304.5000198855996,1473.3340234916807,1304.5000198855996h1.278c1.667,0,3.071,1.071,3.599,2.556H1473.3340234916807C1472.6290234916805,1307.0560198855997,1472.0560234916807,1307.6270198855996,1472.0560234916807,1308.3340198855997z"></path></a></g><g id="minder_node38"><g id="node_expander36" style="cursor: pointer;"><path id="kity_path_578" fill="white" stroke="gray" d="M761.5000128522515,1366.5000208094716A6,6,0,1,1,749.5000128522515,1366.5000208094716A6,6,0,1,1,761.5000128522515,1366.5000208094716"></path><path id="kity_path_579" fill="none" stroke="gray" d="M751.0000128522515,1366.5000208094716L760.0000128522515,1366.5000208094716"></path></g><path id="node_outline37" fill="none" stroke="none" d="M766.5000130906701,1355.5000208094716h143a5,5,0,0,1,5,5v12a5,5,0,0,1,-5,5h-143a5,5,0,0,1,-5,-5v-12a5,5,0,0,1,5,-5z" stroke-width="3"></path><g id="node_text37" fill="black"><text id="kity_text_267" text-rendering="inherit" font-family="微软雅黑,Microsoft YaHei" font-size="12" dy=".8em" y="1358.7000207826495" x="771.5000130906701">开放性数据改变国际援助</text></g></g><g id="minder_node39"><g id="node_expander35" style="cursor: pointer;" display="none"><path id="kity_path_575" fill="white" stroke="gray" d="M801.500013448298,1418.500021584332A6,6,0,1,1,789.500013448298,1418.500021584332A6,6,0,1,1,801.500013448298,1418.500021584332"></path><path id="kity_path_576" fill="none" stroke="gray"></path></g><path id="node_outline36" fill="none" stroke="none" d="M806.5000136867166,1407.500021584332h822a5,5,0,0,1,5,5v12a5,5,0,0,1,-5,5h-822a5,5,0,0,1,-5,-5v-12a5,5,0,0,1,5,-5z" stroke-width="3"></path><g id="node_text36" fill="black"><text id="kity_text_265" text-rendering="inherit" font-family="微软雅黑,Microsoft YaHei" font-size="12" dy=".8em" y="1410.70002155751" x="811.5000136867166">例子：Sanjay Pradhan 谈论开放的知识渠道(OPEN Konwledge)、开放的援助(OPEN Aid)、开放透明的政府(OPEN Governance)是如何改变国际援助的</text></g></g><g id="minder_node40"><g id="node_expander53" style="cursor: pointer;"><path id="kity_path_629" fill="white" stroke="gray" d="M1747.5000275447965,127.50000234693289A6,6,0,1,1,1735.5000275447965,127.50000234693289A6,6,0,1,1,1747.5000275447965,127.50000234693289"></path><path id="kity_path_630" fill="none" stroke="gray" d="M1737.0000275447965,127.50000234693289L1746.0000275447965,127.50000234693289"></path></g><path id="node_outline54" fill="#548dd4" stroke="rgb(115, 161, 191)" d="M1676.5000272020698,134.5000026896596h130a3,3,0,0,1,3,3v26a3,3,0,0,1,-3,3h-130a3,3,0,0,1,-3,-3v-26a3,3,0,0,1,3,-3z" stroke-width="1"></path><g id="node_text54" fill="white"><text id="kity_text_301" text-rendering="inherit" font-family="微软雅黑,Microsoft YaHei" font-size="14" dy=".8em" y="141.40000265836716" x="1718.5000272020698">互联网世界 </text></g><g id="node_priority3"><path id="kity_path_375" fill="#006300" stroke="none" d="M1694.0000268369913,154.00000254809856c0,3.866,3.134,7,7,7h6c3.866,0,7,-3.134,7,-7V148.00000254809856H1694.0000268369913V154.00000254809856z"></path><path id="kity_path_376" fill="#00AF00" stroke="none" d="M1714.0000268369913,151.00000254809856c0,3.866,-3.134,7,-7,7H1701.0000268369913c-3.866,0,-7,-3.134,-7,-7V148.00000254809856c0,-3.866,3.134,-7,7,-7h6c3.866,0,7,3.134,7,7V151.00000254809856z" opacity="0.8"></path><text id="kity_text_377" text-rendering="geometricPrecision" x="1703.0000268295407" y="150.50000254064798" text-anchor="middle" font-style="italic" font-size="12" fill="white" dy="5">3</text></g></g><g id="minder_node41"><g id="node_expander43" style="cursor: pointer;"><path id="kity_path_599" fill="white" stroke="gray" d="M1713.500027038157,212.5000036135316A6,6,0,1,1,1701.500027038157,212.5000036135316A6,6,0,1,1,1713.500027038157,212.5000036135316"></path><path id="kity_path_600" fill="none" stroke="gray" d="M1703.000027038157,212.5000036135316L1712.000027038157,212.5000036135316"></path></g><path id="node_outline44" fill="#548dd4" stroke="none" d="M1718.5000272765756,201.5000036135316h70a5,5,0,0,1,5,5v12a5,5,0,0,1,-5,5h-70a5,5,0,0,1,-5,-5v-12a5,5,0,0,1,5,-5z" stroke-width="3"></path><g id="node_text44" fill="white"><text id="kity_text_281" text-rendering="inherit" font-family="微软雅黑,Microsoft YaHei" font-size="12" dy=".8em" y="204.7000035867095" x="1723.5000272765756">互联网性质</text></g></g><g id="minder_node42"><g id="node_expander39" style="cursor: pointer;" display="none"><path id="kity_path_587" fill="white" stroke="gray" d="M1753.5000276342034,264.500004388392A6,6,0,1,1,1741.5000276342034,264.500004388392A6,6,0,1,1,1753.5000276342034,264.500004388392"></path><path id="kity_path_588" fill="none" stroke="gray"></path></g><path id="node_outline40" fill="none" stroke="none" d="M1758.500027872622,253.50000438839197h166a5,5,0,0,1,5,5v12a5,5,0,0,1,-5,5h-166a5,5,0,0,1,-5,-5v-12a5,5,0,0,1,5,-5z" stroke-width="3"></path><g id="node_text40" fill="black"><text id="kity_text_273" text-rendering="inherit" font-family="微软雅黑,Microsoft YaHei" font-size="12" dy=".8em" y="256.7000043615699" x="1763.500027872622">互联网存在随机的善良的行为</text></g></g><g id="minder_node43"><g id="node_expander40" style="cursor: pointer;" display="none"><path id="kity_path_590" fill="white" stroke="gray" d="M1753.5000276342034,316.50000516325235A6,6,0,1,1,1741.5000276342034,316.50000516325235A6,6,0,1,1,1753.5000276342034,316.50000516325235"></path><path id="kity_path_591" fill="none" stroke="gray"></path></g><path id="node_outline41" fill="none" stroke="none" d="M1758.500027872622,305.50000516325235h179a5,5,0,0,1,5,5v12a5,5,0,0,1,-5,5h-179a5,5,0,0,1,-5,-5v-12a5,5,0,0,1,5,-5z" stroke-width="3"></path><g id="node_text41" fill="black"><text id="kity_text_275" text-rendering="inherit" font-family="微软雅黑,Microsoft YaHei" font-size="12" dy=".8em" y="308.70000513643026" x="1763.500027872622">互联网是互联网企业谋利的工具</text></g></g><g id="minder_node44"><g id="node_expander41" style="cursor: pointer;" display="none"><path id="kity_path_593" fill="white" stroke="gray" d="M1753.5000276342034,368.50000593811274A6,6,0,1,1,1741.5000276342034,368.50000593811274A6,6,0,1,1,1753.5000276342034,368.50000593811274"></path><path id="kity_path_594" fill="none" stroke="gray"></path></g><path id="node_outline42" fill="none" stroke="none" d="M1758.500027872622,357.50000593811274h119a5,5,0,0,1,5,5v12a5,5,0,0,1,-5,5h-119a5,5,0,0,1,-5,-5v-12a5,5,0,0,1,5,-5z" stroke-width="3"></path><g id="node_text42" fill="black"><text id="kity_text_277" text-rendering="inherit" font-family="微软雅黑,Microsoft YaHei" font-size="12" dy=".8em" y="360.70000591129065" x="1763.500027872622">互联网是民权的工具</text></g></g><g id="minder_node45"><g id="node_expander42" style="cursor: pointer;" display="none"><path id="kity_path_596" fill="white" stroke="gray" d="M1753.5000276342034,420.5000067129731A6,6,0,1,1,1741.5000276342034,420.5000067129731A6,6,0,1,1,1753.5000276342034,420.5000067129731"></path><path id="kity_path_597" fill="none" stroke="gray"></path></g><path id="node_outline43" fill="none" stroke="none" d="M1758.500027872622,409.5000067129731h346a5,5,0,0,1,5,5v12a5,5,0,0,1,-5,5h-346a5,5,0,0,1,-5,-5v-12a5,5,0,0,1,5,-5z" stroke-width="3"></path><g id="node_text43" fill="black"><text id="kity_text_279" text-rendering="inherit" font-family="微软雅黑,Microsoft YaHei" font-size="12" dy=".8em" y="412.700006686151" x="1763.500027872622">互联网的本质是什么？自由与开放（需要建立在善良的引导下）</text></g></g><g id="minder_node46"><g id="node_expander50" style="cursor: pointer;"><path id="kity_path_620" fill="white" stroke="gray" d="M1713.500027038157,472.5000074878335A6,6,0,1,1,1701.500027038157,472.5000074878335A6,6,0,1,1,1713.500027038157,472.5000074878335"></path><path id="kity_path_621" fill="none" stroke="gray" d="M1703.000027038157,472.5000074878335L1712.000027038157,472.5000074878335"></path></g><path id="node_outline51" fill="#548dd4" stroke="none" d="M1718.5000272765756,461.5000074878335h60a5,5,0,0,1,5,5v12a5,5,0,0,1,-5,5h-60a5,5,0,0,1,-5,-5v-12a5,5,0,0,1,5,-5z" stroke-width="3"></path><g id="node_text51" fill="white"><text id="kity_text_295" text-rendering="inherit" font-family="微软雅黑,Microsoft YaHei" font-size="12" dy=".8em" y="464.7000074610114" x="1723.5000272765756">编程世界</text></g></g><g id="minder_node47"><g id="node_expander46" style="cursor: pointer;"><path id="kity_path_608" fill="white" stroke="gray" d="M1753.5000276342034,524.5000082626939A6,6,0,1,1,1741.5000276342034,524.5000082626939A6,6,0,1,1,1753.5000276342034,524.5000082626939"></path><path id="kity_path_609" fill="none" stroke="gray" d="M1743.0000276342034,524.5000082626939L1752.0000276342034,524.5000082626939"></path></g><path id="node_outline47" fill="none" stroke="none" d="M1758.500027872622,513.5000082626939h131a5,5,0,0,1,5,5v12a5,5,0,0,1,-5,5h-131a5,5,0,0,1,-5,-5v-12a5,5,0,0,1,5,-5z" stroke-width="3"></path><g id="node_text47" fill="black"><text id="kity_text_287" text-rendering="inherit" font-family="微软雅黑,Microsoft YaHei" font-size="12" dy=".8em" y="516.7000082358718" x="1763.500027872622">代码是下一个通用语言</text></g></g><g id="minder_node48"><g id="node_expander44" style="cursor: pointer;" display="none"><path id="kity_path_602" fill="white" stroke="gray" d="M1793.5000282302499,576.5000090375543A6,6,0,1,1,1781.5000282302499,576.5000090375543A6,6,0,1,1,1793.5000282302499,576.5000090375543"></path><path id="kity_path_603" fill="none" stroke="gray"></path></g><path id="node_outline45" fill="none" stroke="none" d="M1798.5000284686685,565.5000090375543h143a5,5,0,0,1,5,5v12a5,5,0,0,1,-5,5h-143a5,5,0,0,1,-5,-5v-12a5,5,0,0,1,5,-5z" stroke-width="3"></path><g id="node_text45" fill="black"><text id="kity_text_283" text-rendering="inherit" font-family="微软雅黑,Microsoft YaHei" font-size="12" dy=".8em" y="568.7000090107322" x="1803.5000284686685">让孩子成为下一代创造者</text></g></g><g id="minder_node49"><g id="node_expander45" style="cursor: pointer;" display="none"><path id="kity_path_605" fill="white" stroke="gray" d="M1793.5000282302499,628.5000098124146A6,6,0,1,1,1781.5000282302499,628.5000098124146A6,6,0,1,1,1793.5000282302499,628.5000098124146"></path><path id="kity_path_606" fill="none" stroke="gray"></path></g><path id="node_outline46" fill="none" stroke="none" d="M1798.5000284686685,617.5000098124146h132a5,5,0,0,1,5,5v12a5,5,0,0,1,-5,5h-132a5,5,0,0,1,-5,-5v-12a5,5,0,0,1,5,-5z" stroke-width="3"></path><g id="node_text46" fill="black"><text id="kity_text_285" text-rendering="inherit" font-family="微软雅黑,Microsoft YaHei" font-size="12" dy=".8em" y="620.7000097855926" x="1803.5000284686685">女孩要勇敢而不必完美</text></g></g><g id="minder_node50"><g id="node_expander49" style="cursor: pointer;"><path id="kity_path_617" fill="white" stroke="gray" d="M1753.5000276342034,680.500010587275A6,6,0,1,1,1741.5000276342034,680.500010587275A6,6,0,1,1,1753.5000276342034,680.500010587275"></path><path id="kity_path_618" fill="none" stroke="gray" d="M1743.0000276342034,680.500010587275L1752.0000276342034,680.500010587275"></path></g><path id="node_outline50" fill="none" stroke="none" d="M1758.500027872622,669.500010587275h227a5,5,0,0,1,5,5v12a5,5,0,0,1,-5,5h-227a5,5,0,0,1,-5,-5v-12a5,5,0,0,1,5,-5z" stroke-width="3"></path><g id="node_text50" fill="black"><text id="kity_text_293" text-rendering="inherit" font-family="微软雅黑,Microsoft YaHei" font-size="12" dy=".8em" y="672.7000105604529" x="1763.500027872622">黑客编程一直是健康民主的重要组成部分</text></g></g><g id="minder_node51"><g id="node_expander47" style="cursor: pointer;" display="none"><path id="kity_path_611" fill="white" stroke="gray" d="M1793.5000282302499,732.5000113621354A6,6,0,1,1,1781.5000282302499,732.5000113621354A6,6,0,1,1,1793.5000282302499,732.5000113621354"></path><path id="kity_path_612" fill="none" stroke="gray"></path></g><path id="node_outline48" fill="none" stroke="none" d="M1798.5000284686685,721.5000113621354h281a5,5,0,0,1,5,5v12a5,5,0,0,1,-5,5h-281a5,5,0,0,1,-5,-5v-12a5,5,0,0,1,5,-5z" stroke-width="3"></path><g id="node_text48" fill="black"><text id="kity_text_289" text-rendering="inherit" font-family="微软雅黑,Microsoft YaHei" font-size="12" dy=".8em" y="724.7000113353133" x="1803.5000284686685">成为公民黑客（Civic Hacking）共同推动社会发展</text></g></g><g id="minder_node52"><g id="node_expander48" style="cursor: pointer;" display="none"><path id="kity_path_614" fill="white" stroke="gray" d="M1793.5000282302499,784.5000121369958A6,6,0,1,1,1781.5000282302499,784.5000121369958A6,6,0,1,1,1793.5000282302499,784.5000121369958"></path><path id="kity_path_615" fill="none" stroke="gray"></path></g><path id="node_outline49" fill="none" stroke="none" d="M1798.5000284686685,773.5000121369958h178a5,5,0,0,1,5,5v12a5,5,0,0,1,-5,5h-178a5,5,0,0,1,-5,-5v-12a5,5,0,0,1,5,-5z" stroke-width="3"></path><g id="node_text49" fill="black"><text id="kity_text_291" text-rendering="inherit" font-family="微软雅黑,Microsoft YaHei" font-size="12" dy=".8em" y="776.7000121101737" x="1803.5000284686685">用编程“编写”一个更好的政府</text></g></g><g id="minder_node53"><g id="node_expander52" style="cursor: pointer;"><path id="kity_path_626" fill="white" stroke="gray" d="M1713.500027038157,836.5000129118562A6,6,0,1,1,1701.500027038157,836.5000129118562A6,6,0,1,1,1713.500027038157,836.5000129118562"></path><path id="kity_path_627" fill="none" stroke="gray" d="M1703.000027038157,836.5000129118562L1712.000027038157,836.5000129118562"></path></g><path id="node_outline53" fill="#548dd4" stroke="none" d="M1718.5000272765756,825.5000129118562h47a5,5,0,0,1,5,5v12a5,5,0,0,1,-5,5h-47a5,5,0,0,1,-5,-5v-12a5,5,0,0,1,5,-5z" stroke-width="3"></path><g id="node_text53" fill="white"><text id="kity_text_299" text-rendering="inherit" font-family="微软雅黑,Microsoft YaHei" font-size="12" dy=".8em" y="828.7000128850341" x="1723.5000272765756">超链接</text></g></g><g id="minder_node54"><g id="node_expander51" style="cursor: pointer;" display="none"><path id="kity_path_623" fill="white" stroke="gray" d="M1753.5000276342034,888.5000136867166A6,6,0,1,1,1741.5000276342034,888.5000136867166A6,6,0,1,1,1753.5000276342034,888.5000136867166"></path><path id="kity_path_624" fill="none" stroke="gray"></path></g><path id="node_outline52" fill="none" stroke="none" d="M1758.500027872622,877.5000136867166h96a5,5,0,0,1,5,5v12a5,5,0,0,1,-5,5h-96a5,5,0,0,1,-5,-5v-12a5,5,0,0,1,5,-5z" stroke-width="3"></path><g id="node_text52" fill="black"><text id="kity_text_297" text-rendering="inherit" font-family="微软雅黑,Microsoft YaHei" font-size="12" dy=".8em" y="880.7000136598945" x="1763.500027872622">超链接改变社会</text></g></g><g id="minder_node55"><g id="node_expander83" style="cursor: pointer;"><path id="kity_path_719" fill="white" stroke="gray" d="M2216.0000345259905,127.50000234693289A6,6,0,1,1,2204.0000345259905,127.50000234693289A6,6,0,1,1,2216.0000345259905,127.50000234693289"></path><path id="kity_path_720" fill="none" stroke="gray" d="M2205.5000345259905,127.50000234693289L2214.5000345259905,127.50000234693289"></path></g><path id="node_outline84" fill="#548dd4" stroke="rgb(115, 161, 191)" d="M2152.5000342950225,134.5000026896596h115a3,3,0,0,1,3,3v26a3,3,0,0,1,-3,3h-115a3,3,0,0,1,-3,-3v-26a3,3,0,0,1,3,-3z" stroke-width="1"></path><g id="node_text84" fill="white"><text id="kity_text_361" text-rendering="inherit" font-family="微软雅黑,Microsoft YaHei" font-size="14" dy=".8em" y="141.40000265836716" x="2194.5000342950225">设计思维</text></g><g id="node_priority4"><path id="kity_path_380" fill="#B25000" stroke="none" d="M2170.000033929944,154.00000254809856c0,3.866,3.134,7,7,7h6c3.866,0,7,-3.134,7,-7V148.00000254809856H2170.000033929944V154.00000254809856z"></path><path id="kity_path_381" fill="#FF962E" stroke="none" d="M2190.000033929944,151.00000254809856c0,3.866,-3.134,7,-7,7H2177.000033929944c-3.866,0,-7,-3.134,-7,-7V148.00000254809856c0,-3.866,3.134,-7,7,-7h6c3.866,0,7,3.134,7,7V151.00000254809856z" opacity="0.8"></path><text id="kity_text_382" text-rendering="geometricPrecision" x="2179.0000339224935" y="150.50000254064798" text-anchor="middle" font-style="italic" font-size="12" fill="white" dy="5">4</text></g></g><g id="minder_node56"><g id="node_expander60" style="cursor: pointer;"><path id="kity_path_650" fill="white" stroke="gray" d="M2189.5000341311097,212.5000036135316A6,6,0,1,1,2177.5000341311097,212.5000036135316A6,6,0,1,1,2189.5000341311097,212.5000036135316"></path><path id="kity_path_651" fill="none" stroke="gray" d="M2179.0000341311097,212.5000036135316L2188.0000341311097,212.5000036135316"></path></g><path id="node_outline61" fill="#548dd4" stroke="none" d="M2194.5000343695283,201.5000036135316h59a5,5,0,0,1,5,5v12a5,5,0,0,1,-5,5h-59a5,5,0,0,1,-5,-5v-12a5,5,0,0,1,5,-5z" stroke-width="3"></path><g id="node_text61" fill="white"><text id="kity_text_315" text-rendering="inherit" font-family="微软雅黑,Microsoft YaHei" font-size="12" dy=".8em" y="204.7000035867095" x="2199.5000343695283">幽默设计</text></g></g><g id="minder_node57"><g id="node_expander55" style="cursor: pointer;"><path id="kity_path_635" fill="white" stroke="gray" d="M2229.500034727156,264.500004388392A6,6,0,1,1,2217.500034727156,264.500004388392A6,6,0,1,1,2229.500034727156,264.500004388392"></path><path id="kity_path_636" fill="none" stroke="gray" d="M2219.000034727156,264.500004388392L2228.000034727156,264.500004388392"></path></g><path id="node_outline56" fill="none" stroke="none" d="M2234.5000349655747,253.50000438839197h94a5,5,0,0,1,5,5v12a5,5,0,0,1,-5,5h-94a5,5,0,0,1,-5,-5v-12a5,5,0,0,1,5,-5z" stroke-width="3"></path><g id="node_text56" fill="black"><text id="kity_text_305" text-rendering="inherit" font-family="微软雅黑,Microsoft YaHei" font-size="12" dy=".8em" y="256.7000043615699" x="2239.5000349655747">以幽默改变规则</text></g></g><g id="minder_node58"><g id="node_expander54" style="cursor: pointer;" display="none"><path id="kity_path_632" fill="white" stroke="gray" d="M2269.5000353232026,316.50000516325235A6,6,0,1,1,2257.5000353232026,316.50000516325235A6,6,0,1,1,2269.5000353232026,316.50000516325235"></path><path id="kity_path_633" fill="none" stroke="gray"></path></g><path id="node_outline55" fill="none" stroke="none" d="M2274.500035561621,305.50000516325235h496a5,5,0,0,1,5,5v12a5,5,0,0,1,-5,5h-496a5,5,0,0,1,-5,-5v-12a5,5,0,0,1,5,-5z" stroke-width="3"></path><g id="node_text55" fill="black"><text id="kity_text_303" text-rendering="inherit" font-family="微软雅黑,Microsoft YaHei" font-size="12" dy=".8em" y="308.70000513643026" x="2279.500035561621">例子：Liza Donnelly的幽默漫画引导着读者们思考当今社会女性的规则，尝试推动规则改变</text></g></g><g id="minder_node59"><g id="node_expander57" style="cursor: pointer;"><path id="kity_path_641" fill="white" stroke="gray" d="M2229.500034727156,368.50000593811274A6,6,0,1,1,2217.500034727156,368.50000593811274A6,6,0,1,1,2229.500034727156,368.50000593811274"></path><path id="kity_path_642" fill="none" stroke="gray" d="M2219.000034727156,368.50000593811274L2228.000034727156,368.50000593811274"></path></g><path id="node_outline58" fill="none" stroke="none" d="M2234.5000349655747,357.50000593811274h95a5,5,0,0,1,5,5v12a5,5,0,0,1,-5,5h-95a5,5,0,0,1,-5,-5v-12a5,5,0,0,1,5,-5z" stroke-width="3"></path><g id="node_text58" fill="black"><text id="kity_text_309" text-rendering="inherit" font-family="微软雅黑,Microsoft YaHei" font-size="12" dy=".8em" y="360.70000591129065" x="2239.5000349655747">以幽默传播文化</text></g></g><g id="minder_node60"><g id="node_expander56" style="cursor: pointer;" display="none"><path id="kity_path_638" fill="white" stroke="gray" d="M2269.5000353232026,420.5000067129731A6,6,0,1,1,2257.5000353232026,420.5000067129731A6,6,0,1,1,2269.5000353232026,420.5000067129731"></path><path id="kity_path_639" fill="none" stroke="gray"></path></g><path id="node_outline57" fill="none" stroke="none" d="M2274.500035561621,409.5000067129731h475a5,5,0,0,1,5,5v12a5,5,0,0,1,-5,5h-475a5,5,0,0,1,-5,-5v-12a5,5,0,0,1,5,-5z" stroke-width="3"></path><g id="node_text57" fill="black"><text id="kity_text_307" text-rendering="inherit" font-family="微软雅黑,Microsoft YaHei" font-size="12" dy=".8em" y="412.700006686151" x="2279.500035561621">例子：Randall Munroe以幽默的语言文字，让枯燥无味的知识科普变的有趣而利于传播</text></g></g><g id="minder_node61"><g id="node_expander59" style="cursor: pointer;"><path id="kity_path_647" fill="white" stroke="gray" d="M2229.500034727156,472.5000074878335A6,6,0,1,1,2217.500034727156,472.5000074878335A6,6,0,1,1,2229.500034727156,472.5000074878335"></path><path id="kity_path_648" fill="none" stroke="gray" d="M2219.000034727156,472.5000074878335L2228.000034727156,472.5000074878335"></path></g><path id="node_outline60" fill="none" stroke="none" d="M2234.5000349655747,461.5000074878335h95a5,5,0,0,1,5,5v12a5,5,0,0,1,-5,5h-95a5,5,0,0,1,-5,-5v-12a5,5,0,0,1,5,-5z" stroke-width="3"></path><g id="node_text60" fill="black"><text id="kity_text_313" text-rendering="inherit" font-family="微软雅黑,Microsoft YaHei" font-size="12" dy=".8em" y="464.7000074610114" x="2239.5000349655747">以幽默消除歧视</text></g></g><g id="minder_node62"><g id="node_expander58" style="cursor: pointer;" display="none"><path id="kity_path_644" fill="white" stroke="gray" d="M2269.5000353232026,524.5000082626939A6,6,0,1,1,2257.5000353232026,524.5000082626939A6,6,0,1,1,2269.5000353232026,524.5000082626939"></path><path id="kity_path_645" fill="none" stroke="gray"></path></g><path id="node_outline59" fill="none" stroke="none" d="M2274.500035561621,513.5000082626939h537a5,5,0,0,1,5,5v12a5,5,0,0,1,-5,5h-537a5,5,0,0,1,-5,-5v-12a5,5,0,0,1,5,-5z" stroke-width="3"></path><g id="node_text59" fill="black"><text id="kity_text_311" text-rendering="inherit" font-family="微软雅黑,Microsoft YaHei" font-size="12" dy=".8em" y="516.7000082358718" x="2279.500035561621">例子：Ruby Wax以幽默的方式让人们了解精神疾病，同时不断削减着人们对精神疾病的误解与歧视</text></g></g><g id="minder_node63"><g id="node_expander69" style="cursor: pointer;"><path id="kity_path_677" fill="white" stroke="gray" d="M2189.5000341311097,576.5000090375543A6,6,0,1,1,2177.5000341311097,576.5000090375543A6,6,0,1,1,2189.5000341311097,576.5000090375543"></path><path id="kity_path_678" fill="none" stroke="gray" d="M2179.0000341311097,576.5000090375543L2188.0000341311097,576.5000090375543"></path></g><path id="node_outline70" fill="#548dd4" stroke="none" d="M2194.5000343695283,565.5000090375543h72a5,5,0,0,1,5,5v12a5,5,0,0,1,-5,5h-72a5,5,0,0,1,-5,-5v-12a5,5,0,0,1,5,-5z" stroke-width="3"></path><g id="node_text70" fill="white"><text id="kity_text_333" text-rendering="inherit" font-family="微软雅黑,Microsoft YaHei" font-size="12" dy=".8em" y="568.7000090107322" x="2199.5000343695283">情感化设计</text></g></g><g id="minder_node64"><g id="node_expander64" style="cursor: pointer;"><path id="kity_path_662" fill="white" stroke="gray" d="M2229.500034727156,628.5000098124146A6,6,0,1,1,2217.500034727156,628.5000098124146A6,6,0,1,1,2229.500034727156,628.5000098124146"></path><path id="kity_path_663" fill="none" stroke="gray" d="M2219.000034727156,628.5000098124146L2228.000034727156,628.5000098124146"></path></g><path id="node_outline65" fill="none" stroke="none" d="M2234.5000349655747,617.5000098124146h127a5,5,0,0,1,5,5v12a5,5,0,0,1,-5,5h-127a5,5,0,0,1,-5,-5v-12a5,5,0,0,1,5,-5z" stroke-width="3"></path><g id="node_text65" fill="black"><text id="kity_text_323" text-rendering="inherit" font-family="微软雅黑,Microsoft YaHei" font-size="12" dy=".8em" y="620.7000097855926" x="2239.5000349655747">积极心理学的3个目标</text></g></g><g id="minder_node65"><g id="node_expander61" style="cursor: pointer;" display="none"><path id="kity_path_653" fill="white" stroke="gray" d="M2269.5000353232026,680.500010587275A6,6,0,1,1,2257.5000353232026,680.500010587275A6,6,0,1,1,2269.5000353232026,680.500010587275"></path><path id="kity_path_654" fill="none" stroke="gray"></path></g><path id="node_outline62" fill="none" stroke="none" d="M2274.500035561621,669.500010587275h264a5,5,0,0,1,5,5v12a5,5,0,0,1,-5,5h-264a5,5,0,0,1,-5,-5v-12a5,5,0,0,1,5,-5z" stroke-width="3"></path><g id="node_text62" fill="black"><text id="kity_text_317" text-rendering="inherit" font-family="微软雅黑,Microsoft YaHei" font-size="12" dy=".8em" y="672.7000105604529" x="2279.500035561621">心理学不仅要关注人的弱点，还要关注人的优势</text></g></g><g id="minder_node66"><g id="node_expander62" style="cursor: pointer;" display="none"><path id="kity_path_656" fill="white" stroke="gray" d="M2269.5000353232026,732.5000113621354A6,6,0,1,1,2257.5000353232026,732.5000113621354A6,6,0,1,1,2269.5000353232026,732.5000113621354"></path><path id="kity_path_657" fill="none" stroke="gray"></path></g><path id="node_outline63" fill="none" stroke="none" d="M2274.500035561621,721.5000113621354h467a5,5,0,0,1,5,5v12a5,5,0,0,1,-5,5h-467a5,5,0,0,1,-5,-5v-12a5,5,0,0,1,5,-5z" stroke-width="3"></path><g id="node_text63" fill="black"><text id="kity_text_319" text-rendering="inherit" font-family="微软雅黑,Microsoft YaHei" font-size="12" dy=".8em" y="724.7000113353133" x="2279.500035561621">不仅要致力于修复心理损伤，还要致力于给人力量，让其对生活中美好的东西感兴趣。</text></g></g><g id="minder_node67"><g id="node_expander63" style="cursor: pointer;" display="none"><path id="kity_path_659" fill="white" stroke="gray" d="M2269.5000353232026,784.5000121369958A6,6,0,1,1,2257.5000353232026,784.5000121369958A6,6,0,1,1,2269.5000353232026,784.5000121369958"></path><path id="kity_path_660" fill="none" stroke="gray"></path></g><path id="node_outline64" fill="none" stroke="none" d="M2274.500035561621,773.5000121369958h395a5,5,0,0,1,5,5v12a5,5,0,0,1,-5,5h-395a5,5,0,0,1,-5,-5v-12a5,5,0,0,1,5,-5z" stroke-width="3"></path><g id="node_text64" fill="black"><text id="kity_text_321" text-rendering="inherit" font-family="微软雅黑,Microsoft YaHei" font-size="12" dy=".8em" y="776.7000121101737" x="2279.500035561621">应该在关注病人的同时，努力让正常人以及“天才”们的生活更加美好。</text></g></g><g id="minder_node68"><g id="node_expander68" style="cursor: pointer;"><path id="kity_path_674" fill="white" stroke="gray" d="M2229.500034727156,836.5000129118562A6,6,0,1,1,2217.500034727156,836.5000129118562A6,6,0,1,1,2229.500034727156,836.5000129118562"></path><path id="kity_path_675" fill="none" stroke="gray" d="M2219.000034727156,836.5000129118562L2228.000034727156,836.5000129118562"></path></g><path id="node_outline69" fill="none" stroke="none" d="M2234.5000349655747,825.5000129118562h126a5,5,0,0,1,5,5v12a5,5,0,0,1,-5,5h-126a5,5,0,0,1,-5,-5v-12a5,5,0,0,1,5,-5z" stroke-width="3"></path><g id="node_text69" fill="black"><text id="kity_text_331" text-rendering="inherit" font-family="微软雅黑,Microsoft YaHei" font-size="12" dy=".8em" y="828.7000128850341" x="2239.5000349655747">情感化设计的3个层面</text></g></g><g id="minder_node69"><g id="node_expander65" style="cursor: pointer;" display="none"><path id="kity_path_665" fill="white" stroke="gray" d="M2269.5000353232026,888.5000136867166A6,6,0,1,1,2257.5000353232026,888.5000136867166A6,6,0,1,1,2269.5000353232026,888.5000136867166"></path><path id="kity_path_666" fill="none" stroke="gray"></path></g><path id="node_outline66" fill="none" stroke="none" d="M2274.500035561621,877.5000136867166h59a5,5,0,0,1,5,5v12a5,5,0,0,1,-5,5h-59a5,5,0,0,1,-5,-5v-12a5,5,0,0,1,5,-5z" stroke-width="3"></path><g id="node_text66" fill="black"><text id="kity_text_325" text-rendering="inherit" font-family="微软雅黑,Microsoft YaHei" font-size="12" dy=".8em" y="880.7000136598945" x="2279.500035561621">本能层面</text></g></g><g id="minder_node70"><g id="node_expander66" style="cursor: pointer;" display="none"><path id="kity_path_668" fill="white" stroke="gray" d="M2269.5000353232026,940.5000144615769A6,6,0,1,1,2257.5000353232026,940.5000144615769A6,6,0,1,1,2269.5000353232026,940.5000144615769"></path><path id="kity_path_669" fill="none" stroke="gray"></path></g><path id="node_outline67" fill="none" stroke="none" d="M2274.500035561621,929.5000144615769h59a5,5,0,0,1,5,5v12a5,5,0,0,1,-5,5h-59a5,5,0,0,1,-5,-5v-12a5,5,0,0,1,5,-5z" stroke-width="3"></path><g id="node_text67" fill="black"><text id="kity_text_327" text-rendering="inherit" font-family="微软雅黑,Microsoft YaHei" font-size="12" dy=".8em" y="932.7000144347548" x="2279.500035561621">行为层面</text></g></g><g id="minder_node71"><g id="node_expander67" style="cursor: pointer;" display="none"><path id="kity_path_671" fill="white" stroke="gray" d="M2269.5000353232026,992.5000152364373A6,6,0,1,1,2257.5000353232026,992.5000152364373A6,6,0,1,1,2269.5000353232026,992.5000152364373"></path><path id="kity_path_672" fill="none" stroke="gray"></path></g><path id="node_outline68" fill="none" stroke="none" d="M2274.500035561621,981.5000152364373h59a5,5,0,0,1,5,5v12a5,5,0,0,1,-5,5h-59a5,5,0,0,1,-5,-5v-12a5,5,0,0,1,5,-5z" stroke-width="3"></path><g id="node_text68" fill="black"><text id="kity_text_329" text-rendering="inherit" font-family="微软雅黑,Microsoft YaHei" font-size="12" dy=".8em" y="984.7000152096152" x="2279.500035561621">反思层面</text></g></g><g id="minder_node72"><g id="node_expander75" style="cursor: pointer;"><path id="kity_path_695" fill="white" stroke="gray" d="M2189.5000341311097,1044.5000160112977A6,6,0,1,1,2177.5000341311097,1044.5000160112977A6,6,0,1,1,2189.5000341311097,1044.5000160112977"></path><path id="kity_path_696" fill="none" stroke="gray" d="M2179.0000341311097,1044.5000160112977L2188.0000341311097,1044.5000160112977"></path></g><path id="node_outline76" fill="#548dd4" stroke="none" d="M2194.5000343695283,1033.5000160112977h71a5,5,0,0,1,5,5v12a5,5,0,0,1,-5,5h-71a5,5,0,0,1,-5,-5v-12a5,5,0,0,1,5,-5z" stroke-width="3"></path><g id="node_text76" fill="white"><text id="kity_text_345" text-rendering="inherit" font-family="微软雅黑,Microsoft YaHei" font-size="12" dy=".8em" y="1036.7000159844756" x="2199.5000343695283">可持续设计</text></g></g><g id="minder_node73"><g id="node_expander70" style="cursor: pointer;" display="none"><path id="kity_path_680" fill="white" stroke="gray" d="M2229.500034727156,1096.500016786158A6,6,0,1,1,2217.500034727156,1096.500016786158A6,6,0,1,1,2229.500034727156,1096.500016786158"></path><path id="kity_path_681" fill="none" stroke="gray"></path></g><path id="node_outline71" fill="none" stroke="none" d="M2234.5000349655747,1085.500016786158h228a5,5,0,0,1,5,5v12a5,5,0,0,1,-5,5h-228a5,5,0,0,1,-5,-5v-12a5,5,0,0,1,5,-5z" stroke-width="3"></path><g id="node_text71" fill="black"><text id="kity_text_335" text-rendering="inherit" font-family="微软雅黑,Microsoft YaHei" font-size="12" dy=".8em" y="1088.700016759336" x="2239.5000349655747">地球环境的恶化促使人类思考可持续发展</text></g></g><g id="minder_node74"><g id="node_expander74" style="cursor: pointer;"><path id="kity_path_692" fill="white" stroke="gray" d="M2229.500034727156,1148.5000175610185A6,6,0,1,1,2217.500034727156,1148.5000175610185A6,6,0,1,1,2229.500034727156,1148.5000175610185"></path><path id="kity_path_693" fill="none" stroke="gray" d="M2219.000034727156,1148.5000175610185L2228.000034727156,1148.5000175610185"></path></g><path id="node_outline75" fill="none" stroke="none" d="M2234.5000349655747,1137.5000175610185h191a5,5,0,0,1,5,5v12a5,5,0,0,1,-5,5h-191a5,5,0,0,1,-5,-5v-12a5,5,0,0,1,5,-5z" stroke-width="3"></path><g id="node_text75" fill="black"><text id="kity_text_343" text-rendering="inherit" font-family="微软雅黑,Microsoft YaHei" font-size="12" dy=".8em" y="1140.7000175341964" x="2239.5000349655747">可持续设计指导世界的可持续发展</text></g></g><g id="minder_node75"><g id="node_expander71" style="cursor: pointer;" display="none"><path id="kity_path_683" fill="white" stroke="gray" d="M2269.5000353232026,1200.5000183358788A6,6,0,1,1,2257.5000353232026,1200.5000183358788A6,6,0,1,1,2269.5000353232026,1200.5000183358788"></path><path id="kity_path_684" fill="none" stroke="gray"></path></g><path id="node_outline72" fill="none" stroke="none" d="M2274.500035561621,1189.5000183358788h673a5,5,0,0,1,5,5v12a5,5,0,0,1,-5,5h-673a5,5,0,0,1,-5,-5v-12a5,5,0,0,1,5,-5z" stroke-width="3"></path><g id="node_text72" fill="black"><text id="kity_text_337" text-rendering="inherit" font-family="微软雅黑,Microsoft YaHei" font-size="12" dy=".8em" y="1192.7000183090568" x="2279.500035561621">例子：雷·安德运用可持续设计思想带领自己创办的界面(interface)公司走向可持续发展的道路，以证明商业可实现可持续发展</text></g></g><g id="minder_node76"><g id="node_expander72" style="cursor: pointer;" display="none"><path id="kity_path_686" fill="white" stroke="gray" d="M2269.5000353232026,1252.5000191107392A6,6,0,1,1,2257.5000353232026,1252.5000191107392A6,6,0,1,1,2269.5000353232026,1252.5000191107392"></path><path id="kity_path_687" fill="none" stroke="gray"></path></g><path id="node_outline73" fill="none" stroke="none" d="M2274.500035561621,1241.5000191107392h575a5,5,0,0,1,5,5v12a5,5,0,0,1,-5,5h-575a5,5,0,0,1,-5,-5v-12a5,5,0,0,1,5,-5z" stroke-width="3"></path><g id="node_text73" fill="black"><text id="kity_text_339" text-rendering="inherit" font-family="微软雅黑,Microsoft YaHei" font-size="12" dy=".8em" y="1244.7000190839171" x="2279.500035561621">例子：Amit Kalra提出解决时尚背后环境污染问题的三个创造性方案，促进时尚服装业的向可持续发展转变</text></g></g><g id="minder_node77"><g id="node_expander73" style="cursor: pointer;" display="none"><path id="kity_path_689" fill="white" stroke="gray" d="M2269.5000353232026,1304.5000198855996A6,6,0,1,1,2257.5000353232026,1304.5000198855996A6,6,0,1,1,2269.5000353232026,1304.5000198855996"></path><path id="kity_path_690" fill="none" stroke="gray"></path></g><path id="node_outline74" fill="none" stroke="none" d="M2274.500035561621,1293.5000198855996h346a5,5,0,0,1,5,5v12a5,5,0,0,1,-5,5h-346a5,5,0,0,1,-5,-5v-12a5,5,0,0,1,5,-5z" stroke-width="3"></path><g id="node_text74" fill="black"><text id="kity_text_341" text-rendering="inherit" font-family="微软雅黑,Microsoft YaHei" font-size="12" dy=".8em" y="1296.7000198587775" x="2279.500035561621">例子：约翰·罗克斯特伦提出5项变革策略建立可持续发展的世界</text></g></g><g id="minder_node78"><g id="node_expander82" style="cursor: pointer;"><path id="kity_path_716" fill="white" stroke="gray" d="M2189.5000341311097,1356.50002066046A6,6,0,1,1,2177.5000341311097,1356.50002066046A6,6,0,1,1,2189.5000341311097,1356.50002066046"></path><path id="kity_path_717" fill="none" stroke="gray" d="M2179.0000341311097,1356.50002066046L2188.0000341311097,1356.50002066046"></path></g><path id="node_outline83" fill="#548dd4" stroke="none" d="M2194.5000343695283,1345.50002066046h59a5,5,0,0,1,5,5v12a5,5,0,0,1,-5,5h-59a5,5,0,0,1,-5,-5v-12a5,5,0,0,1,5,-5z" stroke-width="3"></path><g id="node_text83" fill="white"><text id="kity_text_359" text-rendering="inherit" font-family="微软雅黑,Microsoft YaHei" font-size="12" dy=".8em" y="1348.700020633638" x="2199.5000343695283">系统思维</text></g></g><g id="minder_node79"><g id="node_expander77" style="cursor: pointer;"><path id="kity_path_701" fill="white" stroke="gray" d="M2229.500034727156,1408.5000214353204A6,6,0,1,1,2217.500034727156,1408.5000214353204A6,6,0,1,1,2229.500034727156,1408.5000214353204"></path><path id="kity_path_702" fill="none" stroke="gray" d="M2219.000034727156,1408.5000214353204L2228.000034727156,1408.5000214353204"></path></g><path id="node_outline78" fill="none" stroke="none" d="M2234.5000349655747,1397.5000214353204h143a5,5,0,0,1,5,5v12a5,5,0,0,1,-5,5h-143a5,5,0,0,1,-5,-5v-12a5,5,0,0,1,5,-5z" stroke-width="3"></path><g id="node_text78" fill="black"><text id="kity_text_349" text-rendering="inherit" font-family="微软雅黑,Microsoft YaHei" font-size="12" dy=".8em" y="1400.7000214084983" x="2239.5000349655747">使用创新设计和系统思维</text></g></g><g id="minder_node80"><g id="node_expander76" style="cursor: pointer;" display="none"><path id="kity_path_698" fill="white" stroke="gray" d="M2269.5000353232026,1460.5000222101808A6,6,0,1,1,2257.5000353232026,1460.5000222101808A6,6,0,1,1,2269.5000353232026,1460.5000222101808"></path><path id="kity_path_699" fill="none" stroke="gray"></path></g><path id="node_outline77" fill="none" stroke="none" d="M2274.500035561621,1449.5000222101808h432a5,5,0,0,1,5,5v12a5,5,0,0,1,-5,5h-432a5,5,0,0,1,-5,-5v-12a5,5,0,0,1,5,-5z" stroke-width="3"></path><g id="node_text77" fill="black"><text id="kity_text_347" text-rendering="inherit" font-family="微软雅黑,Microsoft YaHei" font-size="12" dy=".8em" y="1452.7000221833587" x="2279.500035561621">例子：引入生命周期系统性思考，将设计融入每一个阶段，打破固有的环境民俗</text></g></g><g id="minder_node81"><g id="node_expander80" style="cursor: pointer;"><path id="kity_path_710" fill="white" stroke="gray" d="M2229.500034727156,1512.5000229850411A6,6,0,1,1,2217.500034727156,1512.5000229850411A6,6,0,1,1,2229.500034727156,1512.5000229850411"></path><path id="kity_path_711" fill="none" stroke="gray" d="M2219.000034727156,1512.5000229850411L2228.000034727156,1512.5000229850411"></path></g><path id="node_outline81" fill="none" stroke="none" d="M2234.5000349655747,1501.5000229850411h112a5,5,0,0,1,5,5v12a5,5,0,0,1,-5,5h-112a5,5,0,0,1,-5,-5v-12a5,5,0,0,1,5,-5z" stroke-width="3"></path><g id="node_text81" fill="black"><text id="kity_text_355" text-rendering="inherit" font-family="微软雅黑,Microsoft YaHei" font-size="12" dy=".8em" y="1504.700022958219" x="2239.5000349655747">设计如何系统思维?</text></g></g><g id="minder_node82"><g id="node_expander78" style="cursor: pointer;" display="none"><path id="kity_path_704" fill="white" stroke="gray" d="M2269.5000353232026,1564.5000237599015A6,6,0,1,1,2257.5000353232026,1564.5000237599015A6,6,0,1,1,2269.5000353232026,1564.5000237599015"></path><path id="kity_path_705" fill="none" stroke="gray"></path></g><path id="node_outline79" fill="none" stroke="none" d="M2274.500035561621,1553.5000237599015h251a5,5,0,0,1,5,5v12a5,5,0,0,1,-5,5h-251a5,5,0,0,1,-5,-5v-12a5,5,0,0,1,5,-5z" stroke-width="3"></path><g id="node_text79" fill="black"><text id="kity_text_351" text-rendering="inherit" font-family="微软雅黑,Microsoft YaHei" font-size="12" dy=".8em" y="1556.7000237330794" x="2279.500035561621">例子：通过设计系统化人们对烤面包步骤思考</text></g></g><g id="minder_node83"><g id="node_expander79" style="cursor: pointer;" display="none"><path id="kity_path_707" fill="white" stroke="gray" d="M2269.5000353232026,1616.500024534762A6,6,0,1,1,2257.5000353232026,1616.500024534762A6,6,0,1,1,2269.5000353232026,1616.500024534762"></path><path id="kity_path_708" fill="none" stroke="gray"></path></g><path id="node_outline80" fill="none" stroke="none" d="M2274.500035561621,1605.500024534762h252a5,5,0,0,1,5,5v12a5,5,0,0,1,-5,5h-252a5,5,0,0,1,-5,-5v-12a5,5,0,0,1,5,-5z" stroke-width="3"></path><g id="node_text80" fill="black"><text id="kity_text_353" text-rendering="inherit" font-family="微软雅黑,Microsoft YaHei" font-size="12" dy=".8em" y="1608.7000245079398" x="2279.500035561621">例子：资本主义不是意识形态，而是操作系统</text></g></g><g id="minder_node84"><g id="node_expander81" style="cursor: pointer;" display="none"><path id="kity_path_713" fill="white" stroke="gray" d="M2229.500034727156,1668.5000253096223A6,6,0,1,1,2217.500034727156,1668.5000253096223A6,6,0,1,1,2229.500034727156,1668.5000253096223"></path><path id="kity_path_714" fill="none" stroke="gray"></path></g><path id="node_outline82" fill="none" stroke="none" d="M2234.5000349655747,1657.5000253096223h60a5,5,0,0,1,5,5v12a5,5,0,0,1,-5,5h-60a5,5,0,0,1,-5,-5v-12a5,5,0,0,1,5,-5z" stroke-width="3"></path><g id="node_text82" fill="black"><text id="kity_text_357" text-rendering="inherit" font-size="12" dy=".8em" y="1660.7000252828002" x="2239.5000349655747">权力系统</text></g></g><g id="minder_node87"><g id="node_expander86" style="cursor: pointer;" display="none"><path id="kity_path_743" fill="white" stroke="gray" d="M100.50000300258398,368.50000593811274A6,6,0,1,1,88.50000300258398,368.50000593811274A6,6,0,1,1,100.50000300258398,368.50000593811274"></path><path id="kity_path_744" fill="none" stroke="gray" d="M90.00000300258398,368.50000593811274L99.00000300258398,368.50000593811274"></path></g><path id="node_outline87" fill="none" stroke="none" d="M105.50000324100256,357.50000593811274h300a5,5,0,0,1,5,5v12a5,5,0,0,1,-5,5h-300a5,5,0,0,1,-5,-5v-12a5,5,0,0,1,5,-5z" stroke-width="3"></path><g id="node_text87" fill="black"><text id="kity_text_740" text-rendering="inherit" font-size="12" dy=".8em" y="360.70000591129065" x="110.50000324100256">正视人体性欲，消除性欲的偏见，建立健康积极的性爱</text></g></g><g id="minder_node88"><g id="node_expander87" style="cursor: pointer;" display="none"><path id="kity_path_751" fill="white" stroke="gray" d="M100.50000300258398,680.500010587275A6,6,0,1,1,88.50000300258398,680.500010587275A6,6,0,1,1,100.50000300258398,680.500010587275"></path><path id="kity_path_752" fill="none" stroke="gray"></path></g><path id="node_outline88" fill="none" stroke="none" d="M105.50000324100256,669.500010587275h251a5,5,0,0,1,5,5v12a5,5,0,0,1,-5,5h-251a5,5,0,0,1,-5,-5v-12a5,5,0,0,1,5,-5z" stroke-width="3"></path><g id="node_text88" fill="black"><text id="kity_text_748" text-rendering="inherit" font-size="12" dy=".8em" y="672.7000105604529" x="110.50000324100256">男性对色情片的过度兴奋成瘾，导致男性衰落</text></g></g><g id="minder_node90"><g id="node_expander89" style="cursor: pointer;"><path id="kity_path_767" fill="white" stroke="gray" d="M721.5000122562051,992.5000152364373A6,6,0,1,1,709.5000122562051,992.5000152364373A6,6,0,1,1,721.5000122562051,992.5000152364373"></path><path id="kity_path_768" fill="none" stroke="gray" d="M711.0000122562051,992.5000152364373L720.0000122562051,992.5000152364373"></path></g><path id="node_outline90" fill="#548dd4" stroke="none" d="M726.5000124946237,981.5000152364373h84a5,5,0,0,1,5,5v12a5,5,0,0,1,-5,5h-84a5,5,0,0,1,-5,-5v-12a5,5,0,0,1,5,-5z" stroke-width="3"></path><g id="node_text90" fill="white"><text id="kity_text_764" text-rendering="inherit" font-size="12" dy=".8em" y="984.7000152096152" font-family="微软雅黑,Microsoft YaHei" x="731.5000124946237">数据人文主义</text></g></g><g id="minder_node91" opacity="1"><g id="node_expander90" style="cursor: pointer;"><path id="kity_path_777" fill="white" stroke="gray" d="M721.5000122562051,888.5000136867166A6,6,0,1,1,709.5000122562051,888.5000136867166A6,6,0,1,1,721.5000122562051,888.5000136867166"></path><path id="kity_path_778" fill="none" stroke="gray" d="M711.0000122562051,888.5000136867166L720.0000122562051,888.5000136867166"></path></g><path id="node_outline91" fill="#548dd4" stroke="none" d="M726.5000124946237,877.5000136867166h60a5,5,0,0,1,5,5v12a5,5,0,0,1,-5,5h-60a5,5,0,0,1,-5,-5v-12a5,5,0,0,1,5,-5z" stroke-width="3"></path><g id="node_text91" fill="white"><text id="kity_text_774" text-rendering="inherit" font-family="微软雅黑,Microsoft YaHei" font-size="12" dy=".8em" y="880.7000136598945" x="731.5000124946237">推荐系统</text></g></g><g id="minder_node92"><g id="node_expander91" style="cursor: pointer;" display="none"><path id="kity_path_783" fill="white" stroke="gray" d="M761.5000128522515,940.5000144615769A6,6,0,1,1,749.5000128522515,940.5000144615769A6,6,0,1,1,761.5000128522515,940.5000144615769"></path><path id="kity_path_784" fill="none" stroke="gray"></path></g><path id="node_outline92" fill="none" stroke="none" d="M766.5000130906701,929.5000144615769h263a5,5,0,0,1,5,5v12a5,5,0,0,1,-5,5h-263a5,5,0,0,1,-5,-5v-12a5,5,0,0,1,5,-5z" stroke-width="3"></path><g id="node_text92" fill="black"><text id="kity_text_780" text-rendering="inherit" font-family="微软雅黑,Microsoft YaHei" font-size="12" dy=".8em" y="932.7000144347548" x="771.5000130906701">承担道德责任，科技公司应将推荐算法透明化。</text></g></g><g id="kity_g_12" display="none"><path id="kity_path_13" fill="none" stroke="rgb(66, 94, 112)" d="M105.50001551955938,357.5000012293458h179a5,5,0,0,1,5,5v12a5,5,0,0,1,-5,5h-179a5,5,0,0,1,-5,-5v-12a5,5,0,0,1,5,-5z" stroke-width="5"></path></g></g></g></svg>