<svg id="kity_svg_6" xmlns="http://www.w3.org/2000/svg" xmlns:xlink="http://www.w3.org/1999/xlink" version="1.1" width="2836" height="1647" style="background: rgb(251, 251, 251); visibility: visible;" viewBox="0 0 2836 1647"><defs id="kity_defs_7"><linearGradient id="kity_linearGradient_17" x1="0" y1="0" x2="0" y2="1"><stop id="kity_stop_18" offset="0" stop-color="rgb(255, 255, 255)"></stop><stop id="kity_stop_19" offset="1" stop-color="rgb(204, 204, 204)"></stop></linearGradient><marker id="kity_marker_2" orient="auto" refX="6" refY="0" viewBox="-7 -7 14 14" markerWidth="7" markerHeight="7" markerUnits="userSpaceOnUse"><path id="kity_path_3" fill="rgb(115, 161, 191)" stroke="none" d="M6,0A6,6,0,1,1,-6,0A6,6,0,1,1,6,0"></path></marker></defs><g id="kity_g_8"><g id="minder1" text-rendering="optimize-speed"><g id="minder_connect_group1"><path id="kity_path_31" fill="none" stroke="rgb(191, 115, 115)" stroke-width="1" d="M1145.4999903067946,84.49998307973146v30h-1063.5V134.49998307973146"></path><path id="kity_path_33" fill="none" stroke="rgb(191, 115, 115)" stroke-width="1" d="M40.49999030679464,166.49998307973146V212.49998307973146L60.49999030679464,212.49998307973146"></path><path id="kity_path_35" fill="none" stroke="rgb(191, 115, 115)" stroke-width="1" d="M80.49999030679464,223.49998307973146V264.49998307973146L100.49999030679464,264.49998307973146"></path><path id="kity_path_37" fill="none" stroke="rgb(191, 115, 115)" stroke-width="1" d="M80.49999030679464,223.49998307973146V316.49998307973146L100.49999030679464,316.49998307973146"></path><path id="kity_path_39" fill="none" stroke="rgb(191, 115, 115)" stroke-width="1" d="M40.49999030679464,166.49998307973146V368.49998307973146L60.49999030679464,368.49998307973146"></path><path id="kity_path_41" fill="none" stroke="rgb(191, 115, 115)" stroke-width="1" d="M80.49999030679464,379.49998307973146V420.49998307973146L100.49999030679464,420.49998307973146"></path><path id="kity_path_43" fill="none" stroke="rgb(191, 115, 115)" stroke-width="1" d="M120.49999030679464,431.49998307973146V472.49998307973146L140.49999030679464,472.49998307973146"></path><path id="kity_path_45" fill="none" stroke="rgb(191, 115, 115)" stroke-width="1" d="M80.49999030679464,379.49998307973146V524.4999830797315L100.49999030679464,524.4999830797315"></path><path id="kity_path_47" fill="none" stroke="rgb(191, 115, 115)" stroke-width="1" d="M80.49999030679464,379.49998307973146V576.4999830797315L100.49999030679464,576.4999830797315"></path><path id="kity_path_49" fill="none" stroke="rgb(191, 115, 115)" stroke-width="1" d="M40.49999030679464,166.49998307973146V628.4999830797315L60.49999030679464,628.4999830797315"></path><path id="kity_path_51" fill="none" stroke="rgb(191, 115, 115)" stroke-width="1" d="M80.49999030679464,639.4999830797315V680.4999830797315L100.49999030679464,680.4999830797315"></path><path id="kity_path_53" fill="none" stroke="rgb(191, 115, 115)" stroke-width="1" d="M80.49999030679464,639.4999830797315V732.4999830797315L100.49999030679464,732.4999830797315"></path><path id="kity_path_55" fill="none" stroke="rgb(191, 115, 115)" stroke-width="1" d="M80.49999030679464,639.4999830797315V784.4999830797315L100.49999030679464,784.4999830797315"></path><path id="kity_path_57" fill="none" stroke="rgb(191, 115, 115)" stroke-width="1" d="M1145.4999903067946,84.49998307973146v30h-381.5V134.49998307973146"></path><path id="kity_path_59" fill="none" stroke="rgb(191, 115, 115)" stroke-width="1" d="M701.4999903067946,166.49998307973146V212.49998307973146L721.4999903067946,212.49998307973146"></path><path id="kity_path_61" fill="none" stroke="rgb(191, 115, 115)" stroke-width="1" d="M741.4999903067946,223.49998307973146V264.49998307973146L761.4999903067946,264.49998307973146"></path><path id="kity_path_63" fill="none" stroke="rgb(191, 115, 115)" stroke-width="1" d="M741.4999903067946,223.49998307973146V316.49998307973146L761.4999903067946,316.49998307973146"></path><path id="kity_path_65" fill="none" stroke="rgb(191, 115, 115)" stroke-width="1" d="M701.4999903067946,166.49998307973146V368.49998307973146L721.4999903067946,368.49998307973146"></path><path id="kity_path_67" fill="none" stroke="rgb(191, 115, 115)" stroke-width="1" d="M741.4999903067946,379.49998307973146V420.49998307973146L761.4999903067946,420.49998307973146"></path><path id="kity_path_69" fill="none" stroke="rgb(191, 115, 115)" stroke-width="1" d="M741.4999903067946,379.49998307973146V472.49998307973146L761.4999903067946,472.49998307973146"></path><path id="kity_path_71" fill="none" stroke="rgb(191, 115, 115)" stroke-width="1" d="M781.4999903067946,483.49998307973146V524.4999830797315L801.4999903067946,524.4999830797315"></path><path id="kity_path_73" fill="none" stroke="rgb(191, 115, 115)" stroke-width="1" d="M701.4999903067946,166.49998307973146V576.4999830797315L721.4999903067946,576.4999830797315"></path><path id="kity_path_75" fill="none" stroke="rgb(191, 115, 115)" stroke-width="1" d="M741.4999903067946,587.4999830797315V628.4999830797315L761.4999903067946,628.4999830797315"></path><path id="kity_path_77" fill="none" stroke="rgb(191, 115, 115)" stroke-width="1" d="M741.4999903067946,587.4999830797315V680.4999830797315L761.4999903067946,680.4999830797315"></path><path id="kity_path_79" fill="none" stroke="rgb(191, 115, 115)" stroke-width="1" d="M701.4999903067946,166.49998307973146V732.4999830797315L721.4999903067946,732.4999830797315"></path><path id="kity_path_81" fill="none" stroke="rgb(191, 115, 115)" stroke-width="1" d="M741.4999903067946,743.4999830797315V784.4999830797315L761.4999903067946,784.4999830797315"></path><path id="kity_path_83" fill="none" stroke="rgb(191, 115, 115)" stroke-width="1" d="M781.4999903067946,795.4999830797315V836.4999830797315L801.4999903067946,836.4999830797315"></path><path id="kity_path_85" fill="none" stroke="rgb(191, 115, 115)" stroke-width="1" d="M741.4999903067946,743.4999830797315V888.4999830797315L761.4999903067946,888.4999830797315"></path><path id="kity_path_87" fill="none" stroke="rgb(191, 115, 115)" stroke-width="1" d="M781.4999903067946,899.4999830797315V945.4999830797315L801.4999903067946,945.4999830797315"></path><path id="kity_path_89" fill="none" stroke="rgb(191, 115, 115)" stroke-width="1" d="M741.4999903067946,743.4999830797315V1002.4999830797315L761.4999903067946,1002.4999830797315"></path><path id="kity_path_91" fill="none" stroke="rgb(191, 115, 115)" stroke-width="1" d="M781.4999903067946,1013.4999830797315V1054.4999830797315L801.4999903067946,1054.4999830797315"></path><path id="kity_path_93" fill="none" stroke="rgb(191, 115, 115)" stroke-width="1" d="M1145.4999903067946,84.49998307973146v30h603.5V134.49998307973146"></path><path id="kity_path_95" fill="none" stroke="rgb(191, 115, 115)" stroke-width="1" d="M1693.4999903067946,166.49998307973146V212.49998307973146L1713.4999903067946,212.49998307973146"></path><path id="kity_path_97" fill="none" stroke="rgb(191, 115, 115)" stroke-width="1" d="M1733.4999903067946,223.49998307973146V264.49998307973146L1753.4999903067946,264.49998307973146"></path><path id="kity_path_99" fill="none" stroke="rgb(191, 115, 115)" stroke-width="1" d="M1733.4999903067946,223.49998307973146V316.49998307973146L1753.4999903067946,316.49998307973146"></path><path id="kity_path_101" fill="none" stroke="rgb(191, 115, 115)" stroke-width="1" d="M1733.4999903067946,223.49998307973146V368.49998307973146L1753.4999903067946,368.49998307973146"></path><path id="kity_path_103" fill="none" stroke="rgb(191, 115, 115)" stroke-width="1" d="M1733.4999903067946,223.49998307973146V420.49998307973146L1753.4999903067946,420.49998307973146"></path><path id="kity_path_105" fill="none" stroke="rgb(191, 115, 115)" stroke-width="1" d="M1693.4999903067946,166.49998307973146V472.49998307973146L1713.4999903067946,472.49998307973146"></path><path id="kity_path_107" fill="none" stroke="rgb(191, 115, 115)" stroke-width="1" d="M1733.4999903067946,483.49998307973146V524.4999830797315L1753.4999903067946,524.4999830797315"></path><path id="kity_path_109" fill="none" stroke="rgb(191, 115, 115)" stroke-width="1" d="M1773.4999903067946,535.4999830797315V576.4999830797315L1793.4999903067946,576.4999830797315"></path><path id="kity_path_111" fill="none" stroke="rgb(191, 115, 115)" stroke-width="1" d="M1773.4999903067946,535.4999830797315V628.4999830797315L1793.4999903067946,628.4999830797315"></path><path id="kity_path_113" fill="none" stroke="rgb(191, 115, 115)" stroke-width="1" d="M1733.4999903067946,483.49998307973146V680.4999830797315L1753.4999903067946,680.4999830797315"></path><path id="kity_path_115" fill="none" stroke="rgb(191, 115, 115)" stroke-width="1" d="M1773.4999903067946,691.4999830797315V732.4999830797315L1793.4999903067946,732.4999830797315"></path><path id="kity_path_117" fill="none" stroke="rgb(191, 115, 115)" stroke-width="1" d="M1773.4999903067946,691.4999830797315V784.4999830797315L1793.4999903067946,784.4999830797315"></path><path id="kity_path_119" fill="none" stroke="rgb(191, 115, 115)" stroke-width="1" d="M1693.4999903067946,166.49998307973146V836.4999830797315L1713.4999903067946,836.4999830797315"></path><path id="kity_path_121" fill="none" stroke="rgb(191, 115, 115)" stroke-width="1" d="M1733.4999903067946,847.4999830797315V888.4999830797315L1753.4999903067946,888.4999830797315"></path><path id="kity_path_123" fill="none" stroke="rgb(191, 115, 115)" stroke-width="1" d="M1145.4999903067946,84.49998307973146v30h1065V134.49998307973146"></path><path id="kity_path_125" fill="none" stroke="rgb(191, 115, 115)" stroke-width="1" d="M2169.4999903067946,166.49998307973146V212.49998307973146L2189.4999903067946,212.49998307973146"></path><path id="kity_path_127" fill="none" stroke="rgb(191, 115, 115)" stroke-width="1" d="M2209.4999903067946,223.49998307973146V264.49998307973146L2229.4999903067946,264.49998307973146"></path><path id="kity_path_129" fill="none" stroke="rgb(191, 115, 115)" stroke-width="1" d="M2249.4999903067946,275.49998307973146V316.49998307973146L2269.4999903067946,316.49998307973146"></path><path id="kity_path_131" fill="none" stroke="rgb(191, 115, 115)" stroke-width="1" d="M2209.4999903067946,223.49998307973146V368.49998307973146L2229.4999903067946,368.49998307973146"></path><path id="kity_path_133" fill="none" stroke="rgb(191, 115, 115)" stroke-width="1" d="M2249.4999903067946,379.49998307973146V420.49998307973146L2269.4999903067946,420.49998307973146"></path><path id="kity_path_135" fill="none" stroke="rgb(191, 115, 115)" stroke-width="1" d="M2209.4999903067946,223.49998307973146V472.49998307973146L2229.4999903067946,472.49998307973146"></path><path id="kity_path_137" fill="none" stroke="rgb(191, 115, 115)" stroke-width="1" d="M2249.4999903067946,483.49998307973146V524.4999830797315L2269.4999903067946,524.4999830797315"></path><path id="kity_path_139" fill="none" stroke="rgb(191, 115, 115)" stroke-width="1" d="M2169.4999903067946,166.49998307973146V576.4999830797315L2189.4999903067946,576.4999830797315"></path><path id="kity_path_141" fill="none" stroke="rgb(191, 115, 115)" stroke-width="1" d="M2209.4999903067946,587.4999830797315V628.4999830797315L2229.4999903067946,628.4999830797315"></path><path id="kity_path_143" fill="none" stroke="rgb(191, 115, 115)" stroke-width="1" d="M2249.4999903067946,639.4999830797315V680.4999830797315L2269.4999903067946,680.4999830797315"></path><path id="kity_path_145" fill="none" stroke="rgb(191, 115, 115)" stroke-width="1" d="M2249.4999903067946,639.4999830797315V732.4999830797315L2269.4999903067946,732.4999830797315"></path><path id="kity_path_147" fill="none" stroke="rgb(191, 115, 115)" stroke-width="1" d="M2249.4999903067946,639.4999830797315V784.4999830797315L2269.4999903067946,784.4999830797315"></path><path id="kity_path_149" fill="none" stroke="rgb(191, 115, 115)" stroke-width="1" d="M2209.4999903067946,587.4999830797315V836.4999830797315L2229.4999903067946,836.4999830797315"></path><path id="kity_path_151" fill="none" stroke="rgb(191, 115, 115)" stroke-width="1" d="M2249.4999903067946,847.4999830797315V888.4999830797315L2269.4999903067946,888.4999830797315"></path><path id="kity_path_153" fill="none" stroke="rgb(191, 115, 115)" stroke-width="1" d="M2249.4999903067946,847.4999830797315V940.4999830797315L2269.4999903067946,940.4999830797315"></path><path id="kity_path_155" fill="none" stroke="rgb(191, 115, 115)" stroke-width="1" d="M2249.4999903067946,847.4999830797315V992.4999830797315L2269.4999903067946,992.4999830797315"></path><path id="kity_path_157" fill="none" stroke="rgb(191, 115, 115)" stroke-width="1" d="M2169.4999903067946,166.49998307973146V1044.4999830797315L2189.4999903067946,1044.4999830797315"></path><path id="kity_path_159" fill="none" stroke="rgb(191, 115, 115)" stroke-width="1" d="M2209.4999903067946,1055.4999830797315V1096.4999830797315L2229.4999903067946,1096.4999830797315"></path><path id="kity_path_161" fill="none" stroke="rgb(191, 115, 115)" stroke-width="1" d="M2209.4999903067946,1055.4999830797315V1148.4999830797315L2229.4999903067946,1148.4999830797315"></path><path id="kity_path_163" fill="none" stroke="rgb(191, 115, 115)" stroke-width="1" d="M2249.4999903067946,1159.4999830797315V1200.4999830797315L2269.4999903067946,1200.4999830797315"></path><path id="kity_path_165" fill="none" stroke="rgb(191, 115, 115)" stroke-width="1" d="M2249.4999903067946,1159.4999830797315V1252.4999830797315L2269.4999903067946,1252.4999830797315"></path><path id="kity_path_167" fill="none" stroke="rgb(191, 115, 115)" stroke-width="1" d="M2249.4999903067946,1159.4999830797315V1304.4999830797315L2269.4999903067946,1304.4999830797315"></path><path id="kity_path_169" fill="none" stroke="rgb(191, 115, 115)" stroke-width="1" d="M2169.4999903067946,166.49998307973146V1356.4999830797315L2189.4999903067946,1356.4999830797315"></path><path id="kity_path_618" fill="none" stroke="rgb(191, 115, 115)" stroke-width="1" d="M2209.4999903067946,1367.4999830797315V1408.4999830797315L2229.4999903067946,1408.4999830797315"></path><path id="kity_path_626" fill="none" stroke="rgb(191, 115, 115)" stroke-width="1" d="M2209.4999903067946,1367.4999830797315V1512.4999830797315L2229.4999903067946,1512.4999830797315"></path><path id="kity_path_634" fill="none" stroke="rgb(191, 115, 115)" stroke-width="1" d="M2249.4999903067946,1419.4999830797315V1460.4999830797315L2269.4999903067946,1460.4999830797315"></path><path id="kity_path_642" fill="none" stroke="rgb(191, 115, 115)" stroke-width="1" d="M2249.4999903067946,1523.4999830797315V1564.4999830797315L2269.4999903067946,1564.4999830797315"></path><path id="kity_path_650" fill="none" stroke="rgb(191, 115, 115)" stroke-width="1" d="M2249.4999903067946,1523.4999830797315V1616.4999830797315L2269.4999903067946,1616.4999830797315"></path></g><g id="minder_node1"><path id="node_outline1" fill="rgb(191, 115, 115)" stroke="rgb(191, 115, 115)" d="M915.4999903067946,20.499983079731464h459a5,5,0,0,1,5,5v54a5,5,0,0,1,-5,5h-459a5,5,0,0,1,-5,-5v-54a5,5,0,0,1,5,-5z" stroke-width="3"></path><g id="node_text1" fill="white"><text id="kity_text_22" text-rendering="inherit" font-size="16" dy=".8em" y="30.099983043968678" x="934.4999903067946">科技、娱乐与设计</text><text id="kity_text_310" text-rendering="inherit" font-size="16" dy=".8em" y="54.09998304396868" x="934.4999903067946">https://wordlesssoda.github.io/TED_notes/TED.svg</text></g><a id="kity_a_334" xlink:href="https://wordlesssoda.github.io/TED_notes/TED.svg" target="_blank" xlink:title="https://wordlesssoda.github.io/TED_notes/TED.svg" style="cursor: pointer;"><path id="kity_path_336" fill="rgba(255, 255, 255, 0)" stroke="none" d="M1335.499996252358,41.49998300522566h16a4,4,0,0,1,4,4v14a4,4,0,0,1,-4,4h-16a4,4,0,0,1,-4,-4v-14a4,4,0,0,1,4,-4z"></path><path id="kity_path_335" fill="#666" stroke="none" d="M1350.113996252358,57.72398300522566h-1.278c-1.668,0,-3.07,-1.07,-3.599,-2.556h4.877c0.707,0,1.278,-0.571,1.278,-1.278V51.33398300522566c0,-0.707,-0.571,-1.278,-1.278,-1.278h-4.877C1345.765996252358,48.570983005225656,1347.1679962523579,47.49998300522566,1348.835996252358,47.49998300522566h1.278c2.116,0,3.834,1.716,3.834,3.834V53.88998300522566C1353.947996252358,56.007983005225654,1352.229996252358,57.72398300522566,1350.113996252358,57.72398300522566zM1338.611996252358,52.61198300522566c0,-0.707,0.573,-1.278,1.278,-1.278h7.668c0.707,0,1.278,0.571,1.278,1.278S1348.264996252358,53.88998300522566,1347.557996252358,53.88998300522566H1339.889996252358C1339.184996252358,53.88998300522566,1338.611996252358,53.31898300522566,1338.611996252358,52.61198300522566zM1336.055996252358,51.33398300522566V53.88998300522566c0,0.707,0.573,1.278,1.278,1.278h4.877c-0.528,1.486,-1.932,2.556,-3.599,2.556H1337.333996252358C1335.2159962523579,57.72398300522566,1333.499996252358,56.007983005225654,1333.499996252358,53.88998300522566V51.33398300522566C1333.499996252358,49.21598300522566,1335.2159962523579,47.49998300522566,1337.333996252358,47.49998300522566h1.278c1.667,0,3.071,1.071,3.599,2.556H1337.333996252358C1336.6289962523579,50.055983005225656,1336.055996252358,50.62698300522566,1336.055996252358,51.33398300522566z"></path></a></g><g id="kity_g_12"><path id="kity_path_13" fill="none" stroke="none" d="M934.4999903067946,52.499983079731464h0v0h0z"></path></g><g id="kity_g_14"><path id="kity_path_15" fill="none" stroke="none" d="M934.4999903067946,52.499983079731464h0v0h0z"></path><path id="kity_path_16" fill="none" stroke="none"></path></g><g id="minder_node2"><g id="node_expander13" style="cursor: pointer;"><path id="kity_path_444" fill="white" stroke="gray" d="M87.49997759610415,127.49998419731855A6,6,0,1,1,75.49997759610415,127.49998419731855A6,6,0,1,1,87.49997759610415,127.49998419731855"></path><path id="kity_path_445" fill="none" stroke="gray" d="M76.99997759610415,127.49998419731855L85.99997759610415,127.49998419731855"></path></g><path id="node_outline14" fill="rgb(246, 238, 238)" stroke="rgb(191, 115, 115)" d="M23.499977357685566,134.49998454004526h116a3,3,0,0,1,3,3v26a3,3,0,0,1,-3,3h-116a3,3,0,0,1,-3,-3v-26a3,3,0,0,1,3,-3z" stroke-width="1"></path><g id="node_text14" fill="black"><text id="kity_text_195" text-rendering="inherit" font-size="14" dy=".8em" y="141.39998450875282" x="65.49997735768557"> 网络文化</text></g><g id="node_priority1"><path id="kity_path_313" fill="#840023" stroke="none" d="M40.99997699260712,153.99998439848423c0,3.866,3.134,7,7,7h6c3.866,0,7,-3.134,7,-7V147.99998439848423H40.99997699260712V153.99998439848423z"></path><path id="kity_path_314" fill="#FF1200" stroke="none" d="M60.99997699260712,150.99998439848423c0,3.866,-3.134,7,-7,7H47.99997699260712c-3.866,0,-7,-3.134,-7,-7V147.99998439848423c0,-3.866,3.134,-7,7,-7h6c3.866,0,7,3.134,7,7V150.99998439848423z" opacity="0.8"></path><text id="kity_text_315" text-rendering="geometricPrecision" x="49.999976985156536" y="150.49998439103365" text-anchor="middle" font-style="italic" font-size="12" fill="white" dy="5">1</text></g></g><g id="minder_node3"><g id="node_expander3" style="cursor: pointer;"><path id="kity_path_414" fill="white" stroke="gray" d="M60.49997719377279,212.49998546391726A6,6,0,1,1,48.49997719377279,212.49998546391726A6,6,0,1,1,60.49997719377279,212.49998546391726"></path><path id="kity_path_415" fill="none" stroke="gray" d="M49.99997719377279,212.49998546391726L58.99997719377279,212.49998546391726"></path></g><path id="node_outline4" fill="#f2dbdb" stroke="none" d="M65.49997743219137,201.49998546391726h82a5,5,0,0,1,5,5v12a5,5,0,0,1,-5,5h-82a5,5,0,0,1,-5,-5v-12a5,5,0,0,1,5,-5z"></path><g id="node_text4" fill="black"><text id="kity_text_175" text-rendering="inherit" font-size="12" dy=".8em" y="204.69998543709517" x="70.49997743219137">网络与性教育</text></g></g><g id="minder_node4"><g id="node_expander1" style="cursor: pointer;" display="none"><path id="kity_path_408" fill="white" stroke="gray" d="M100.49997778981924,264.49998623877764A6,6,0,1,1,88.49997778981924,264.49998623877764A6,6,0,1,1,100.49997778981924,264.49998623877764"></path><path id="kity_path_409" fill="none" stroke="gray"></path></g><path id="node_outline2" fill="none" stroke="none" d="M105.49997802823782,253.49998623877764h263a5,5,0,0,1,5,5v12a5,5,0,0,1,-5,5h-263a5,5,0,0,1,-5,-5v-12a5,5,0,0,1,5,-5z"></path><g id="node_text2" fill="black"><text id="kity_text_171" text-rendering="inherit" font-size="12" dy=".8em" y="256.69998621195555" x="110.49997802823782">生活模仿艺术，色情影片已成性教育的方式之一</text></g></g><g id="minder_node5"><g id="node_expander2" style="cursor: pointer;" display="none"><path id="kity_path_411" fill="white" stroke="gray" d="M100.49997778981924,316.499987013638A6,6,0,1,1,88.49997778981924,316.499987013638A6,6,0,1,1,100.49997778981924,316.499987013638"></path><path id="kity_path_412" fill="none" stroke="gray"></path></g><path id="node_outline3" fill="none" stroke="none" d="M105.49997802823782,305.499987013638h276a5,5,0,0,1,5,5v12a5,5,0,0,1,-5,5h-276a5,5,0,0,1,-5,-5v-12a5,5,0,0,1,5,-5z"></path><g id="node_text3" fill="black"><text id="kity_text_173" text-rendering="inherit" font-size="12" dy=".8em" y="308.69998698681593" x="110.49997802823782">纠正色情影片价值观，促成社会性别转向性别平等 </text></g></g><g id="minder_node6"><g id="node_expander8" style="cursor: pointer;"><path id="kity_path_429" fill="white" stroke="gray" d="M60.49997719377279,368.4999877884984A6,6,0,1,1,48.49997719377279,368.4999877884984A6,6,0,1,1,60.49997719377279,368.4999877884984"></path><path id="kity_path_430" fill="none" stroke="gray" d="M49.99997719377279,368.4999877884984L58.99997719377279,368.4999877884984"></path></g><path id="node_outline9" fill="#f2dbdb" stroke="none" d="M65.49997743219137,357.4999877884984h59a5,5,0,0,1,5,5v12a5,5,0,0,1,-5,5h-59a5,5,0,0,1,-5,-5v-12a5,5,0,0,1,5,-5z"></path><g id="node_text9" fill="black"><text id="kity_text_185" text-rendering="inherit" font-size="12" dy=".8em" y="360.6999877616763" x="70.49997743219137">网络成瘾</text></g></g><g id="minder_node7"><g id="node_expander5" style="cursor: pointer;"><path id="kity_path_420" fill="white" stroke="gray" d="M100.49997778981924,420.4999885633588A6,6,0,1,1,88.49997778981924,420.4999885633588A6,6,0,1,1,100.49997778981924,420.4999885633588"></path><path id="kity_path_421" fill="none" stroke="gray" d="M89.99997778981924,420.4999885633588L98.99997778981924,420.4999885633588"></path></g><path id="node_outline6" fill="none" stroke="none" d="M105.49997802823782,409.4999885633588h252a5,5,0,0,1,5,5v12a5,5,0,0,1,-5,5h-252a5,5,0,0,1,-5,-5v-12a5,5,0,0,1,5,-5z"></path><g id="node_text6" fill="black"><text id="kity_text_179" text-rendering="inherit" font-size="12" dy=".8em" y="412.6999885365367" x="110.49997802823782">科技公司为了获取利益打响用户注意力争夺战</text></g></g><g id="minder_node8"><g id="node_expander4" style="cursor: pointer;" display="none"><path id="kity_path_417" fill="white" stroke="gray" d="M140.4999783858657,472.49998933821917A6,6,0,1,1,128.4999783858657,472.49998933821917A6,6,0,1,1,140.4999783858657,472.49998933821917"></path><path id="kity_path_418" fill="none" stroke="gray"></path></g><path id="node_outline5" fill="none" stroke="none" d="M145.49997862428427,461.49998933821917h491a5,5,0,0,1,5,5v12a5,5,0,0,1,-5,5h-491a5,5,0,0,1,-5,-5v-12a5,5,0,0,1,5,-5z"></path><g id="node_text5" fill="black"><text id="kity_text_177" text-rendering="inherit" font-size="12" dy=".8em" y="464.6999893113971" x="150.49997862428427">例子：YouTube、Netflix、Facebook等为了留住用户的注意力设计了自动连播视频的功能</text></g></g><g id="minder_node9"><g id="node_expander6" style="cursor: pointer;" display="none"><path id="kity_path_423" fill="white" stroke="gray" d="M100.49997778981924,524.4999901130795A6,6,0,1,1,88.49997778981924,524.4999901130795A6,6,0,1,1,100.49997778981924,524.4999901130795"></path><path id="kity_path_424" fill="none" stroke="gray"></path></g><path id="node_outline7" fill="none" stroke="none" d="M105.49997802823782,513.4999901130795h179a5,5,0,0,1,5,5v12a5,5,0,0,1,-5,5h-179a5,5,0,0,1,-5,-5v-12a5,5,0,0,1,5,-5z"></path><g id="node_text7" fill="black"><text id="kity_text_181" text-rendering="inherit" font-size="12" dy=".8em" y="516.6999900862575" x="110.49997802823782">网络社交的大环境倒逼我们上瘾</text></g></g><g id="minder_node10"><g id="node_expander7" style="cursor: pointer;" display="none"><path id="kity_path_426" fill="white" stroke="gray" d="M100.49997778981924,576.4999908879399A6,6,0,1,1,88.49997778981924,576.4999908879399A6,6,0,1,1,100.49997778981924,576.4999908879399"></path><path id="kity_path_427" fill="none" stroke="gray"></path></g><path id="node_outline8" fill="none" stroke="none" d="M105.49997802823782,565.4999908879399h131a5,5,0,0,1,5,5v12a5,5,0,0,1,-5,5h-131a5,5,0,0,1,-5,-5v-12a5,5,0,0,1,5,-5z"></path><g id="node_text8" fill="black"><text id="kity_text_183" text-rendering="inherit" font-size="12" dy=".8em" y="568.6999908611178" x="110.49997802823782">君子役物，小人役于物</text></g></g><g id="minder_node11"><g id="node_expander12" style="cursor: pointer;"><path id="kity_path_441" fill="white" stroke="gray" d="M60.49997719377279,628.4999916628003A6,6,0,1,1,48.49997719377279,628.4999916628003A6,6,0,1,1,60.49997719377279,628.4999916628003"></path><path id="kity_path_442" fill="none" stroke="gray" d="M49.99997719377279,628.4999916628003L58.99997719377279,628.4999916628003"></path></g><path id="node_outline13" fill="#f2dbdb" stroke="none" d="M65.49997743219137,617.4999916628003h82a5,5,0,0,1,5,5v12a5,5,0,0,1,-5,5h-82a5,5,0,0,1,-5,-5v-12a5,5,0,0,1,5,-5z"></path><g id="node_text13" fill="black"><text id="kity_text_193" text-rendering="inherit" font-size="12" dy=".8em" y="620.6999916359782" x="70.49997743219137">互联网与情绪</text></g></g><g id="minder_node12"><g id="node_expander9" style="cursor: pointer;" display="none"><path id="kity_path_432" fill="white" stroke="gray" d="M100.49997778981924,680.4999924376607A6,6,0,1,1,88.49997778981924,680.4999924376607A6,6,0,1,1,100.49997778981924,680.4999924376607"></path><path id="kity_path_433" fill="none" stroke="gray"></path></g><path id="node_outline10" fill="none" stroke="none" d="M105.49997802823782,669.4999924376607h396a5,5,0,0,1,5,5v12a5,5,0,0,1,-5,5h-396a5,5,0,0,1,-5,-5v-12a5,5,0,0,1,5,-5z"></path><g id="node_text10" fill="black"><text id="kity_text_187" text-rendering="inherit" font-size="12" dy=".8em" y="672.6999924108386" x="110.49997802823782">情绪是即时产生的猜测，通过我们的大脑的解读理解而产生对情绪的想法</text></g></g><g id="minder_node13"><g id="node_expander10" style="cursor: pointer;" display="none"><path id="kity_path_435" fill="white" stroke="gray" d="M100.49997778981924,732.4999932125211A6,6,0,1,1,88.49997778981924,732.4999932125211A6,6,0,1,1,100.49997778981924,732.4999932125211"></path><path id="kity_path_436" fill="none" stroke="gray"></path></g><path id="node_outline11" fill="none" stroke="none" d="M105.49997802823782,721.4999932125211h179a5,5,0,0,1,5,5v12a5,5,0,0,1,-5,5h-179a5,5,0,0,1,-5,-5v-12a5,5,0,0,1,5,-5z"></path><g id="node_text11" fill="black"><text id="kity_text_189" text-rendering="inherit" font-size="12" dy=".8em" y="724.699993185699" x="110.49997802823782">情绪驱动行为，要学会控制情绪</text></g></g><g id="minder_node14"><g id="node_expander11" style="cursor: pointer;" display="none"><path id="kity_path_438" fill="white" stroke="gray" d="M100.49997778981924,784.4999939873815A6,6,0,1,1,88.49997778981924,784.4999939873815A6,6,0,1,1,100.49997778981924,784.4999939873815"></path><path id="kity_path_439" fill="none" stroke="gray"></path></g><path id="node_outline12" fill="none" stroke="none" d="M105.49997802823782,773.4999939873815h179a5,5,0,0,1,5,5v12a5,5,0,0,1,-5,5h-179a5,5,0,0,1,-5,-5v-12a5,5,0,0,1,5,-5z"></path><g id="node_text12" fill="black"><text id="kity_text_191" text-rendering="inherit" font-size="12" dy=".8em" y="776.6999939605594" x="110.49997802823782">让情感融入人工智能真的好吗？</text></g></g><g id="minder_node15"><g id="node_expander31" style="cursor: pointer;"><path id="kity_path_498" fill="white" stroke="gray" d="M769.4999877586961,127.49998419731855A6,6,0,1,1,757.4999877586961,127.49998419731855A6,6,0,1,1,769.4999877586961,127.49998419731855"></path><path id="kity_path_499" fill="none" stroke="gray" d="M758.9999877586961,127.49998419731855L767.9999877586961,127.49998419731855"></path></g><path id="node_outline32" fill="rgb(246, 238, 238)" stroke="rgb(191, 115, 115)" d="M684.4999872073531,134.49998454004526h158a3,3,0,0,1,3,3v26a3,3,0,0,1,-3,3h-158a3,3,0,0,1,-3,-3v-26a3,3,0,0,1,3,-3z" stroke-width="1"></path><g id="node_text32" fill="black"><text id="kity_text_231" text-rendering="inherit" font-size="14" dy=".8em" y="141.39998450875282" x="726.4999872073531">信息与数据应用 </text></g><g id="node_priority2"><path id="kity_path_318" fill="#01467F" stroke="none" d="M701.9999868422747,153.99998439848423c0,3.866,3.134,7,7,7h6c3.866,0,7,-3.134,7,-7V147.99998439848423H701.9999868422747V153.99998439848423z"></path><path id="kity_path_319" fill="#0074FF" stroke="none" d="M721.9999868422747,150.99998439848423c0,3.866,-3.134,7,-7,7H708.9999868422747c-3.866,0,-7,-3.134,-7,-7V147.99998439848423c0,-3.866,3.134,-7,7,-7h6c3.866,0,7,3.134,7,7V150.99998439848423z" opacity="0.8"></path><text id="kity_text_320" text-rendering="geometricPrecision" x="710.9999868348241" y="150.49998439103365" text-anchor="middle" font-style="italic" font-size="12" fill="white" dy="5">2</text></g></g><g id="minder_node16"><g id="node_expander16" style="cursor: pointer;"><path id="kity_path_453" fill="white" stroke="gray" d="M721.4999870434403,212.49998546391726A6,6,0,1,1,709.4999870434403,212.49998546391726A6,6,0,1,1,721.4999870434403,212.49998546391726"></path><path id="kity_path_454" fill="none" stroke="gray" d="M710.9999870434403,212.49998546391726L719.9999870434403,212.49998546391726"></path></g><path id="node_outline17" fill="#f2dbdb" stroke="none" d="M726.4999872818589,201.49998546391726h47a5,5,0,0,1,5,5v12a5,5,0,0,1,-5,5h-47a5,5,0,0,1,-5,-5v-12a5,5,0,0,1,5,-5z"></path><g id="node_text17" fill="black"><text id="kity_text_201" text-rendering="inherit" font-size="12" dy=".8em" y="204.69998543709517" x="731.4999872818589">数字屑</text></g></g><g id="minder_node17"><g id="node_expander14" style="cursor: pointer;" display="none"><path id="kity_path_447" fill="white" stroke="gray" d="M761.4999876394868,264.49998623877764A6,6,0,1,1,749.4999876394868,264.49998623877764A6,6,0,1,1,761.4999876394868,264.49998623877764"></path><path id="kity_path_448" fill="none" stroke="gray"></path></g><path id="node_outline15" fill="none" stroke="none" d="M766.4999878779054,253.49998623877764h156a5,5,0,0,1,5,5v12a5,5,0,0,1,-5,5h-156a5,5,0,0,1,-5,-5v-12a5,5,0,0,1,5,-5z"></path><g id="node_text15" fill="black"><text id="kity_text_197" text-rendering="inherit" font-size="12" dy=".8em" y="256.69998621195555" x="771.4999878779054">数字屑是网络中的个人数据</text></g></g><g id="minder_node18"><g id="node_expander15" style="cursor: pointer;" display="none"><path id="kity_path_450" fill="white" stroke="gray" d="M761.4999876394868,316.499987013638A6,6,0,1,1,749.4999876394868,316.499987013638A6,6,0,1,1,761.4999876394868,316.499987013638"></path><path id="kity_path_451" fill="none" stroke="gray"></path></g><path id="node_outline16" fill="none" stroke="none" d="M766.4999878779054,305.499987013638h180a5,5,0,0,1,5,5v12a5,5,0,0,1,-5,5h-180a5,5,0,0,1,-5,-5v-12a5,5,0,0,1,5,-5z"></path><g id="node_text16" fill="black"><text id="kity_text_199" text-rendering="inherit" font-size="12" dy=".8em" y="308.69998698681593" x="771.4999878779054">个人还是企业掌握数字屑是关键</text></g></g><g id="minder_node19"><g id="node_expander20" style="cursor: pointer;"><path id="kity_path_465" fill="white" stroke="gray" d="M721.4999870434403,368.4999877884984A6,6,0,1,1,709.4999870434403,368.4999877884984A6,6,0,1,1,721.4999870434403,368.4999877884984"></path><path id="kity_path_466" fill="none" stroke="gray" d="M710.9999870434403,368.4999877884984L719.9999870434403,368.4999877884984"></path></g><path id="node_outline21" fill="#f2dbdb" stroke="none" d="M726.4999872818589,357.4999877884984h108a5,5,0,0,1,5,5v12a5,5,0,0,1,-5,5h-108a5,5,0,0,1,-5,-5v-12a5,5,0,0,1,5,-5z"></path><g id="node_text21" fill="black"><text id="kity_text_209" text-rendering="inherit" font-size="12" dy=".8em" y="360.6999877616763" x="731.4999872818589">人工智能与大数据</text></g></g><g id="minder_node20"><g id="node_expander17" style="cursor: pointer;" display="none"><path id="kity_path_456" fill="white" stroke="gray" d="M761.4999876394868,420.4999885633588A6,6,0,1,1,749.4999876394868,420.4999885633588A6,6,0,1,1,761.4999876394868,420.4999885633588"></path><path id="kity_path_457" fill="none" stroke="gray"></path></g><path id="node_outline18" fill="none" stroke="none" d="M766.4999878779054,409.4999885633588h252a5,5,0,0,1,5,5v12a5,5,0,0,1,-5,5h-252a5,5,0,0,1,-5,-5v-12a5,5,0,0,1,5,-5z"></path><g id="node_text18" fill="black"><text id="kity_text_203" text-rendering="inherit" font-size="12" dy=".8em" y="412.6999885365367" x="771.4999878779054">人工智能时代，更应坚守人类的价值观和伦理</text></g></g><g id="minder_node21"><g id="node_expander19" style="cursor: pointer;"><path id="kity_path_462" fill="white" stroke="gray" d="M761.4999876394868,472.49998933821917A6,6,0,1,1,749.4999876394868,472.49998933821917A6,6,0,1,1,761.4999876394868,472.49998933821917"></path><path id="kity_path_463" fill="none" stroke="gray" d="M750.9999876394868,472.49998933821917L759.9999876394868,472.49998933821917"></path></g><path id="node_outline20" fill="none" stroke="none" d="M766.4999878779054,461.49998933821917h167a5,5,0,0,1,5,5v12a5,5,0,0,1,-5,5h-167a5,5,0,0,1,-5,-5v-12a5,5,0,0,1,5,-5z"></path><g id="node_text20" fill="black"><text id="kity_text_207" text-rendering="inherit" font-size="12" dy=".8em" y="464.6999893113971" x="771.4999878779054">大数据，取之于民，用之于民</text></g></g><g id="minder_node22"><g id="node_expander18" style="cursor: pointer;" display="none"><path id="kity_path_459" fill="white" stroke="gray" d="M801.4999882355332,524.4999901130795A6,6,0,1,1,789.4999882355332,524.4999901130795A6,6,0,1,1,801.4999882355332,524.4999901130795"></path><path id="kity_path_460" fill="none" stroke="gray"></path></g><path id="node_outline19" fill="none" stroke="none" d="M806.4999884739518,513.4999901130795h156a5,5,0,0,1,5,5v12a5,5,0,0,1,-5,5h-156a5,5,0,0,1,-5,-5v-12a5,5,0,0,1,5,-5z"></path><g id="node_text19" fill="black"><text id="kity_text_205" text-rendering="inherit" font-size="12" dy=".8em" y="516.6999900862575" x="811.4999884739518">例子：分享我们的医疗数据</text></g></g><g id="minder_node23"><g id="node_expander23" style="cursor: pointer;"><path id="kity_path_474" fill="white" stroke="gray" d="M721.4999870434403,576.4999908879399A6,6,0,1,1,709.4999870434403,576.4999908879399A6,6,0,1,1,721.4999870434403,576.4999908879399"></path><path id="kity_path_475" fill="none" stroke="gray" d="M710.9999870434403,576.4999908879399L719.9999870434403,576.4999908879399"></path></g><path id="node_outline24" fill="#f2dbdb" stroke="none" d="M726.4999872818589,565.4999908879399h132a5,5,0,0,1,5,5v12a5,5,0,0,1,-5,5h-132a5,5,0,0,1,-5,-5v-12a5,5,0,0,1,5,-5z"></path><g id="node_text24" fill="black"><text id="kity_text_215" text-rendering="inherit" font-size="12" dy=".8em" y="568.6999908611178" x="731.4999872818589">个人信息泡与交互设计</text></g></g><g id="minder_node24"><g id="node_expander21" style="cursor: pointer;" display="none"><path id="kity_path_468" fill="white" stroke="gray" d="M761.4999876394868,628.4999916628003A6,6,0,1,1,749.4999876394868,628.4999916628003A6,6,0,1,1,761.4999876394868,628.4999916628003"></path><path id="kity_path_469" fill="none" stroke="gray"></path></g><path id="node_outline22" fill="none" stroke="none" d="M766.4999878779054,617.4999916628003h286a5,5,0,0,1,5,5v12a5,5,0,0,1,-5,5h-286a5,5,0,0,1,-5,-5v-12a5,5,0,0,1,5,-5z"></path><g id="node_text22" fill="black"><text id="kity_text_211" text-rendering="inherit" font-size="12" dy=".8em" y="620.6999916359782" x="771.4999878779054">警惕“过滤气泡（Filter Bubble）”，突破信息限制</text></g></g><g id="minder_node25"><g id="node_expander22" style="cursor: pointer;" display="none"><path id="kity_path_471" fill="white" stroke="gray" d="M761.4999876394868,680.4999924376607A6,6,0,1,1,749.4999876394868,680.4999924376607A6,6,0,1,1,761.4999876394868,680.4999924376607"></path><path id="kity_path_472" fill="none" stroke="gray"></path></g><path id="node_outline23" fill="none" stroke="none" d="M766.4999878779054,669.4999924376607h107a5,5,0,0,1,5,5v12a5,5,0,0,1,-5,5h-107a5,5,0,0,1,-5,-5v-12a5,5,0,0,1,5,-5z"></path><g id="node_text23" fill="black"><text id="kity_text_213" text-rendering="inherit" font-size="12" dy=".8em" y="672.6999924108386" x="771.4999878779054">让数据“人性化”</text></g></g><g id="minder_node26"><g id="node_expander30" style="cursor: pointer;"><path id="kity_path_495" fill="white" stroke="gray" d="M721.4999870434403,732.4999932125211A6,6,0,1,1,709.4999870434403,732.4999932125211A6,6,0,1,1,721.4999870434403,732.4999932125211"></path><path id="kity_path_496" fill="none" stroke="gray" d="M710.9999870434403,732.4999932125211L719.9999870434403,732.4999932125211"></path></g><path id="node_outline31" fill="#f2dbdb" stroke="none" d="M726.4999872818589,721.4999932125211h132a5,5,0,0,1,5,5v12a5,5,0,0,1,-5,5h-132a5,5,0,0,1,-5,-5v-12a5,5,0,0,1,5,-5z"></path><g id="node_text31" fill="black"><text id="kity_text_229" text-rendering="inherit" font-size="12" dy=".8em" y="724.699993185699" x="731.4999872818589">全球发展与信息可视化</text></g></g><g id="minder_node27"><g id="node_expander25" style="cursor: pointer;"><path id="kity_path_480" fill="white" stroke="gray" d="M761.4999876394868,784.4999939873815A6,6,0,1,1,749.4999876394868,784.4999939873815A6,6,0,1,1,761.4999876394868,784.4999939873815"></path><path id="kity_path_481" fill="none" stroke="gray" d="M750.9999876394868,784.4999939873815L759.9999876394868,784.4999939873815"></path></g><path id="node_outline26" fill="none" stroke="none" d="M766.4999878779054,773.4999939873815h156a5,5,0,0,1,5,5v12a5,5,0,0,1,-5,5h-156a5,5,0,0,1,-5,-5v-12a5,5,0,0,1,5,-5z"></path><g id="node_text26" fill="black"><text id="kity_text_219" text-rendering="inherit" font-size="12" dy=".8em" y="776.6999939605594" x="771.4999878779054">通过信息可视化看全球发展</text></g></g><g id="minder_node28"><g id="node_expander24" style="cursor: pointer;" display="none"><path id="kity_path_477" fill="white" stroke="gray" d="M801.4999882355332,836.4999947622418A6,6,0,1,1,789.4999882355332,836.4999947622418A6,6,0,1,1,801.4999882355332,836.4999947622418"></path><path id="kity_path_478" fill="none" stroke="gray"></path></g><path id="node_outline25" fill="none" stroke="none" d="M806.4999884739518,825.4999947622418h350a5,5,0,0,1,5,5v12a5,5,0,0,1,-5,5h-350a5,5,0,0,1,-5,-5v-12a5,5,0,0,1,5,-5z"></path><g id="node_text25" fill="black"><text id="kity_text_217" text-rendering="inherit" font-size="12" dy=".8em" y="828.6999947354198" x="811.4999884739518">例子：汉斯·罗斯林运用信息可视化让人看到了全球发展的故事。</text></g></g><g id="minder_node29"><g id="node_expander27" style="cursor: pointer;"><path id="kity_path_486" fill="white" stroke="gray" d="M761.4999876394868,888.4999955371022A6,6,0,1,1,749.4999876394868,888.4999955371022A6,6,0,1,1,761.4999876394868,888.4999955371022"></path><path id="kity_path_487" fill="none" stroke="gray" d="M750.9999876394868,888.4999955371022L759.9999876394868,888.4999955371022"></path></g><path id="node_outline28" fill="none" stroke="none" d="M766.4999878779054,877.4999955371022h167a5,5,0,0,1,5,5v12a5,5,0,0,1,-5,5h-167a5,5,0,0,1,-5,-5v-12a5,5,0,0,1,5,-5z"></path><g id="node_text28" fill="black"><text id="kity_text_223" text-rendering="inherit" font-size="12" dy=".8em" y="880.6999955102801" x="771.4999878779054">收入如何影响人们的生活方式</text></g></g><g id="minder_node30"><g id="node_expander26" style="cursor: pointer;" display="none"><path id="kity_path_483" fill="white" stroke="gray" d="M801.4999882355332,945.4999963864684A6,6,0,1,1,789.4999882355332,945.4999963864684A6,6,0,1,1,801.4999882355332,945.4999963864684"></path><path id="kity_path_484" fill="none" stroke="gray"></path></g><path id="node_outline27" fill="none" stroke="none" d="M806.4999884739518,929.4999963864684h534a5,5,0,0,1,5,5v22a5,5,0,0,1,-5,5h-534a5,5,0,0,1,-5,-5v-22a5,5,0,0,1,5,-5z"></path><g id="node_text27" fill="black"><text id="kity_text_221" text-rendering="inherit" font-size="12" dy=".8em" y="937.6999963596463" x="811.4999884739518">例子：安娜·罗丝玲·洛恩收集收集各个国家地区人民的生活状况照片，构建DOLLAR STREET。</text></g><a id="kity_a_331" xlink:href="https://www.gapminder.org/dollar-street/matrix" target="_blank" xlink:title="DOLLAR STREET(https://www.gapminder.org/dollar-street/matrix)" style="cursor: pointer;"><path id="kity_path_333" fill="rgba(255, 255, 255, 0)" stroke="none" d="M1315.4999959543347,934.4999963119626h16a4,4,0,0,1,4,4v14a4,4,0,0,1,-4,4h-16a4,4,0,0,1,-4,-4v-14a4,4,0,0,1,4,-4z"></path><path id="kity_path_332" fill="#666" stroke="none" d="M1330.1139959543348,950.7239963119627h-1.278c-1.668,0,-3.07,-1.07,-3.599,-2.556h4.877c0.707,0,1.278,-0.571,1.278,-1.278V944.3339963119626c0,-0.707,-0.571,-1.278,-1.278,-1.278h-4.877C1325.7659959543348,941.5709963119626,1327.1679959543346,940.4999963119626,1328.8359959543347,940.4999963119626h1.278c2.116,0,3.834,1.716,3.834,3.834V946.8899963119626C1333.9479959543348,949.0079963119626,1332.2299959543348,950.7239963119627,1330.1139959543348,950.7239963119627zM1318.6119959543348,945.6119963119626c0,-0.707,0.573,-1.278,1.278,-1.278h7.668c0.707,0,1.278,0.571,1.278,1.278S1328.2649959543348,946.8899963119626,1327.5579959543347,946.8899963119626H1319.8899959543348C1319.1849959543347,946.8899963119626,1318.6119959543348,946.3189963119626,1318.6119959543348,945.6119963119626zM1316.0559959543348,944.3339963119626V946.8899963119626c0,0.707,0.573,1.278,1.278,1.278h4.877c-0.528,1.486,-1.932,2.556,-3.599,2.556H1317.3339959543348C1315.2159959543346,950.7239963119627,1313.4999959543347,949.0079963119626,1313.4999959543347,946.8899963119626V944.3339963119626C1313.4999959543347,942.2159963119626,1315.2159959543346,940.4999963119626,1317.3339959543348,940.4999963119626h1.278c1.667,0,3.071,1.071,3.599,2.556H1317.3339959543348C1316.6289959543346,943.0559963119626,1316.0559959543348,943.6269963119626,1316.0559959543348,944.3339963119626z"></path></a></g><g id="minder_node31"><g id="node_expander29" style="cursor: pointer;"><path id="kity_path_492" fill="white" stroke="gray" d="M761.4999876394868,1002.4999972358346A6,6,0,1,1,749.4999876394868,1002.4999972358346A6,6,0,1,1,761.4999876394868,1002.4999972358346"></path><path id="kity_path_493" fill="none" stroke="gray" d="M750.9999876394868,1002.4999972358346L759.9999876394868,1002.4999972358346"></path></g><path id="node_outline30" fill="none" stroke="none" d="M766.4999878779054,991.4999972358346h167a5,5,0,0,1,5,5v12a5,5,0,0,1,-5,5h-167a5,5,0,0,1,-5,-5v-12a5,5,0,0,1,5,-5z"></path><g id="node_text30" fill="black"><text id="kity_text_227" text-rendering="inherit" font-size="12" dy=".8em" y="994.6999972090125" x="771.4999878779054">开放性数据如何改变国际援助</text></g></g><g id="minder_node32"><g id="node_expander28" style="cursor: pointer;" display="none"><path id="kity_path_489" fill="white" stroke="gray" d="M801.4999882355332,1054.499998010695A6,6,0,1,1,789.4999882355332,1054.499998010695A6,6,0,1,1,801.4999882355332,1054.499998010695"></path><path id="kity_path_490" fill="none" stroke="gray"></path></g><path id="node_outline29" fill="none" stroke="none" d="M806.4999884739518,1043.499998010695h822a5,5,0,0,1,5,5v12a5,5,0,0,1,-5,5h-822a5,5,0,0,1,-5,-5v-12a5,5,0,0,1,5,-5z"></path><g id="node_text29" fill="black"><text id="kity_text_225" text-rendering="inherit" font-size="12" dy=".8em" y="1046.699997983873" x="811.4999884739518">例子：Sanjay Pradhan 谈论开放的知识渠道(OPEN Konwledge)、开放的援助(OPEN Aid)、开放透明的政府(OPEN Governance)是如何改变国际援助的</text></g></g><g id="minder_node33"><g id="node_expander46" style="cursor: pointer;"><path id="kity_path_543" fill="white" stroke="gray" d="M1754.5000024363399,127.49998419731855A6,6,0,1,1,1742.5000024363399,127.49998419731855A6,6,0,1,1,1754.5000024363399,127.49998419731855"></path><path id="kity_path_544" fill="none" stroke="gray" d="M1744.0000024363399,127.49998419731855L1753.0000024363399,127.49998419731855"></path></g><path id="node_outline47" fill="rgb(246, 238, 238)" stroke="rgb(191, 115, 115)" d="M1676.500001989305,134.49998454004526h144a3,3,0,0,1,3,3v26a3,3,0,0,1,-3,3h-144a3,3,0,0,1,-3,-3v-26a3,3,0,0,1,3,-3z" stroke-width="1"></path><g id="node_text47" fill="black"><text id="kity_text_261" text-rendering="inherit" font-size="14" dy=".8em" y="141.39998450875282" x="1718.500001989305">互联网与编程</text></g><g id="node_priority3"><path id="kity_path_323" fill="#006300" stroke="none" d="M1694.0000016242266,153.99998439848423c0,3.866,3.134,7,7,7h6c3.866,0,7,-3.134,7,-7V147.99998439848423H1694.0000016242266V153.99998439848423z"></path><path id="kity_path_324" fill="#00AF00" stroke="none" d="M1714.0000016242266,150.99998439848423c0,3.866,-3.134,7,-7,7H1701.0000016242266c-3.866,0,-7,-3.134,-7,-7V147.99998439848423c0,-3.866,3.134,-7,7,-7h6c3.866,0,7,3.134,7,7V150.99998439848423z" opacity="0.8"></path><text id="kity_text_325" text-rendering="geometricPrecision" x="1703.000001616776" y="150.49998439103365" text-anchor="middle" font-style="italic" font-size="12" fill="white" dy="5">3</text></g></g><g id="minder_node34"><g id="node_expander36" style="cursor: pointer;"><path id="kity_path_513" fill="white" stroke="gray" d="M1713.5000018253922,212.49998546391726A6,6,0,1,1,1701.5000018253922,212.49998546391726A6,6,0,1,1,1713.5000018253922,212.49998546391726"></path><path id="kity_path_514" fill="none" stroke="gray" d="M1703.0000018253922,212.49998546391726L1712.0000018253922,212.49998546391726"></path></g><path id="node_outline37" fill="#f2dbdb" stroke="none" d="M1718.5000020638108,201.49998546391726h71a5,5,0,0,1,5,5v12a5,5,0,0,1,-5,5h-71a5,5,0,0,1,-5,-5v-12a5,5,0,0,1,5,-5z"></path><g id="node_text37" fill="black"><text id="kity_text_241" text-rendering="inherit" font-size="12" dy=".8em" y="204.69998543709517" x="1723.5000020638108">平台与开放</text></g></g><g id="minder_node35"><g id="node_expander32" style="cursor: pointer;" display="none"><path id="kity_path_501" fill="white" stroke="gray" d="M1753.5000024214387,264.49998623877764A6,6,0,1,1,1741.5000024214387,264.49998623877764A6,6,0,1,1,1753.5000024214387,264.49998623877764"></path><path id="kity_path_502" fill="none" stroke="gray"></path></g><path id="node_outline33" fill="none" stroke="none" d="M1758.5000026598573,253.49998623877764h166a5,5,0,0,1,5,5v12a5,5,0,0,1,-5,5h-166a5,5,0,0,1,-5,-5v-12a5,5,0,0,1,5,-5z"></path><g id="node_text33" fill="black"><text id="kity_text_233" text-rendering="inherit" font-size="12" dy=".8em" y="256.69998621195555" x="1763.5000026598573">互联网存在随机的善良的行为</text></g></g><g id="minder_node36"><g id="node_expander33" style="cursor: pointer;" display="none"><path id="kity_path_504" fill="white" stroke="gray" d="M1753.5000024214387,316.499987013638A6,6,0,1,1,1741.5000024214387,316.499987013638A6,6,0,1,1,1753.5000024214387,316.499987013638"></path><path id="kity_path_505" fill="none" stroke="gray"></path></g><path id="node_outline34" fill="none" stroke="none" d="M1758.5000026598573,305.499987013638h179a5,5,0,0,1,5,5v12a5,5,0,0,1,-5,5h-179a5,5,0,0,1,-5,-5v-12a5,5,0,0,1,5,-5z"></path><g id="node_text34" fill="black"><text id="kity_text_235" text-rendering="inherit" font-size="12" dy=".8em" y="308.69998698681593" x="1763.5000026598573">互联网是互联网企业谋利的工具</text></g></g><g id="minder_node37"><g id="node_expander34" style="cursor: pointer;" display="none"><path id="kity_path_507" fill="white" stroke="gray" d="M1753.5000024214387,368.4999877884984A6,6,0,1,1,1741.5000024214387,368.4999877884984A6,6,0,1,1,1753.5000024214387,368.4999877884984"></path><path id="kity_path_508" fill="none" stroke="gray"></path></g><path id="node_outline35" fill="none" stroke="none" d="M1758.5000026598573,357.4999877884984h119a5,5,0,0,1,5,5v12a5,5,0,0,1,-5,5h-119a5,5,0,0,1,-5,-5v-12a5,5,0,0,1,5,-5z"></path><g id="node_text35" fill="black"><text id="kity_text_237" text-rendering="inherit" font-size="12" dy=".8em" y="360.6999877616763" x="1763.5000026598573">互联网是民权的工具</text></g></g><g id="minder_node38"><g id="node_expander35" style="cursor: pointer;" display="none"><path id="kity_path_510" fill="white" stroke="gray" d="M1753.5000024214387,420.4999885633588A6,6,0,1,1,1741.5000024214387,420.4999885633588A6,6,0,1,1,1753.5000024214387,420.4999885633588"></path><path id="kity_path_511" fill="none" stroke="gray"></path></g><path id="node_outline36" fill="none" stroke="none" d="M1758.5000026598573,409.4999885633588h346a5,5,0,0,1,5,5v12a5,5,0,0,1,-5,5h-346a5,5,0,0,1,-5,-5v-12a5,5,0,0,1,5,-5z"></path><g id="node_text36" fill="black"><text id="kity_text_239" text-rendering="inherit" font-size="12" dy=".8em" y="412.6999885365367" x="1763.5000026598573">互联网的本质是什么？自由与开放（需要建立在善良的引导下）</text></g></g><g id="minder_node39"><g id="node_expander43" style="cursor: pointer;"><path id="kity_path_534" fill="white" stroke="gray" d="M1713.5000018253922,472.49998933821917A6,6,0,1,1,1701.5000018253922,472.49998933821917A6,6,0,1,1,1713.5000018253922,472.49998933821917"></path><path id="kity_path_535" fill="none" stroke="gray" d="M1703.0000018253922,472.49998933821917L1712.0000018253922,472.49998933821917"></path></g><path id="node_outline44" fill="#f2dbdb" stroke="none" d="M1718.5000020638108,461.49998933821917h84a5,5,0,0,1,5,5v12a5,5,0,0,1,-5,5h-84a5,5,0,0,1,-5,-5v-12a5,5,0,0,1,5,-5z"></path><g id="node_text44" fill="black"><text id="kity_text_255" text-rendering="inherit" font-size="12" dy=".8em" y="464.6999893113971" x="1723.5000020638108">编程改变世界</text></g></g><g id="minder_node40"><g id="node_expander39" style="cursor: pointer;"><path id="kity_path_522" fill="white" stroke="gray" d="M1753.5000024214387,524.4999901130795A6,6,0,1,1,1741.5000024214387,524.4999901130795A6,6,0,1,1,1753.5000024214387,524.4999901130795"></path><path id="kity_path_523" fill="none" stroke="gray" d="M1743.0000024214387,524.4999901130795L1752.0000024214387,524.4999901130795"></path></g><path id="node_outline40" fill="none" stroke="none" d="M1758.5000026598573,513.4999901130795h125a5,5,0,0,1,5,5v12a5,5,0,0,1,-5,5h-125a5,5,0,0,1,-5,-5v-12a5,5,0,0,1,5,-5z"></path><g id="node_text40" fill="black"><text id="kity_text_247" text-rendering="inherit" font-size="12" dy=".8em" y="516.6999900862575" x="1763.5000026598573">代码: 下一个通用语言</text></g></g><g id="minder_node41"><g id="node_expander37" style="cursor: pointer;" display="none"><path id="kity_path_516" fill="white" stroke="gray" d="M1793.5000030174851,576.4999908879399A6,6,0,1,1,1781.5000030174851,576.4999908879399A6,6,0,1,1,1793.5000030174851,576.4999908879399"></path><path id="kity_path_517" fill="none" stroke="gray"></path></g><path id="node_outline38" fill="none" stroke="none" d="M1798.5000032559037,565.4999908879399h143a5,5,0,0,1,5,5v12a5,5,0,0,1,-5,5h-143a5,5,0,0,1,-5,-5v-12a5,5,0,0,1,5,-5z"></path><g id="node_text38" fill="black"><text id="kity_text_243" text-rendering="inherit" font-size="12" dy=".8em" y="568.6999908611178" x="1803.5000032559037">让孩子成为下一代创造者</text></g></g><g id="minder_node42"><g id="node_expander38" style="cursor: pointer;" display="none"><path id="kity_path_519" fill="white" stroke="gray" d="M1793.5000030174851,628.4999916628003A6,6,0,1,1,1781.5000030174851,628.4999916628003A6,6,0,1,1,1793.5000030174851,628.4999916628003"></path><path id="kity_path_520" fill="none" stroke="gray"></path></g><path id="node_outline39" fill="none" stroke="none" d="M1798.5000032559037,617.4999916628003h132a5,5,0,0,1,5,5v12a5,5,0,0,1,-5,5h-132a5,5,0,0,1,-5,-5v-12a5,5,0,0,1,5,-5z"></path><g id="node_text39" fill="black"><text id="kity_text_245" text-rendering="inherit" font-size="12" dy=".8em" y="620.6999916359782" x="1803.5000032559037">女孩要勇敢而不必完美</text></g></g><g id="minder_node43"><g id="node_expander42" style="cursor: pointer;"><path id="kity_path_531" fill="white" stroke="gray" d="M1753.5000024214387,680.4999924376607A6,6,0,1,1,1741.5000024214387,680.4999924376607A6,6,0,1,1,1753.5000024214387,680.4999924376607"></path><path id="kity_path_532" fill="none" stroke="gray" d="M1743.0000024214387,680.4999924376607L1752.0000024214387,680.4999924376607"></path></g><path id="node_outline43" fill="none" stroke="none" d="M1758.5000026598573,669.4999924376607h227a5,5,0,0,1,5,5v12a5,5,0,0,1,-5,5h-227a5,5,0,0,1,-5,-5v-12a5,5,0,0,1,5,-5z"></path><g id="node_text43" fill="black"><text id="kity_text_253" text-rendering="inherit" font-size="12" dy=".8em" y="672.6999924108386" x="1763.5000026598573">黑客编程一直是健康民主的重要组成部分</text></g></g><g id="minder_node44"><g id="node_expander40" style="cursor: pointer;" display="none"><path id="kity_path_525" fill="white" stroke="gray" d="M1793.5000030174851,732.4999932125211A6,6,0,1,1,1781.5000030174851,732.4999932125211A6,6,0,1,1,1793.5000030174851,732.4999932125211"></path><path id="kity_path_526" fill="none" stroke="gray"></path></g><path id="node_outline41" fill="none" stroke="none" d="M1798.5000032559037,721.4999932125211h281a5,5,0,0,1,5,5v12a5,5,0,0,1,-5,5h-281a5,5,0,0,1,-5,-5v-12a5,5,0,0,1,5,-5z"></path><g id="node_text41" fill="black"><text id="kity_text_249" text-rendering="inherit" font-size="12" dy=".8em" y="724.699993185699" x="1803.5000032559037">成为公民黑客（Civic Hacking）共同推动社会发展</text></g></g><g id="minder_node45"><g id="node_expander41" style="cursor: pointer;" display="none"><path id="kity_path_528" fill="white" stroke="gray" d="M1793.5000030174851,784.4999939873815A6,6,0,1,1,1781.5000030174851,784.4999939873815A6,6,0,1,1,1793.5000030174851,784.4999939873815"></path><path id="kity_path_529" fill="none" stroke="gray"></path></g><path id="node_outline42" fill="none" stroke="none" d="M1798.5000032559037,773.4999939873815h178a5,5,0,0,1,5,5v12a5,5,0,0,1,-5,5h-178a5,5,0,0,1,-5,-5v-12a5,5,0,0,1,5,-5z"></path><g id="node_text42" fill="black"><text id="kity_text_251" text-rendering="inherit" font-size="12" dy=".8em" y="776.6999939605594" x="1803.5000032559037">用编程“编写”一个更好的政府</text></g></g><g id="minder_node46"><g id="node_expander45" style="cursor: pointer;"><path id="kity_path_540" fill="white" stroke="gray" d="M1713.5000018253922,836.4999947622418A6,6,0,1,1,1701.5000018253922,836.4999947622418A6,6,0,1,1,1713.5000018253922,836.4999947622418"></path><path id="kity_path_541" fill="none" stroke="gray" d="M1703.0000018253922,836.4999947622418L1712.0000018253922,836.4999947622418"></path></g><path id="node_outline46" fill="#f2dbdb" stroke="none" d="M1718.5000020638108,825.4999947622418h84a5,5,0,0,1,5,5v12a5,5,0,0,1,-5,5h-84a5,5,0,0,1,-5,-5v-12a5,5,0,0,1,5,-5z"></path><g id="node_text46" fill="black"><text id="kity_text_259" text-rendering="inherit" font-size="12" dy=".8em" y="828.6999947354198" x="1723.5000020638108">超连结与社会</text></g></g><g id="minder_node47"><g id="node_expander44" style="cursor: pointer;" display="none"><path id="kity_path_537" fill="white" stroke="gray" d="M1753.5000024214387,888.4999955371022A6,6,0,1,1,1741.5000024214387,888.4999955371022A6,6,0,1,1,1753.5000024214387,888.4999955371022"></path><path id="kity_path_538" fill="none" stroke="gray"></path></g><path id="node_outline45" fill="none" stroke="none" d="M1758.5000026598573,877.4999955371022h96a5,5,0,0,1,5,5v12a5,5,0,0,1,-5,5h-96a5,5,0,0,1,-5,-5v-12a5,5,0,0,1,5,-5z"></path><g id="node_text45" fill="black"><text id="kity_text_257" text-rendering="inherit" font-size="12" dy=".8em" y="880.6999955102801" x="1763.5000026598573">超链接改变社会</text></g></g><g id="minder_node48"><g id="node_expander70" style="cursor: pointer;"><path id="kity_path_615" fill="white" stroke="gray" d="M2216.0000093132257,127.49998419731855A6,6,0,1,1,2204.0000093132257,127.49998419731855A6,6,0,1,1,2216.0000093132257,127.49998419731855"></path><path id="kity_path_616" fill="none" stroke="gray" d="M2205.5000093132257,127.49998419731855L2214.5000093132257,127.49998419731855"></path></g><path id="node_outline71" fill="rgb(246, 238, 238)" stroke="rgb(191, 115, 115)" d="M2152.5000090822577,134.49998454004526h115a3,3,0,0,1,3,3v26a3,3,0,0,1,-3,3h-115a3,3,0,0,1,-3,-3v-26a3,3,0,0,1,3,-3z" stroke-width="1"></path><g id="node_text71" fill="black"><text id="kity_text_309" text-rendering="inherit" font-size="14" dy=".8em" y="141.39998450875282" x="2194.5000090822577">设计思维</text></g><g id="node_priority4"><path id="kity_path_328" fill="#B25000" stroke="none" d="M2170.0000087171793,153.99998439848423c0,3.866,3.134,7,7,7h6c3.866,0,7,-3.134,7,-7V147.99998439848423H2170.0000087171793V153.99998439848423z"></path><path id="kity_path_329" fill="#FF962E" stroke="none" d="M2190.0000087171793,150.99998439848423c0,3.866,-3.134,7,-7,7H2177.0000087171793c-3.866,0,-7,-3.134,-7,-7V147.99998439848423c0,-3.866,3.134,-7,7,-7h6c3.866,0,7,3.134,7,7V150.99998439848423z" opacity="0.8"></path><text id="kity_text_330" text-rendering="geometricPrecision" x="2179.0000087097287" y="150.49998439103365" text-anchor="middle" font-style="italic" font-size="12" fill="white" dy="5">4</text></g></g><g id="minder_node49"><g id="node_expander53" style="cursor: pointer;"><path id="kity_path_564" fill="white" stroke="gray" d="M2189.500008918345,212.49998546391726A6,6,0,1,1,2177.500008918345,212.49998546391726A6,6,0,1,1,2189.500008918345,212.49998546391726"></path><path id="kity_path_565" fill="none" stroke="gray" d="M2179.000008918345,212.49998546391726L2188.000008918345,212.49998546391726"></path></g><path id="node_outline54" fill="#f2dbdb" stroke="none" d="M2194.5000091567636,201.49998546391726h71a5,5,0,0,1,5,5v12a5,5,0,0,1,-5,5h-71a5,5,0,0,1,-5,-5v-12a5,5,0,0,1,5,-5z"></path><g id="node_text54" fill="black"><text id="kity_text_275" text-rendering="inherit" font-size="12" dy=".8em" y="204.69998543709517" x="2199.5000091567636">幽默与设计</text></g></g><g id="minder_node50"><g id="node_expander48" style="cursor: pointer;"><path id="kity_path_549" fill="white" stroke="gray" d="M2229.5000095143914,264.49998623877764A6,6,0,1,1,2217.5000095143914,264.49998623877764A6,6,0,1,1,2229.5000095143914,264.49998623877764"></path><path id="kity_path_550" fill="none" stroke="gray" d="M2219.0000095143914,264.49998623877764L2228.0000095143914,264.49998623877764"></path></g><path id="node_outline49" fill="none" stroke="none" d="M2234.50000975281,253.49998623877764h94a5,5,0,0,1,5,5v12a5,5,0,0,1,-5,5h-94a5,5,0,0,1,-5,-5v-12a5,5,0,0,1,5,-5z"></path><g id="node_text49" fill="black"><text id="kity_text_265" text-rendering="inherit" font-size="12" dy=".8em" y="256.69998621195555" x="2239.50000975281">以幽默改变规则</text></g></g><g id="minder_node51"><g id="node_expander47" style="cursor: pointer;" display="none"><path id="kity_path_546" fill="white" stroke="gray" d="M2269.500010110438,316.499987013638A6,6,0,1,1,2257.500010110438,316.499987013638A6,6,0,1,1,2269.500010110438,316.499987013638"></path><path id="kity_path_547" fill="none" stroke="gray"></path></g><path id="node_outline48" fill="none" stroke="none" d="M2274.5000103488564,305.499987013638h496a5,5,0,0,1,5,5v12a5,5,0,0,1,-5,5h-496a5,5,0,0,1,-5,-5v-12a5,5,0,0,1,5,-5z"></path><g id="node_text48" fill="black"><text id="kity_text_263" text-rendering="inherit" font-size="12" dy=".8em" y="308.69998698681593" x="2279.5000103488564">例子：Liza Donnelly的幽默漫画引导着读者们思考当今社会女性的规则，尝试推动规则改变</text></g></g><g id="minder_node52"><g id="node_expander50" style="cursor: pointer;"><path id="kity_path_555" fill="white" stroke="gray" d="M2229.5000095143914,368.4999877884984A6,6,0,1,1,2217.5000095143914,368.4999877884984A6,6,0,1,1,2229.5000095143914,368.4999877884984"></path><path id="kity_path_556" fill="none" stroke="gray" d="M2219.0000095143914,368.4999877884984L2228.0000095143914,368.4999877884984"></path></g><path id="node_outline51" fill="none" stroke="none" d="M2234.50000975281,357.4999877884984h95a5,5,0,0,1,5,5v12a5,5,0,0,1,-5,5h-95a5,5,0,0,1,-5,-5v-12a5,5,0,0,1,5,-5z"></path><g id="node_text51" fill="black"><text id="kity_text_269" text-rendering="inherit" font-size="12" dy=".8em" y="360.6999877616763" x="2239.50000975281">以幽默传播文化</text></g></g><g id="minder_node53"><g id="node_expander49" style="cursor: pointer;" display="none"><path id="kity_path_552" fill="white" stroke="gray" d="M2269.500010110438,420.4999885633588A6,6,0,1,1,2257.500010110438,420.4999885633588A6,6,0,1,1,2269.500010110438,420.4999885633588"></path><path id="kity_path_553" fill="none" stroke="gray"></path></g><path id="node_outline50" fill="none" stroke="none" d="M2274.5000103488564,409.4999885633588h475a5,5,0,0,1,5,5v12a5,5,0,0,1,-5,5h-475a5,5,0,0,1,-5,-5v-12a5,5,0,0,1,5,-5z"></path><g id="node_text50" fill="black"><text id="kity_text_267" text-rendering="inherit" font-size="12" dy=".8em" y="412.6999885365367" x="2279.5000103488564">例子：Randall Munroe以幽默的语言文字，让枯燥无味的知识科普变的有趣而利于传播</text></g></g><g id="minder_node54"><g id="node_expander52" style="cursor: pointer;"><path id="kity_path_561" fill="white" stroke="gray" d="M2229.5000095143914,472.49998933821917A6,6,0,1,1,2217.5000095143914,472.49998933821917A6,6,0,1,1,2229.5000095143914,472.49998933821917"></path><path id="kity_path_562" fill="none" stroke="gray" d="M2219.0000095143914,472.49998933821917L2228.0000095143914,472.49998933821917"></path></g><path id="node_outline53" fill="none" stroke="none" d="M2234.50000975281,461.49998933821917h95a5,5,0,0,1,5,5v12a5,5,0,0,1,-5,5h-95a5,5,0,0,1,-5,-5v-12a5,5,0,0,1,5,-5z"></path><g id="node_text53" fill="black"><text id="kity_text_273" text-rendering="inherit" font-size="12" dy=".8em" y="464.6999893113971" x="2239.50000975281">以幽默消除歧视</text></g></g><g id="minder_node55"><g id="node_expander51" style="cursor: pointer;" display="none"><path id="kity_path_558" fill="white" stroke="gray" d="M2269.500010110438,524.4999901130795A6,6,0,1,1,2257.500010110438,524.4999901130795A6,6,0,1,1,2269.500010110438,524.4999901130795"></path><path id="kity_path_559" fill="none" stroke="gray"></path></g><path id="node_outline52" fill="none" stroke="none" d="M2274.5000103488564,513.4999901130795h537a5,5,0,0,1,5,5v12a5,5,0,0,1,-5,5h-537a5,5,0,0,1,-5,-5v-12a5,5,0,0,1,5,-5z"></path><g id="node_text52" fill="black"><text id="kity_text_271" text-rendering="inherit" font-size="12" dy=".8em" y="516.6999900862575" x="2279.5000103488564">例子：Ruby Wax以幽默的方式让人们了解精神疾病，同时不断削减着人们对精神疾病的误解与歧视</text></g></g><g id="minder_node56"><g id="node_expander62" style="cursor: pointer;"><path id="kity_path_591" fill="white" stroke="gray" d="M2189.500008918345,576.4999908879399A6,6,0,1,1,2177.500008918345,576.4999908879399A6,6,0,1,1,2189.500008918345,576.4999908879399"></path><path id="kity_path_592" fill="none" stroke="gray" d="M2179.000008918345,576.4999908879399L2188.000008918345,576.4999908879399"></path></g><path id="node_outline63" fill="#f2dbdb" stroke="none" d="M2194.5000091567636,565.4999908879399h72a5,5,0,0,1,5,5v12a5,5,0,0,1,-5,5h-72a5,5,0,0,1,-5,-5v-12a5,5,0,0,1,5,-5z"></path><g id="node_text63" fill="black"><text id="kity_text_293" text-rendering="inherit" font-size="12" dy=".8em" y="568.6999908611178" x="2199.5000091567636">情感化设计</text></g></g><g id="minder_node57"><g id="node_expander57" style="cursor: pointer;"><path id="kity_path_576" fill="white" stroke="gray" d="M2229.5000095143914,628.4999916628003A6,6,0,1,1,2217.5000095143914,628.4999916628003A6,6,0,1,1,2229.5000095143914,628.4999916628003"></path><path id="kity_path_577" fill="none" stroke="gray" d="M2219.0000095143914,628.4999916628003L2228.0000095143914,628.4999916628003"></path></g><path id="node_outline58" fill="none" stroke="none" d="M2234.50000975281,617.4999916628003h127a5,5,0,0,1,5,5v12a5,5,0,0,1,-5,5h-127a5,5,0,0,1,-5,-5v-12a5,5,0,0,1,5,-5z"></path><g id="node_text58" fill="black"><text id="kity_text_283" text-rendering="inherit" font-size="12" dy=".8em" y="620.6999916359782" x="2239.50000975281">积极心理学的3个目标</text></g></g><g id="minder_node58"><g id="node_expander54" style="cursor: pointer;" display="none"><path id="kity_path_567" fill="white" stroke="gray" d="M2269.500010110438,680.4999924376607A6,6,0,1,1,2257.500010110438,680.4999924376607A6,6,0,1,1,2269.500010110438,680.4999924376607"></path><path id="kity_path_568" fill="none" stroke="gray"></path></g><path id="node_outline55" fill="none" stroke="none" d="M2274.5000103488564,669.4999924376607h264a5,5,0,0,1,5,5v12a5,5,0,0,1,-5,5h-264a5,5,0,0,1,-5,-5v-12a5,5,0,0,1,5,-5z"></path><g id="node_text55" fill="black"><text id="kity_text_277" text-rendering="inherit" font-size="12" dy=".8em" y="672.6999924108386" x="2279.5000103488564">心理学不仅要关注人的弱点，还要关注人的优势</text></g></g><g id="minder_node59"><g id="node_expander55" style="cursor: pointer;" display="none"><path id="kity_path_570" fill="white" stroke="gray" d="M2269.500010110438,732.4999932125211A6,6,0,1,1,2257.500010110438,732.4999932125211A6,6,0,1,1,2269.500010110438,732.4999932125211"></path><path id="kity_path_571" fill="none" stroke="gray"></path></g><path id="node_outline56" fill="none" stroke="none" d="M2274.5000103488564,721.4999932125211h467a5,5,0,0,1,5,5v12a5,5,0,0,1,-5,5h-467a5,5,0,0,1,-5,-5v-12a5,5,0,0,1,5,-5z"></path><g id="node_text56" fill="black"><text id="kity_text_279" text-rendering="inherit" font-size="12" dy=".8em" y="724.699993185699" x="2279.5000103488564">不仅要致力于修复心理损伤，还要致力于给人力量，让其对生活中美好的东西感兴趣。</text></g></g><g id="minder_node60"><g id="node_expander56" style="cursor: pointer;" display="none"><path id="kity_path_573" fill="white" stroke="gray" d="M2269.500010110438,784.4999939873815A6,6,0,1,1,2257.500010110438,784.4999939873815A6,6,0,1,1,2269.500010110438,784.4999939873815"></path><path id="kity_path_574" fill="none" stroke="gray"></path></g><path id="node_outline57" fill="none" stroke="none" d="M2274.5000103488564,773.4999939873815h395a5,5,0,0,1,5,5v12a5,5,0,0,1,-5,5h-395a5,5,0,0,1,-5,-5v-12a5,5,0,0,1,5,-5z"></path><g id="node_text57" fill="black"><text id="kity_text_281" text-rendering="inherit" font-size="12" dy=".8em" y="776.6999939605594" x="2279.5000103488564">应该在关注病人的同时，努力让正常人以及“天才”们的生活更加美好。</text></g></g><g id="minder_node61"><g id="node_expander61" style="cursor: pointer;"><path id="kity_path_588" fill="white" stroke="gray" d="M2229.5000095143914,836.4999947622418A6,6,0,1,1,2217.5000095143914,836.4999947622418A6,6,0,1,1,2229.5000095143914,836.4999947622418"></path><path id="kity_path_589" fill="none" stroke="gray" d="M2219.0000095143914,836.4999947622418L2228.0000095143914,836.4999947622418"></path></g><path id="node_outline62" fill="none" stroke="none" d="M2234.50000975281,825.4999947622418h126a5,5,0,0,1,5,5v12a5,5,0,0,1,-5,5h-126a5,5,0,0,1,-5,-5v-12a5,5,0,0,1,5,-5z"></path><g id="node_text62" fill="black"><text id="kity_text_291" text-rendering="inherit" font-size="12" dy=".8em" y="828.6999947354198" x="2239.50000975281">情感化设计的3个层面</text></g></g><g id="minder_node62"><g id="node_expander58" style="cursor: pointer;" display="none"><path id="kity_path_579" fill="white" stroke="gray" d="M2269.500010110438,888.4999955371022A6,6,0,1,1,2257.500010110438,888.4999955371022A6,6,0,1,1,2269.500010110438,888.4999955371022"></path><path id="kity_path_580" fill="none" stroke="gray"></path></g><path id="node_outline59" fill="none" stroke="none" d="M2274.5000103488564,877.4999955371022h59a5,5,0,0,1,5,5v12a5,5,0,0,1,-5,5h-59a5,5,0,0,1,-5,-5v-12a5,5,0,0,1,5,-5z"></path><g id="node_text59" fill="black"><text id="kity_text_285" text-rendering="inherit" font-size="12" dy=".8em" y="880.6999955102801" x="2279.5000103488564">本能层面</text></g></g><g id="minder_node63"><g id="node_expander59" style="cursor: pointer;" display="none"><path id="kity_path_582" fill="white" stroke="gray" d="M2269.500010110438,940.4999963119626A6,6,0,1,1,2257.500010110438,940.4999963119626A6,6,0,1,1,2269.500010110438,940.4999963119626"></path><path id="kity_path_583" fill="none" stroke="gray"></path></g><path id="node_outline60" fill="none" stroke="none" d="M2274.5000103488564,929.4999963119626h59a5,5,0,0,1,5,5v12a5,5,0,0,1,-5,5h-59a5,5,0,0,1,-5,-5v-12a5,5,0,0,1,5,-5z"></path><g id="node_text60" fill="black"><text id="kity_text_287" text-rendering="inherit" font-size="12" dy=".8em" y="932.6999962851405" x="2279.5000103488564">行为层面</text></g></g><g id="minder_node64"><g id="node_expander60" style="cursor: pointer;" display="none"><path id="kity_path_585" fill="white" stroke="gray" d="M2269.500010110438,992.499997086823A6,6,0,1,1,2257.500010110438,992.499997086823A6,6,0,1,1,2269.500010110438,992.499997086823"></path><path id="kity_path_586" fill="none" stroke="gray"></path></g><path id="node_outline61" fill="none" stroke="none" d="M2274.5000103488564,981.499997086823h59a5,5,0,0,1,5,5v12a5,5,0,0,1,-5,5h-59a5,5,0,0,1,-5,-5v-12a5,5,0,0,1,5,-5z"></path><g id="node_text61" fill="black"><text id="kity_text_289" text-rendering="inherit" font-size="12" dy=".8em" y="984.6999970600009" x="2279.5000103488564">反思层面</text></g></g><g id="minder_node65"><g id="node_expander68" style="cursor: pointer;"><path id="kity_path_609" fill="white" stroke="gray" d="M2189.500008918345,1044.4999978616834A6,6,0,1,1,2177.500008918345,1044.4999978616834A6,6,0,1,1,2189.500008918345,1044.4999978616834"></path><path id="kity_path_610" fill="none" stroke="gray" d="M2179.000008918345,1044.4999978616834L2188.000008918345,1044.4999978616834"></path></g><path id="node_outline69" fill="#f2dbdb" stroke="none" d="M2194.5000091567636,1033.4999978616834h108a5,5,0,0,1,5,5v12a5,5,0,0,1,-5,5h-108a5,5,0,0,1,-5,-5v-12a5,5,0,0,1,5,-5z"></path><g id="node_text69" fill="black"><text id="kity_text_305" text-rendering="inherit" font-size="12" dy=".8em" y="1036.6999978348613" x="2199.5000091567636">环境与可持续设计</text></g></g><g id="minder_node66"><g id="node_expander63" style="cursor: pointer;" display="none"><path id="kity_path_594" fill="white" stroke="gray" d="M2229.5000095143914,1096.4999986365438A6,6,0,1,1,2217.5000095143914,1096.4999986365438A6,6,0,1,1,2229.5000095143914,1096.4999986365438"></path><path id="kity_path_595" fill="none" stroke="gray"></path></g><path id="node_outline64" fill="none" stroke="none" d="M2234.50000975281,1085.4999986365438h287a5,5,0,0,1,5,5v12a5,5,0,0,1,-5,5h-287a5,5,0,0,1,-5,-5v-12a5,5,0,0,1,5,-5z"></path><g id="node_text64" fill="black"><text id="kity_text_295" text-rendering="inherit" font-size="12" dy=".8em" y="1088.6999986097217" x="2239.50000975281">地球已满，环境正在逐渐恶化，人类应该何去何从？</text></g></g><g id="minder_node67"><g id="node_expander67" style="cursor: pointer;"><path id="kity_path_606" fill="white" stroke="gray" d="M2229.5000095143914,1148.4999994114041A6,6,0,1,1,2217.5000095143914,1148.4999994114041A6,6,0,1,1,2229.5000095143914,1148.4999994114041"></path><path id="kity_path_607" fill="none" stroke="gray" d="M2219.0000095143914,1148.4999994114041L2228.0000095143914,1148.4999994114041"></path></g><path id="node_outline68" fill="none" stroke="none" d="M2234.50000975281,1137.4999994114041h132a5,5,0,0,1,5,5v12a5,5,0,0,1,-5,5h-132a5,5,0,0,1,-5,-5v-12a5,5,0,0,1,5,-5z"></path><g id="node_text68" fill="black"><text id="kity_text_303" text-rendering="inherit" font-size="12" dy=".8em" y="1140.699999384582" x="2239.50000975281">共建可持续发展的未来</text></g></g><g id="minder_node68"><g id="node_expander64" style="cursor: pointer;" display="none"><path id="kity_path_597" fill="white" stroke="gray" d="M2269.500010110438,1200.5000001862645A6,6,0,1,1,2257.500010110438,1200.5000001862645A6,6,0,1,1,2269.500010110438,1200.5000001862645"></path><path id="kity_path_598" fill="none" stroke="gray"></path></g><path id="node_outline65" fill="none" stroke="none" d="M2274.5000103488564,1189.5000001862645h131a5,5,0,0,1,5,5v12a5,5,0,0,1,-5,5h-131a5,5,0,0,1,-5,-5v-12a5,5,0,0,1,5,-5z"></path><g id="node_text65" fill="black"><text id="kity_text_297" text-rendering="inherit" font-size="12" dy=".8em" y="1192.7000001594424" x="2279.5000103488564">商业可实现可持续发展</text></g></g><g id="minder_node69"><g id="node_expander65" style="cursor: pointer;" display="none"><path id="kity_path_600" fill="white" stroke="gray" d="M2269.500010110438,1252.500000961125A6,6,0,1,1,2257.500010110438,1252.500000961125A6,6,0,1,1,2269.500010110438,1252.500000961125"></path><path id="kity_path_601" fill="none" stroke="gray"></path></g><path id="node_outline66" fill="none" stroke="none" d="M2274.5000103488564,1241.500000961125h143a5,5,0,0,1,5,5v12a5,5,0,0,1,-5,5h-143a5,5,0,0,1,-5,-5v-12a5,5,0,0,1,5,-5z"></path><g id="node_text66" fill="black"><text id="kity_text_299" text-rendering="inherit" font-size="12" dy=".8em" y="1244.7000009343028" x="2279.5000103488564">时尚服装业的可持续设计</text></g></g><g id="minder_node70"><g id="node_expander66" style="cursor: pointer;" display="none"><path id="kity_path_603" fill="white" stroke="gray" d="M2269.500010110438,1304.5000017359853A6,6,0,1,1,2257.500010110438,1304.5000017359853A6,6,0,1,1,2269.500010110438,1304.5000017359853"></path><path id="kity_path_604" fill="none" stroke="gray"></path></g><path id="node_outline67" fill="none" stroke="none" d="M2274.5000103488564,1293.5000017359853h198a5,5,0,0,1,5,5v12a5,5,0,0,1,-5,5h-198a5,5,0,0,1,-5,-5v-12a5,5,0,0,1,5,-5z"></path><g id="node_text67" fill="black"><text id="kity_text_301" text-rendering="inherit" font-size="12" dy=".8em" y="1296.7000017091632" x="2279.5000103488564">5项变革策略建立可持续发展的世界</text></g></g><g id="minder_node71"><g id="node_expander69" style="cursor: pointer;"><path id="kity_path_612" fill="white" stroke="gray" d="M2189.500008918345,1356.5000025108457A6,6,0,1,1,2177.500008918345,1356.5000025108457A6,6,0,1,1,2189.500008918345,1356.5000025108457"></path><path id="kity_path_613" fill="none" stroke="gray" d="M2179.000008918345,1356.5000025108457L2188.000008918345,1356.5000025108457"></path></g><path id="node_outline70" fill="#f2dbdb" stroke="none" d="M2194.5000091567636,1345.5000025108457h119a5,5,0,0,1,5,5v12a5,5,0,0,1,-5,5h-119a5,5,0,0,1,-5,-5v-12a5,5,0,0,1,5,-5z" stroke-width="3"></path><g id="node_text70" fill="black"><text id="kity_text_307" text-rendering="inherit" font-size="12" dy=".8em" y="1348.7000024840236" x="2199.5000091567636">作业系统与系统思维</text></g></g><g id="minder_node72"><g id="node_expander71" style="cursor: pointer;"><path id="kity_path_623" fill="white" stroke="gray" d="M2229.5000095143914,1408.500003285706A6,6,0,1,1,2217.5000095143914,1408.500003285706A6,6,0,1,1,2229.5000095143914,1408.500003285706"></path><path id="kity_path_624" fill="none" stroke="gray" d="M2219.0000095143914,1408.500003285706L2228.0000095143914,1408.500003285706"></path></g><path id="node_outline72" fill="none" stroke="none" d="M2234.50000975281,1397.500003285706h143a5,5,0,0,1,5,5v12a5,5,0,0,1,-5,5h-143a5,5,0,0,1,-5,-5v-12a5,5,0,0,1,5,-5z" stroke-width="3"></path><g id="node_text72" fill="black"><text id="kity_text_620" text-rendering="inherit" font-size="12" dy=".8em" y="1400.700003258884" x="2239.50000975281">使用创新设计和系统思维</text></g></g><g id="minder_node73"><g id="node_expander72" style="cursor: pointer;"><path id="kity_path_631" fill="white" stroke="gray" d="M2229.5000095143914,1512.5000048354268A6,6,0,1,1,2217.5000095143914,1512.5000048354268A6,6,0,1,1,2229.5000095143914,1512.5000048354268"></path><path id="kity_path_632" fill="none" stroke="gray" d="M2219.0000095143914,1512.5000048354268L2228.0000095143914,1512.5000048354268"></path></g><path id="node_outline73" fill="none" stroke="none" d="M2234.50000975281,1501.5000048354268h112a5,5,0,0,1,5,5v12a5,5,0,0,1,-5,5h-112a5,5,0,0,1,-5,-5v-12a5,5,0,0,1,5,-5z" stroke-width="3"></path><g id="node_text73" fill="black"><text id="kity_text_628" text-rendering="inherit" font-size="12" dy=".8em" y="1504.7000048086047" x="2239.50000975281">设计如何系统思维?</text></g></g><g id="minder_node74"><g id="node_expander73" style="cursor: pointer;" display="none"><path id="kity_path_639" fill="white" stroke="gray" d="M2269.500010110438,1460.5000040605664A6,6,0,1,1,2257.500010110438,1460.5000040605664A6,6,0,1,1,2269.500010110438,1460.5000040605664"></path><path id="kity_path_640" fill="none" stroke="gray"></path></g><path id="node_outline74" fill="none" stroke="none" d="M2274.5000103488564,1449.5000040605664h396a5,5,0,0,1,5,5v12a5,5,0,0,1,-5,5h-396a5,5,0,0,1,-5,-5v-12a5,5,0,0,1,5,-5z" stroke-width="3"></path><g id="node_text74" fill="black"><text id="kity_text_636" text-rendering="inherit" font-size="12" dy=".8em" y="1452.7000040337443" x="2279.5000103488564">例子：引入生命周期思维，将设计融入每一个阶段，打破固有的环境民俗</text></g></g><g id="minder_node75"><g id="node_expander74" style="cursor: pointer;" display="none"><path id="kity_path_647" fill="white" stroke="gray" d="M2269.500010110438,1564.5000056102872A6,6,0,1,1,2257.500010110438,1564.5000056102872A6,6,0,1,1,2269.500010110438,1564.5000056102872"></path><path id="kity_path_648" fill="none" stroke="gray"></path></g><path id="node_outline75" fill="none" stroke="none" d="M2274.5000103488564,1553.5000056102872h251a5,5,0,0,1,5,5v12a5,5,0,0,1,-5,5h-251a5,5,0,0,1,-5,-5v-12a5,5,0,0,1,5,-5z" stroke-width="3"></path><g id="node_text75" fill="black"><text id="kity_text_644" text-rendering="inherit" font-size="12" dy=".8em" y="1556.700005583465" x="2279.5000103488564">例子：通过设计系统化人们对烤面包步骤思考</text></g></g><g id="minder_node76"><g id="node_expander75" style="cursor: pointer;" display="none"><path id="kity_path_655" fill="white" stroke="gray" d="M2269.500010110438,1616.5000063851476A6,6,0,1,1,2257.500010110438,1616.5000063851476A6,6,0,1,1,2269.500010110438,1616.5000063851476"></path><path id="kity_path_656" fill="none" stroke="gray"></path></g><path id="node_outline76" fill="none" stroke="none" d="M2274.5000103488564,1605.5000063851476h252a5,5,0,0,1,5,5v12a5,5,0,0,1,-5,5h-252a5,5,0,0,1,-5,-5v-12a5,5,0,0,1,5,-5z" stroke-width="3"></path><g id="node_text76" fill="black"><text id="kity_text_652" text-rendering="inherit" font-size="12" dy=".8em" y="1608.7000063583255" x="2279.5000103488564">例子：资本主义不是意识形态，而是操作系统</text></g></g></g></g></svg>